{"glyphs":{"0":{"ha":994,"x_min":0,"x_max":0,"o":"m 497 -18 b 310 19 426 -18 363 -6 b 175 123 256 43 211 78 b 93 288 139 168 112 223 b 65 506 75 352 65 425 b 93 722 65 586 75 658 b 175 885 112 786 139 840 b 310 988 211 929 256 963 b 497 1024 363 1012 426 1024 b 683 988 568 1024 630 1012 b 818 885 737 963 782 929 b 900 722 854 840 881 786 b 928 506 919 658 928 586 b 900 288 928 425 919 352 b 818 123 881 223 854 168 b 683 19 782 78 737 43 b 497 -18 630 -6 568 -18 m 497 151 b 639 237 556 151 603 180 b 693 506 675 294 693 383 b 639 771 693 627 675 715 b 497 854 603 826 556 854 b 354 771 438 854 390 826 b 300 506 318 715 300 627 b 354 237 300 383 318 294 b 497 151 390 180 438 151 "},"1":{"ha":576,"x_min":0,"x_max":0,"o":"m 244 676 l 15 676 l 15 844 b 124 856 57 845 93 849 b 204 886 155 863 182 873 b 260 935 226 899 245 916 b 299 1007 275 955 288 979 l 472 1007 l 472 0 l 244 0 "},"2":{"ha":847,"x_min":0,"x_max":0,"o":"m 438 1024 b 583 1005 490 1024 539 1017 b 699 949 628 992 666 974 b 774 860 731 925 756 895 b 801 740 792 825 801 785 b 769 589 801 688 791 637 b 674 449 747 541 716 494 b 524 316 633 403 583 359 b 324 188 464 273 398 230 l 806 188 l 806 0 l 32 0 l 32 188 b 231 331 100 237 166 284 b 403 469 295 378 353 424 b 525 600 454 514 494 557 b 571 726 556 643 571 685 b 529 823 571 770 557 802 b 431 854 501 844 469 854 b 370 844 410 854 390 851 b 317 810 350 837 333 825 b 281 745 302 794 290 772 b 269 644 271 718 268 684 l 43 644 b 69 804 41 704 50 757 b 150 924 88 851 115 891 b 276 998 185 956 227 981 b 438 1024 325 1015 379 1024 "},"3":{"ha":889,"x_min":0,"x_max":0,"o":"m 438 151 b 556 187 488 151 527 163 b 599 292 584 210 599 245 b 539 390 599 336 579 369 b 382 421 499 410 447 421 l 315 421 l 315 610 l 375 610 b 530 642 441 610 492 621 b 586 742 567 664 586 697 b 574 790 586 760 582 776 b 540 826 565 804 554 816 b 492 847 526 835 510 843 b 438 854 474 852 456 854 b 376 847 416 854 396 852 b 322 824 356 843 338 835 b 283 781 306 814 293 799 b 261 714 272 763 265 741 l 35 714 b 80 856 40 769 55 817 b 174 951 104 894 136 926 b 301 1006 212 976 254 995 b 449 1024 349 1018 398 1024 b 581 1008 493 1024 537 1019 b 699 961 625 998 665 982 b 784 879 734 940 762 912 b 817 761 806 846 817 806 b 805 686 817 734 813 709 b 773 622 797 663 786 642 b 728 570 759 603 744 585 b 676 532 711 555 694 542 b 743 491 701 522 724 508 b 792 433 763 474 779 454 b 823 364 806 411 816 388 b 833 293 830 340 833 316 b 800 157 833 241 822 196 b 712 60 778 118 748 86 b 585 1 675 34 633 14 b 433 -18 537 -12 486 -18 b 288 1 383 -18 335 -12 b 162 60 241 13 200 33 b 69 165 125 88 94 122 b 22 315 44 207 29 257 l 250 315 b 274 240 254 286 262 260 b 317 189 286 219 300 202 b 373 160 333 176 352 166 b 438 151 394 154 415 151 "},"4":{"ha":879,"x_min":0,"x_max":0,"o":"m 501 414 l 501 708 l 263 414 m 731 213 l 731 0 l 501 0 l 501 213 l 11 213 l 11 392 l 518 1007 l 731 1007 l 731 414 l 869 414 l 869 213 "},"5":{"ha":931,"x_min":0,"x_max":0,"o":"m 463 151 b 590 198 513 151 556 167 b 640 332 623 229 640 274 b 626 412 640 362 635 389 b 587 470 616 436 603 455 b 531 504 571 485 552 497 b 467 515 510 512 489 515 b 364 490 427 515 393 507 b 294 415 335 472 312 448 l 85 436 l 156 1007 l 829 1007 l 829 821 l 346 821 l 322 632 b 414 671 346 649 377 662 b 522 685 451 680 487 685 b 654 663 568 685 612 677 b 767 597 697 648 734 626 b 847 487 800 567 827 531 b 876 333 866 443 876 392 b 843 181 876 276 865 225 b 753 71 821 137 791 100 b 623 4 716 41 672 19 b 465 -18 573 -11 521 -18 b 319 3 413 -18 365 -11 b 196 65 273 17 232 38 b 106 168 160 93 130 127 b 58 310 83 209 67 256 l 279 310 b 345 187 289 251 311 210 b 463 151 379 163 418 151 "},"6":{"ha":908,"x_min":0,"x_max":0,"o":"m 296 331 b 340 200 296 276 311 232 b 460 151 370 168 410 151 b 577 200 510 151 549 168 b 619 331 605 232 619 276 b 577 460 619 383 605 426 b 460 510 549 493 510 510 b 340 462 410 510 370 494 b 296 331 311 430 296 386 m 474 858 b 400 843 447 858 422 853 b 342 797 378 833 359 818 b 305 719 326 777 314 751 b 293 608 296 688 292 651 b 383 662 318 631 348 648 b 510 682 417 675 460 682 b 640 656 555 682 599 673 b 750 583 682 639 719 615 b 826 472 781 552 807 515 b 854 331 845 428 854 381 b 825 187 854 278 844 230 b 743 76 806 144 778 107 b 618 6 708 46 666 22 b 460 -18 570 -10 517 -18 b 276 20 388 -18 327 -5 b 149 126 224 46 182 81 b 77 284 116 171 92 223 b 54 479 62 345 54 410 b 78 689 54 553 62 623 b 155 862 95 755 120 812 b 289 980 190 911 234 951 b 486 1024 344 1009 409 1024 b 639 1001 544 1024 595 1016 b 748 938 682 985 719 965 b 815 846 777 912 800 881 b 843 733 831 811 840 773 l 618 733 b 569 831 613 781 596 813 b 474 858 541 849 510 858 "},"7":{"ha":728,"x_min":0,"x_max":0,"o":"m 750 1007 l 750 821 b 568 646 680 762 619 703 b 442 464 517 588 475 528 b 366 256 408 400 383 331 b 338 0 349 181 339 95 l 93 0 b 124 258 93 93 103 179 b 210 480 145 338 174 412 b 342 667 247 548 291 610 b 510 821 393 723 449 775 l -4 821 l -4 1007 "},"8":{"ha":950,"x_min":0,"x_max":0,"o":"m 475 -18 b 312 3 417 -18 362 -11 b 182 65 262 17 219 37 b 95 165 145 92 116 125 b 64 299 74 204 64 249 b 93 431 64 346 74 390 b 200 542 112 472 148 509 b 119 626 165 566 138 594 b 92 753 101 658 92 700 b 119 859 92 791 101 826 b 196 945 137 892 163 921 b 317 1003 229 970 269 989 b 475 1024 364 1017 417 1024 b 633 1003 533 1024 586 1017 b 753 945 681 989 721 970 b 830 859 786 921 812 892 b 857 753 848 826 857 791 b 829 626 857 700 848 658 b 750 542 811 594 784 566 b 857 431 802 509 838 472 b 886 299 876 390 886 346 b 855 165 886 249 876 204 b 768 65 834 125 805 92 b 638 3 731 37 688 17 b 475 -18 588 -11 533 -18 m 475 151 b 551 164 504 151 529 156 b 606 198 572 172 591 184 b 640 247 620 212 632 229 b 651 307 647 266 651 286 b 606 413 651 349 636 384 b 475 457 576 442 532 457 b 344 413 418 457 374 442 b 299 307 314 384 299 349 b 310 247 299 286 303 266 b 344 198 318 229 330 212 b 399 164 359 184 378 172 b 475 151 421 156 446 151 m 475 607 b 592 642 527 607 566 619 b 631 731 618 666 631 695 b 592 819 631 767 618 796 b 475 854 566 843 527 854 b 358 819 423 854 384 843 b 319 731 332 796 319 767 b 358 642 319 695 332 666 b 475 607 384 619 423 607 "},"9":{"ha":904,"x_min":0,"x_max":0,"o":"m 603 675 b 559 806 603 730 588 773 b 440 854 530 838 490 854 b 323 806 390 854 351 838 b 281 675 295 773 281 730 b 323 546 281 622 295 579 b 440 496 351 513 390 496 b 559 544 490 496 530 512 b 603 675 588 576 603 619 m 425 149 b 499 164 452 149 477 154 b 558 210 522 174 541 189 b 595 287 574 230 586 256 b 607 397 604 318 608 355 b 517 344 582 375 552 357 b 389 324 483 330 440 324 b 258 349 344 324 300 332 b 149 422 217 366 180 391 b 74 533 117 454 92 491 b 46 675 55 576 46 623 b 75 819 46 728 56 776 b 156 929 94 862 122 899 b 281 999 191 960 233 983 b 440 1024 330 1016 383 1024 b 624 985 512 1024 573 1011 b 751 880 676 960 718 925 b 823 722 784 835 808 782 b 846 526 838 661 846 596 b 822 317 846 452 838 382 b 745 144 805 251 780 193 b 611 26 710 94 666 55 b 414 -18 556 -3 491 -18 b 261 5 356 -18 305 -10 b 152 67 218 20 181 41 b 85 160 123 94 100 125 b 57 272 69 195 60 232 l 282 272 b 331 175 288 225 304 193 b 425 149 359 157 390 149 "}," ":{"ha":299,"x_min":0,"x_max":0,"o":""},"!":{"ha":425,"x_min":0,"x_max":0,"o":"m 67 732 l 67 1007 l 358 1007 l 358 732 l 289 321 l 136 321 m 83 247 l 342 247 l 342 0 l 83 0 "},"\"":{"ha":578,"x_min":0,"x_max":0,"o":"m 515 654 l 346 654 l 315 1007 l 546 1007 m 232 654 l 63 654 l 32 1007 l 263 1007 "},"#":{"ha":1147,"x_min":0,"x_max":0,"o":"m 321 1007 l 539 1007 l 508 794 l 721 794 l 751 1007 l 969 1007 l 939 794 l 1144 794 l 1119 604 l 911 604 l 881 394 l 1088 394 l 1064 203 l 853 203 l 824 0 l 606 0 l 635 203 l 422 203 l 393 0 l 175 0 l 204 203 l 3 203 l 28 394 l 232 394 l 263 604 l 60 604 l 83 794 l 290 794 m 663 394 l 693 604 l 481 604 l 450 394 "},"$":{"ha":911,"x_min":0,"x_max":0,"o":"m 503 1021 b 644 986 554 1016 601 1005 b 756 915 687 968 724 944 b 828 815 787 887 811 853 b 853 689 846 776 854 734 l 631 686 b 598 794 632 730 622 766 b 503 843 574 822 543 838 l 503 603 l 508 601 b 631 568 547 592 588 581 b 747 514 673 555 712 537 b 833 426 781 491 810 462 b 867 294 855 391 867 347 b 836 169 867 247 856 205 b 755 75 816 132 789 101 b 638 13 721 49 682 28 b 503 -15 594 -2 549 -12 l 503 -156 l 408 -156 l 408 -15 b 262 18 356 -12 307 0 b 145 92 217 37 178 61 b 69 200 112 122 87 158 b 43 340 51 242 42 288 l 265 343 b 303 212 263 286 276 242 b 408 161 330 182 365 165 l 408 418 l 358 429 b 252 464 322 437 287 448 b 158 525 217 480 186 500 b 91 615 131 550 108 580 b 65 733 74 649 65 689 b 96 855 65 780 75 820 b 175 942 116 890 143 919 b 285 997 207 966 244 984 b 408 1022 327 1010 368 1019 l 408 1132 l 503 1132 m 647 275 b 608 351 647 307 634 333 b 503 396 581 369 546 384 l 503 160 b 606 195 544 163 578 174 b 647 275 633 216 647 243 m 279 739 b 308 669 279 712 289 689 b 408 624 327 649 360 634 l 408 846 b 315 813 370 844 339 833 b 279 739 291 793 279 769 "},"%":{"ha":1492,"x_min":0,"x_max":0,"o":"m 269 544 b 333 584 295 544 317 558 b 358 722 350 610 358 656 b 333 863 358 790 350 837 b 269 901 317 888 295 901 b 203 863 243 901 221 888 b 178 722 186 837 178 790 b 203 584 178 656 186 610 b 269 544 221 558 243 544 m 269 429 b 83 506 187 429 125 455 b 21 722 42 558 21 630 b 83 939 21 815 42 887 b 269 1017 125 991 187 1017 b 453 939 351 1017 412 991 b 515 722 495 887 515 815 b 453 506 515 630 495 558 b 269 429 412 455 351 429 m 978 1007 l 1208 1007 l 514 0 l 283 0 m 1200 104 b 1264 144 1226 104 1247 117 b 1289 282 1281 170 1289 216 b 1264 422 1289 350 1281 396 b 1200 461 1247 448 1226 461 b 1134 422 1173 461 1151 448 b 1108 282 1117 396 1108 350 b 1134 144 1108 216 1117 170 b 1200 104 1151 117 1173 104 m 1200 -11 b 1014 66 1118 -11 1056 15 b 951 282 972 117 951 189 b 1014 499 951 375 972 447 b 1200 576 1056 550 1118 576 b 1384 499 1281 576 1343 550 b 1446 282 1425 447 1446 375 b 1384 66 1446 189 1425 117 b 1200 -11 1343 15 1281 -11 "},"&":{"ha":976,"x_min":0,"x_max":0,"o":"m 344 -18 b 201 4 293 -18 245 -11 b 86 67 157 19 119 40 b 10 166 54 95 28 128 b -17 294 -8 204 -17 247 b 3 395 -17 331 -10 365 b 57 476 17 425 35 452 b 132 538 79 499 104 520 b 217 583 160 556 188 571 b 139 696 182 625 156 662 b 113 799 121 729 113 763 b 134 889 113 831 120 861 b 195 960 148 917 169 941 b 290 1007 222 980 253 996 b 414 1024 327 1018 369 1024 b 526 1010 452 1024 489 1019 b 626 967 563 1000 597 986 b 696 894 655 948 678 924 b 722 789 713 865 722 830 b 707 706 722 759 717 731 b 667 635 697 680 683 656 b 608 578 650 613 631 594 b 540 537 586 561 563 548 l 646 418 b 674 506 657 448 666 477 b 688 589 681 534 686 562 l 911 589 b 872 418 906 533 893 476 b 792 251 852 360 825 304 l 1013 0 l 717 0 l 642 86 b 505 10 600 54 554 28 b 344 -18 455 -9 402 -18 m 365 168 b 448 185 395 168 422 174 b 519 229 473 196 497 211 l 338 440 b 247 377 296 422 266 401 b 218 301 228 353 218 328 b 260 201 218 257 232 224 b 365 168 288 179 323 168 m 350 786 b 376 727 350 769 359 750 b 429 664 393 704 411 683 b 494 719 460 680 481 698 b 513 775 506 740 513 758 b 487 828 513 798 504 816 b 429 846 470 840 450 846 b 372 830 406 846 387 841 b 350 786 357 819 350 805 "},"'":{"ha":294,"x_min":0,"x_max":0,"o":"m 232 654 l 63 654 l 32 1007 l 263 1007 "},"(":{"ha":440,"x_min":0,"x_max":0,"o":"m 35 382 b 53 575 35 449 41 513 b 101 749 66 637 82 695 b 166 896 121 803 142 852 b 233 1007 190 939 212 976 l 451 1007 b 380 875 426 967 403 923 b 321 723 357 827 338 776 b 281 556 304 670 291 614 b 267 382 272 498 267 440 b 281 208 267 324 272 266 b 321 42 291 151 304 95 b 380 -111 338 -12 357 -63 b 451 -243 403 -159 426 -203 l 233 -243 b 166 -131 212 -213 190 -175 b 101 15 142 -87 121 -38 b 53 189 82 69 66 127 b 35 382 41 251 35 315 "},")":{"ha":440,"x_min":0,"x_max":0,"o":"m 406 382 b 386 189 406 315 399 251 b 338 15 373 127 357 69 b 273 -131 318 -38 297 -87 b 206 -243 249 -175 227 -213 l -11 -243 b 60 -111 14 -203 38 -159 b 118 42 82 -63 101 -12 b 158 208 135 95 148 151 b 172 382 167 266 172 324 b 158 556 172 440 167 498 b 118 723 148 614 135 670 b 60 875 101 776 82 827 b -11 1007 38 923 14 967 l 206 1007 b 273 896 227 976 249 939 b 338 749 297 852 318 803 b 386 575 357 695 373 637 b 406 382 399 513 406 449 "},"*":{"ha":496,"x_min":0,"x_max":0,"o":"m 435 918 l 485 788 l 351 740 l 432 628 l 321 546 l 236 663 l 157 546 l 39 625 l 121 740 l -14 788 l 36 918 l 164 868 l 164 1007 l 304 1007 l 304 868 "},"+":{"ha":942,"x_min":0,"x_max":0,"o":"m 364 278 l 69 278 l 69 471 l 364 471 l 364 747 l 579 747 l 579 471 l 872 471 l 872 278 l 579 278 l 579 0 l 364 0 "},",":{"ha":390,"x_min":0,"x_max":0,"o":"m 324 247 l 324 -14 l 182 -219 l 46 -219 l 167 0 l 67 0 l 67 247 "},"-":{"ha":610,"x_min":0,"x_max":0,"o":"m 60 465 l 550 465 l 550 272 l 60 272 "},".":{"ha":392,"x_min":0,"x_max":0,"o":"m 67 247 l 325 247 l 325 0 l 67 0 "},"/":{"ha":636,"x_min":0,"x_max":0,"o":"m 407 1007 l 636 1007 l 229 0 l 0 0 "},":":{"ha":392,"x_min":0,"x_max":0,"o":"m 67 747 l 325 747 l 325 500 l 67 500 m 67 247 l 325 247 l 325 0 l 67 0 "},";":{"ha":392,"x_min":0,"x_max":0,"o":"m 67 747 l 325 747 l 325 500 l 67 500 m 324 247 l 324 -14 l 182 -219 l 46 -219 l 167 0 l 67 0 l 67 247 "},"<":{"ha":942,"x_min":0,"x_max":0,"o":"m 836 538 l 346 372 l 836 204 l 836 -8 l 92 275 l 92 468 l 836 751 "},"=":{"ha":942,"x_min":0,"x_max":0,"o":"m 106 604 l 836 604 l 836 411 l 106 411 m 106 329 l 836 329 l 836 138 l 106 138 "},">":{"ha":942,"x_min":0,"x_max":0,"o":"m 106 -8 l 106 204 l 596 372 l 106 538 l 106 751 l 850 468 l 850 275 "},"?":{"ha":867,"x_min":0,"x_max":0,"o":"m 453 1024 b 597 1008 503 1024 551 1019 b 721 961 644 998 685 982 b 807 881 757 940 786 913 b 839 767 828 849 839 811 b 824 679 839 733 834 704 b 784 613 815 654 801 632 b 724 561 767 593 747 576 b 649 519 700 546 675 532 b 584 488 624 508 602 498 b 538 454 566 477 551 466 b 510 413 526 442 516 428 b 501 356 504 397 501 378 l 501 319 l 272 319 b 269 353 270 330 269 341 b 268 386 268 366 268 377 b 281 476 268 420 272 450 b 316 542 289 501 301 523 b 369 590 331 560 349 576 b 435 629 389 604 411 617 b 490 654 451 638 470 646 b 545 680 509 663 528 671 b 588 710 562 689 576 699 b 604 749 599 721 604 734 b 563 815 604 776 590 799 b 450 840 535 832 497 840 b 305 802 392 840 343 828 b 247 679 266 777 247 736 l 25 679 b 56 826 25 734 35 783 b 144 934 77 869 106 905 b 279 1001 181 963 226 985 b 453 1024 332 1016 390 1024 m 257 247 l 515 247 l 515 0 l 257 0 "},"@":{"ha":1147,"x_min":0,"x_max":0,"o":"m 838 211 b 733 237 799 211 764 220 b 668 319 703 254 681 281 b 482 210 625 246 563 210 b 395 225 451 210 422 215 b 322 272 368 235 344 251 b 272 353 301 294 284 320 b 253 468 259 385 253 424 b 278 599 253 515 261 559 b 346 703 296 640 318 674 b 440 770 374 731 405 754 b 544 794 474 786 509 794 b 631 777 574 794 603 789 b 701 711 659 766 683 744 l 712 772 l 864 772 l 810 461 b 804 408 807 443 805 425 b 807 365 803 392 804 377 b 823 335 810 352 815 342 b 857 324 831 327 842 324 b 905 340 874 324 890 329 b 945 386 920 350 934 366 b 974 460 957 406 966 431 b 985 558 981 490 985 522 b 956 710 985 616 975 666 b 877 821 937 754 911 791 b 755 888 843 850 803 873 b 599 911 707 903 655 911 b 423 878 535 911 476 900 b 286 787 370 857 324 826 b 198 651 248 749 219 703 b 167 481 177 598 167 542 b 194 318 167 421 176 367 b 273 192 213 269 239 227 b 394 110 307 156 347 129 b 551 81 442 90 494 81 b 813 146 641 81 728 102 l 853 50 b 699 -2 803 26 752 9 b 550 -18 647 -13 597 -18 b 349 19 477 -18 410 -6 b 193 122 289 43 237 78 b 92 281 150 167 116 220 b 56 485 68 343 56 411 b 97 690 56 558 69 626 b 212 856 125 753 163 808 b 385 967 260 903 318 940 b 601 1007 451 994 524 1007 b 787 981 666 1007 728 998 b 943 899 846 963 898 936 b 1051 761 988 863 1025 817 b 1092 564 1078 706 1092 640 b 1071 414 1092 507 1085 457 b 1015 303 1057 370 1038 334 b 933 235 991 273 964 250 b 838 211 903 219 871 211 m 560 637 b 507 624 540 637 523 633 b 467 587 491 614 478 602 b 441 533 456 572 447 553 b 432 468 435 512 432 490 b 518 364 432 399 461 364 b 571 378 538 364 555 369 b 610 416 587 387 600 400 b 635 472 621 432 629 451 b 643 540 640 494 643 516 b 621 611 643 570 636 594 b 560 637 606 629 586 637 "},"A":{"ha":1007,"x_min":0,"x_max":0,"o":"m 633 1007 l 1014 0 l 756 0 l 694 179 l 306 179 l 246 0 l -7 0 l 372 1007 m 631 372 l 501 756 l 371 372 "},"B":{"ha":992,"x_min":0,"x_max":0,"o":"m 531 1007 b 684 996 586 1007 637 1003 b 806 956 731 988 771 975 b 886 876 840 936 867 909 b 915 746 906 842 915 799 b 885 624 915 700 905 659 b 796 536 864 590 835 560 b 911 456 843 519 881 493 b 956 310 941 420 956 371 b 926 166 956 253 946 205 b 844 70 907 127 879 95 b 715 17 808 46 765 28 b 549 0 665 6 610 0 l 92 0 l 92 1007 m 551 200 b 666 231 602 200 641 210 b 704 314 691 251 704 279 b 666 397 704 349 691 377 b 551 428 641 418 602 428 l 329 428 l 329 200 m 539 604 b 635 632 581 604 612 613 b 668 707 657 650 668 675 b 635 781 668 738 657 763 b 539 807 612 798 581 807 l 329 807 l 329 604 "},"C":{"ha":1042,"x_min":0,"x_max":0,"o":"m 1014 375 b 959 215 1005 317 986 263 b 856 91 932 167 897 126 b 712 10 814 56 766 29 b 535 -18 658 -9 599 -18 b 324 18 456 -18 386 -6 b 165 122 262 42 209 77 b 65 287 122 168 88 222 b 31 504 42 351 31 424 b 66 719 31 584 42 656 b 168 883 90 783 124 838 b 329 988 213 929 266 963 b 542 1024 392 1012 463 1024 b 716 994 605 1024 663 1014 b 856 913 769 975 816 948 b 956 789 897 878 930 837 b 1007 631 981 741 999 688 l 774 631 b 741 719 767 665 756 694 b 686 781 726 744 707 765 b 615 816 665 796 641 808 b 533 828 588 824 561 828 b 435 806 498 828 465 821 b 355 743 404 792 378 771 b 301 641 332 715 314 681 b 282 504 288 601 282 555 b 301 364 282 451 288 405 b 355 261 314 323 332 289 b 435 199 378 233 404 213 b 536 178 466 185 500 178 b 614 187 562 178 588 181 b 686 219 640 193 664 203 b 744 280 708 234 728 254 b 781 375 761 305 773 337 l 1014 375 "},"D":{"ha":1042,"x_min":0,"x_max":0,"o":"m 761 504 b 733 664 761 571 752 624 b 660 756 715 704 690 734 b 553 797 629 777 594 791 b 428 807 513 804 471 807 l 329 807 l 329 200 l 428 200 b 553 210 471 200 513 203 b 660 252 594 216 629 230 b 733 344 690 274 715 305 b 761 504 752 384 761 438 m 424 1007 b 655 982 506 1007 583 999 b 842 899 727 965 789 937 b 967 744 894 860 936 808 b 1013 504 997 679 1013 600 b 967 263 1013 408 997 328 b 842 108 936 199 894 147 b 655 25 789 69 727 42 b 424 0 583 8 506 0 l 92 0 l 92 1007 l 424 1007 "},"E":{"ha":921,"x_min":0,"x_max":0,"o":"m 864 1007 l 864 799 l 329 799 l 329 622 l 835 622 l 835 413 l 329 413 l 329 210 l 864 210 l 864 0 l 92 0 l 92 1007 "},"F":{"ha":832,"x_min":0,"x_max":0,"o":"m 833 1007 l 833 799 l 329 799 l 329 622 l 803 622 l 803 413 l 329 413 l 329 0 l 92 0 l 92 1007 "},"G":{"ha":1088,"x_min":0,"x_max":0,"o":"m 544 1024 b 702 1003 600 1024 653 1017 b 836 940 752 989 796 968 b 937 836 876 912 909 878 b 996 692 964 794 984 746 l 763 692 b 737 742 757 709 748 726 b 692 785 725 759 710 773 b 628 816 674 798 653 808 b 542 828 603 824 574 828 b 440 808 506 828 472 821 b 357 747 408 794 380 774 b 302 647 334 720 316 687 b 282 507 289 606 282 560 b 354 262 282 400 306 319 b 546 178 402 206 466 178 b 627 186 574 178 601 181 b 699 215 653 192 677 201 b 750 267 720 228 737 245 b 769 347 763 288 769 315 l 769 367 l 526 367 l 526 561 l 1007 561 l 1007 0 l 825 0 l 818 111 b 694 13 786 67 744 34 b 510 -18 643 -8 582 -18 b 310 19 436 -18 369 -6 b 159 124 250 43 200 78 b 64 289 118 169 86 224 b 31 507 42 354 31 426 b 68 722 31 587 43 658 b 173 885 93 786 128 840 b 335 988 218 929 272 963 b 544 1024 398 1012 468 1024 "},"H":{"ha":1072,"x_min":0,"x_max":0,"o":"m 981 0 l 743 0 l 743 413 l 329 413 l 329 0 l 92 0 l 92 1007 l 329 1007 l 329 622 l 743 622 l 743 1007 l 981 1007 "},"I":{"ha":419,"x_min":0,"x_max":0,"o":"m 92 0 l 92 1007 l 329 1007 l 329 0 "},"J":{"ha":890,"x_min":0,"x_max":0,"o":"m 801 1007 l 801 385 b 701 90 801 260 768 161 b 408 -18 635 18 537 -18 b 238 12 344 -18 287 -8 b 117 95 190 32 149 59 b 43 223 84 131 60 173 b 15 385 26 272 17 326 l 253 385 b 294 217 255 304 268 248 b 408 171 319 186 357 171 b 524 217 458 171 497 186 b 564 385 550 248 564 304 l 564 1007 "},"K":{"ha":990,"x_min":0,"x_max":0,"o":"m 694 1007 l 985 1007 l 613 606 l 1004 0 l 718 0 l 446 425 l 329 297 l 329 0 l 92 0 l 92 1007 l 329 1007 l 329 608 "},"L":{"ha":811,"x_min":0,"x_max":0,"o":"m 813 210 l 813 0 l 92 0 l 92 1007 l 329 1007 l 329 210 "},"M":{"ha":1318,"x_min":0,"x_max":0,"o":"m 322 806 l 322 0 l 92 0 l 92 1007 l 467 1007 l 660 285 l 857 1007 l 1228 1007 l 1228 0 l 997 0 l 997 807 l 772 0 l 549 0 "},"N":{"ha":1104,"x_min":0,"x_max":0,"o":"m 321 694 l 321 0 l 92 0 l 92 1007 l 381 1007 l 785 313 l 785 1007 l 1014 1007 l 1014 0 l 725 0 "},"O":{"ha":1106,"x_min":0,"x_max":0,"o":"m 282 503 b 303 362 282 449 289 402 b 362 260 318 322 337 288 b 448 199 386 233 415 213 b 553 178 481 185 516 178 b 658 199 590 178 625 185 b 744 260 691 213 719 233 b 802 362 768 288 788 322 b 824 503 816 402 824 449 b 802 644 824 556 816 603 b 744 745 788 684 768 718 b 658 807 719 772 691 793 b 553 828 625 821 590 828 b 448 807 516 828 481 821 b 362 745 415 793 386 772 b 303 644 337 718 318 684 b 282 503 289 603 282 556 m 1075 503 b 1037 289 1075 424 1062 353 b 930 125 1011 225 976 170 b 765 19 884 80 829 44 b 553 -18 700 -6 630 -18 b 340 19 475 -18 404 -6 b 176 125 276 44 222 80 b 69 289 130 170 94 225 b 31 503 43 353 31 424 b 69 717 31 581 43 653 b 176 881 94 781 130 835 b 340 986 222 926 276 961 b 553 1024 404 1011 475 1024 b 765 986 630 1024 700 1011 b 930 881 829 961 884 926 b 1037 717 976 835 1011 781 b 1075 503 1062 653 1075 581 "},"P":{"ha":940,"x_min":0,"x_max":0,"o":"m 479 1007 b 660 993 544 1007 604 1002 b 806 942 716 984 765 967 b 901 842 846 918 878 884 b 936 679 925 799 936 745 b 901 515 936 613 925 558 b 806 415 878 473 846 439 b 660 363 765 390 716 373 b 479 349 604 353 544 349 l 329 349 l 329 0 l 92 0 l 92 1007 l 479 1007 m 329 549 l 486 549 b 564 554 514 549 540 550 b 627 574 588 558 609 565 b 669 614 645 584 659 597 b 685 679 680 631 685 652 b 669 743 685 705 680 726 b 627 783 659 760 645 773 b 564 802 609 792 588 799 b 486 807 540 805 514 807 l 329 807 "},"Q":{"ha":1106,"x_min":0,"x_max":0,"o":"m 1075 503 b 1029 269 1075 416 1060 338 b 900 97 999 201 956 144 l 1015 -56 l 878 -157 l 749 14 b 553 -18 688 -7 622 -18 b 340 19 475 -18 404 -6 b 176 125 276 44 222 80 b 69 289 130 170 94 225 b 31 503 43 353 31 424 b 69 717 31 581 43 653 b 176 881 94 781 130 835 b 340 986 222 926 276 961 b 553 1024 404 1011 475 1024 b 765 986 630 1024 700 1011 b 930 881 829 961 884 926 b 1037 717 976 835 1011 781 b 1075 503 1062 653 1075 581 m 761 282 b 807 377 781 309 796 341 b 824 503 818 414 824 456 b 802 644 824 556 816 603 b 744 745 788 684 768 718 b 658 807 719 772 691 793 b 553 828 625 821 590 828 b 448 807 516 828 481 821 b 362 745 415 793 386 772 b 303 644 337 718 318 684 b 282 503 289 603 282 556 b 303 362 282 449 289 402 b 362 260 318 322 337 288 b 448 199 386 233 415 212 b 553 178 481 185 516 178 b 619 186 576 178 598 181 l 519 321 l 657 421 "},"R":{"ha":1001,"x_min":0,"x_max":0,"o":"m 329 379 l 329 0 l 92 0 l 92 1007 l 479 1007 b 660 994 544 1007 604 1003 b 806 945 716 985 765 969 b 901 849 846 922 878 890 b 936 696 925 809 936 758 b 881 518 936 622 918 563 b 739 418 844 474 796 440 l 988 0 l 708 0 l 490 379 m 329 579 l 486 579 b 565 583 514 579 540 581 b 628 600 589 586 610 592 b 669 635 645 608 659 620 b 685 693 680 650 685 669 b 669 750 685 716 680 735 b 628 785 659 765 645 776 b 565 802 610 793 589 799 b 486 807 540 805 514 807 l 329 807 "},"S":{"ha":935,"x_min":0,"x_max":0,"o":"m 643 715 b 573 803 631 753 608 782 b 444 833 538 823 495 833 b 330 808 398 833 360 825 b 285 736 300 792 285 768 b 317 672 285 711 295 690 b 401 635 338 655 366 642 l 539 607 b 665 576 580 599 622 588 b 784 526 709 564 748 548 b 872 443 820 505 849 477 b 907 312 895 409 907 365 b 870 172 907 260 895 213 b 774 68 846 130 814 96 b 640 4 735 40 690 19 b 485 -18 589 -11 537 -18 b 169 73 355 -18 250 12 b 21 328 89 134 39 219 l 257 328 b 337 211 270 275 297 236 b 490 174 377 186 428 174 b 551 179 511 174 531 175 b 607 197 572 183 590 189 b 647 231 624 206 637 217 b 662 283 657 244 662 262 b 610 359 662 316 645 341 b 475 404 576 377 531 392 l 353 429 b 235 464 312 437 273 449 b 135 521 197 479 163 498 b 66 605 106 544 83 572 b 40 722 49 638 40 677 b 78 856 40 773 53 818 b 175 950 103 894 135 925 b 310 1006 215 975 260 994 b 458 1024 360 1018 409 1024 b 602 1007 507 1024 555 1018 b 729 953 649 996 691 978 b 826 857 767 928 799 896 b 878 715 852 818 869 771 l 643 715 "},"T":{"ha":899,"x_min":0,"x_max":0,"o":"m 7 799 l 7 1007 l 892 1007 l 892 799 l 568 799 l 568 0 l 329 0 l 329 799 "},"U":{"ha":1021,"x_min":0,"x_max":0,"o":"m 313 406 b 321 308 313 369 315 336 b 351 236 326 279 336 256 b 411 192 365 217 385 202 b 513 176 437 181 471 176 b 613 194 554 176 588 182 b 673 242 639 205 659 222 b 701 319 687 263 697 289 b 708 419 706 349 708 382 l 708 1007 l 946 1007 l 946 439 b 922 237 946 361 938 294 b 847 94 906 180 881 132 b 713 10 812 56 767 28 b 513 -18 658 -9 591 -18 b 317 6 438 -18 372 -10 b 181 82 262 21 217 47 b 101 220 144 117 118 163 b 75 431 84 277 75 347 l 75 1007 l 313 1007 "},"V":{"ha":943,"x_min":0,"x_max":0,"o":"m 478 267 l 710 1007 l 951 1007 l 610 0 l 332 0 l -7 1007 l 246 1007 "},"W":{"ha":1272,"x_min":0,"x_max":0,"o":"m 1035 1007 l 1272 1007 l 1044 0 l 789 0 l 636 710 l 485 0 l 231 0 l 0 1007 l 240 1007 l 378 311 l 514 1007 l 760 1007 l 908 308 "},"X":{"ha":1003,"x_min":0,"x_max":0,"o":"m 1 1007 l 281 1007 l 503 703 l 726 1007 l 1001 1007 l 639 517 l 1018 0 l 739 0 l 499 326 l 258 0 l -15 0 l 363 513 "},"Y":{"ha":961,"x_min":0,"x_max":0,"o":"m 481 621 l 708 1007 l 983 1007 l 594 389 l 594 0 l 357 0 l 357 392 l -22 1007 l 256 1007 "},"Z":{"ha":911,"x_min":0,"x_max":0,"o":"m 339 210 l 867 210 l 867 0 l 26 0 l 26 182 l 550 799 l 67 799 l 67 1007 l 860 1007 l 860 825 "},"[":{"ha":450,"x_min":0,"x_max":0,"o":"m 465 819 l 304 819 l 304 -56 l 465 -56 l 465 -243 l 79 -243 l 79 1007 l 465 1007 "},"\\":{"ha":636,"x_min":0,"x_max":0,"o":"m 408 0 l 0 1007 l 231 1007 l 636 0 "},"]":{"ha":450,"x_min":0,"x_max":0,"o":"m 371 -243 l -15 -243 l -15 -56 l 144 -56 l 144 819 l -15 819 l -15 1007 l 371 1007 "},"^":{"ha":771,"x_min":0,"x_max":0,"o":"m 525 469 l 386 786 l 247 469 l 31 469 l 292 1007 l 481 1007 l 742 469 "},"_":{"ha":679,"x_min":0,"x_max":0,"o":"m 31 0 l 649 0 l 649 -193 l 31 -193 "},"`":{"ha":453,"x_min":0,"x_max":0,"o":"m 290 1007 l 422 846 l 250 846 l 31 1007 "},"a":{"ha":829,"x_min":0,"x_max":0,"o":"m 539 496 b 507 589 539 540 528 571 b 412 615 486 606 454 615 b 322 588 375 615 345 606 b 279 506 298 569 284 542 l 65 506 b 96 606 68 541 78 574 b 169 691 113 638 138 666 b 283 749 201 716 239 735 b 432 771 327 764 376 771 b 575 753 486 771 533 765 b 681 699 617 742 652 724 b 745 601 709 674 731 641 b 765 457 759 562 766 513 l 762 294 l 762 217 b 765 135 762 189 763 162 b 770 59 766 108 768 83 b 779 0 772 35 775 16 l 554 0 l 551 90 b 445 6 524 50 488 22 b 300 -18 402 -10 354 -18 b 200 -3 265 -18 231 -13 b 117 41 169 7 141 22 b 62 110 94 60 75 83 b 42 201 48 137 42 167 b 78 317 42 247 54 285 b 181 394 103 348 137 374 b 339 442 225 415 278 431 b 539 467 400 453 467 461 l 539 496 m 544 332 b 435 319 505 328 468 324 b 351 300 403 315 375 308 b 297 267 328 292 310 281 b 278 218 284 254 278 238 b 308 160 278 194 288 175 b 383 138 329 145 354 138 b 447 146 406 138 428 140 b 498 174 467 151 484 161 b 532 228 512 188 524 206 b 544 314 540 251 544 280 l 544 332 "},"b":{"ha":903,"x_min":0,"x_max":0,"o":"m 465 586 b 401 574 443 586 422 582 b 349 537 381 566 363 554 b 313 472 334 521 322 499 b 300 374 304 445 300 412 b 313 275 300 335 304 302 b 349 209 322 248 334 226 b 401 172 363 192 381 179 b 465 160 422 164 443 160 b 530 174 488 160 510 164 b 583 215 550 183 567 197 b 619 281 598 233 610 255 b 632 374 628 308 632 338 b 619 465 632 408 628 438 b 583 532 610 492 598 514 b 530 572 567 550 550 563 b 465 586 510 581 488 586 m 311 646 b 356 699 323 666 338 684 b 413 735 373 713 392 726 b 477 757 434 745 455 752 b 540 764 499 762 520 764 b 673 737 588 764 633 755 b 777 660 713 720 748 694 b 845 537 806 627 829 586 b 869 374 861 489 869 435 b 845 209 869 312 861 258 b 777 86 829 160 806 119 b 673 9 748 53 713 27 b 540 -18 633 -9 588 -18 b 477 -11 520 -18 499 -16 b 413 10 455 -6 434 1 b 356 47 392 20 373 32 b 311 100 338 62 323 80 l 311 0 l 82 0 l 82 1007 l 311 1007 l 311 646 "},"c":{"ha":828,"x_min":0,"x_max":0,"o":"m 419 769 b 537 755 458 769 497 765 b 647 706 576 745 613 729 b 735 615 680 682 710 652 b 790 474 761 577 779 530 l 576 474 b 523 565 566 517 548 548 b 433 592 497 583 468 592 b 374 581 413 592 393 588 b 322 544 354 573 337 561 b 285 477 306 527 294 504 b 271 376 275 450 271 416 b 285 274 271 336 275 301 b 322 207 294 246 306 224 b 374 171 337 190 354 178 b 433 160 393 163 413 160 b 535 191 476 160 510 170 b 586 275 561 212 578 240 l 800 275 b 740 135 787 219 767 173 b 647 45 712 98 681 68 b 535 -3 612 22 575 6 b 419 -18 495 -13 456 -18 b 256 10 358 -18 304 -9 b 136 91 209 29 169 56 b 63 216 104 126 79 167 b 38 378 46 265 38 319 b 65 539 38 437 47 491 b 144 663 84 587 110 628 b 265 742 178 697 218 723 b 419 769 311 760 363 769 "},"d":{"ha":903,"x_min":0,"x_max":0,"o":"m 821 0 l 592 0 l 592 100 b 547 47 580 80 565 62 b 490 10 530 32 510 20 b 426 -11 469 1 447 -6 b 362 -18 404 -16 383 -18 b 230 9 314 -18 270 -9 b 126 86 190 27 155 53 b 58 209 97 119 74 160 b 33 374 41 258 33 313 b 58 538 33 435 41 489 b 126 660 74 586 97 627 b 230 738 155 694 190 720 b 362 764 270 755 314 764 b 426 757 383 764 404 762 b 490 735 447 752 469 745 b 547 699 510 726 530 713 b 592 646 565 684 580 666 l 592 1007 l 821 1007 m 438 586 b 373 572 414 586 393 581 b 320 532 353 563 335 550 b 284 465 305 514 293 492 b 271 374 275 438 271 408 b 284 281 271 338 275 308 b 320 215 293 255 305 233 b 373 174 335 197 353 183 b 438 160 393 164 414 160 b 501 172 460 160 481 164 b 554 209 522 179 539 192 b 590 275 569 226 581 248 b 603 374 598 302 603 335 b 590 472 603 413 598 445 b 554 538 581 499 569 521 b 501 574 539 554 522 566 b 438 586 481 582 460 586 "},"e":{"ha":861,"x_min":0,"x_max":0,"o":"m 819 235 b 754 121 803 190 781 152 b 665 42 727 89 697 63 b 559 -3 632 22 597 6 b 447 -18 522 -13 484 -18 b 281 9 386 -18 331 -9 b 151 87 231 27 188 53 b 67 211 115 121 87 162 b 38 378 47 260 38 316 b 69 540 38 437 48 491 b 156 663 91 588 119 629 b 283 742 192 697 234 723 b 438 769 331 760 383 769 b 604 736 500 769 555 758 b 728 642 653 714 695 683 b 803 499 762 602 787 554 b 822 315 820 443 826 382 l 268 315 b 286 246 270 288 276 265 b 326 198 296 226 309 210 b 379 169 342 185 360 176 b 440 160 399 163 419 160 b 547 181 484 160 519 167 b 608 235 575 194 595 213 l 819 235 m 438 594 b 328 561 397 594 360 583 b 271 454 297 539 277 503 l 594 454 b 547 560 593 501 577 537 b 438 594 518 583 481 594 "},"f":{"ha":514,"x_min":0,"x_max":0,"o":"m 104 794 b 119 902 104 839 109 875 b 168 967 130 929 146 951 b 254 999 190 982 219 993 b 382 1007 289 1004 332 1007 l 499 1007 l 499 846 l 433 846 b 383 844 413 846 396 845 b 353 837 370 844 360 841 b 338 818 345 833 340 826 b 333 785 335 810 333 799 l 333 747 l 499 747 l 499 585 l 333 585 l 333 0 l 104 0 l 104 585 l 3 585 l 3 747 l 104 747 l 104 794 "},"g":{"ha":903,"x_min":0,"x_max":0,"o":"m 821 747 l 821 100 b 790 -74 821 31 811 -27 b 707 -185 770 -120 742 -157 b 585 -244 672 -212 631 -232 b 438 -261 538 -255 489 -261 b 289 -240 382 -261 332 -254 b 176 -184 245 -226 208 -208 b 101 -102 145 -160 120 -133 b 64 -4 82 -71 69 -38 l 279 -4 b 333 -76 288 -37 306 -61 b 435 -100 359 -92 393 -100 b 558 -59 493 -100 534 -86 b 593 56 581 -32 593 6 l 593 144 b 548 92 581 124 566 106 b 490 55 530 77 511 65 b 426 33 470 45 449 38 b 363 26 404 29 383 26 b 230 51 314 26 270 34 b 126 122 190 67 155 91 b 58 238 97 154 74 192 b 33 396 41 284 33 337 b 58 553 33 455 41 508 b 126 669 74 599 97 638 b 230 740 155 700 190 723 b 363 764 270 756 314 764 b 426 757 383 764 404 762 b 490 735 449 752 470 745 b 548 699 511 726 530 713 b 593 646 566 684 581 666 l 593 747 m 437 586 b 373 575 414 586 393 582 b 320 540 353 568 335 556 b 284 481 305 525 293 505 b 271 396 275 458 271 429 b 284 310 271 362 275 334 b 320 250 293 286 305 266 b 373 215 335 234 353 223 b 437 204 393 208 414 204 b 501 214 460 204 481 207 b 554 246 522 220 539 231 b 590 305 569 261 581 280 b 603 396 598 329 603 360 b 590 488 603 433 598 463 b 554 546 581 512 569 531 b 501 577 539 561 522 571 b 437 586 481 583 460 586 "},"h":{"ha":863,"x_min":0,"x_max":0,"o":"m 311 649 b 345 690 319 663 331 676 b 396 727 359 704 376 716 b 462 753 415 738 437 747 b 543 764 486 760 513 764 b 663 743 591 764 631 757 b 740 682 695 729 721 709 b 782 583 760 655 774 622 b 794 449 790 544 794 500 l 794 0 l 565 0 l 565 392 b 563 467 565 419 565 444 b 550 529 562 491 557 512 b 516 571 543 547 531 561 b 451 586 501 581 479 586 b 344 537 402 586 367 570 b 311 383 322 504 311 453 l 311 0 l 82 0 l 82 1007 l 311 1007 l 311 649 "},"i":{"ha":394,"x_min":0,"x_max":0,"o":"m 313 0 l 82 0 l 82 747 l 313 747 m 311 824 l 82 824 l 82 1007 l 311 1007 "},"j":{"ha":393,"x_min":0,"x_max":0,"o":"m 311 747 l 311 -6 b 297 -123 311 -53 306 -92 b 252 -196 287 -154 272 -178 b 175 -233 232 -213 206 -226 b 64 -243 144 -240 106 -243 l -21 -243 l -21 -78 l 6 -78 b 68 -61 38 -78 59 -72 b 82 3 77 -50 82 -29 l 82 747 m 311 824 l 82 824 l 82 1007 l 311 1007 "},"k":{"ha":850,"x_min":0,"x_max":0,"o":"m 311 463 l 563 747 l 833 747 l 567 461 l 856 0 l 588 0 l 411 294 l 311 188 l 311 0 l 82 0 l 82 1007 l 311 1007 "},"l":{"ha":393,"x_min":0,"x_max":0,"o":"m 82 0 l 82 1007 l 311 1007 l 311 0 "},"m":{"ha":1335,"x_min":0,"x_max":0,"o":"m 82 0 l 82 747 l 311 747 l 311 649 b 344 690 319 663 331 676 b 394 727 358 704 375 716 b 460 753 414 738 436 747 b 537 764 484 760 510 764 b 681 732 598 764 645 753 b 760 638 716 711 742 679 b 869 732 788 679 825 711 b 1015 764 914 753 962 764 b 1135 743 1063 764 1103 757 b 1212 682 1167 729 1193 709 b 1254 583 1232 655 1246 622 b 1267 449 1262 544 1267 500 l 1267 0 l 1037 0 l 1037 392 b 1035 467 1037 419 1037 444 b 1021 529 1033 491 1028 512 b 987 571 1013 547 1002 561 b 922 586 972 581 950 586 b 820 538 875 586 841 570 b 789 389 799 505 789 456 l 789 0 l 560 0 l 560 392 b 557 467 560 419 559 444 b 543 529 555 491 550 512 b 509 571 536 547 524 561 b 444 586 494 581 472 586 b 342 538 397 586 363 570 b 311 389 322 505 311 456 l 311 0 "},"n":{"ha":863,"x_min":0,"x_max":0,"o":"m 311 649 b 345 690 319 663 331 676 b 396 727 359 704 376 716 b 462 753 415 738 437 747 b 543 764 486 760 513 764 b 663 743 591 764 631 757 b 740 682 695 729 721 709 b 782 583 760 655 774 622 b 794 449 790 544 794 500 l 794 0 l 565 0 l 565 392 b 563 467 565 419 565 444 b 549 529 562 491 557 512 b 515 571 541 547 530 561 b 450 586 499 581 478 586 b 344 537 401 586 366 570 b 311 383 322 504 311 453 l 311 0 l 82 0 l 82 747 l 311 747 l 311 649 "},"o":{"ha":867,"x_min":0,"x_max":0,"o":"m 433 592 b 370 581 411 592 390 588 b 318 544 350 573 333 561 b 283 477 303 527 292 504 b 271 376 275 450 271 416 b 283 276 271 338 275 304 b 317 209 292 249 303 226 b 369 172 332 192 349 179 b 433 160 389 164 410 160 b 498 172 456 160 478 164 b 549 209 518 179 535 192 b 583 276 564 226 575 249 b 596 376 592 304 596 338 b 583 477 596 416 592 450 b 549 544 575 504 563 527 b 497 581 534 561 516 573 b 433 592 477 588 456 592 m 433 769 b 583 746 485 769 535 762 b 709 674 630 730 672 706 b 797 552 746 642 775 602 b 829 376 818 503 829 444 b 797 201 829 309 818 250 b 709 78 775 151 746 110 b 583 6 672 45 630 21 b 433 -18 535 -10 485 -18 b 284 6 381 -18 332 -10 b 158 78 236 21 194 45 b 70 201 121 110 92 151 b 38 376 48 250 38 309 b 70 552 38 444 48 503 b 158 674 92 602 121 642 b 284 746 194 706 236 730 b 433 769 332 762 381 769 "},"p":{"ha":903,"x_min":0,"x_max":0,"o":"m 311 646 b 356 699 323 666 338 684 b 413 735 373 713 392 726 b 477 757 434 745 455 752 b 540 764 499 762 520 764 b 673 737 588 764 633 755 b 777 660 713 720 748 694 b 845 537 806 627 829 586 b 869 374 861 489 869 435 b 845 209 869 312 861 258 b 777 86 829 160 806 119 b 673 9 748 53 713 27 b 540 -18 633 -9 588 -18 b 477 -11 520 -18 499 -16 b 413 10 455 -6 434 1 b 356 47 392 20 373 32 b 311 100 338 62 323 80 l 311 -243 l 82 -243 l 82 747 l 311 747 l 311 646 m 465 586 b 401 574 443 586 422 582 b 349 537 381 566 363 554 b 313 472 334 521 322 499 b 300 374 304 445 300 412 b 313 275 300 335 304 302 b 349 209 322 248 334 226 b 401 172 363 192 381 179 b 465 160 422 164 443 160 b 530 174 488 160 510 164 b 583 215 550 183 567 197 b 619 281 598 233 610 255 b 632 374 628 308 632 338 b 619 465 632 408 628 438 b 583 532 610 492 598 514 b 530 572 567 550 550 563 b 465 586 510 581 488 586 "},"q":{"ha":903,"x_min":0,"x_max":0,"o":"m 438 586 b 373 572 414 586 393 581 b 320 532 353 563 335 550 b 284 465 305 514 293 492 b 271 374 275 438 271 408 b 284 281 271 338 275 308 b 320 215 293 255 305 233 b 373 174 335 197 353 183 b 438 160 393 164 414 160 b 501 172 460 160 481 164 b 554 209 522 179 539 192 b 590 275 569 226 581 248 b 603 374 598 302 603 335 b 590 472 603 413 598 445 b 554 538 581 499 569 521 b 501 574 539 554 522 566 b 438 586 481 582 460 586 m 821 -243 l 592 -243 l 592 100 b 547 47 580 80 565 62 b 490 10 530 32 510 20 b 426 -11 469 1 447 -6 b 362 -18 404 -16 383 -18 b 230 9 314 -18 270 -9 b 126 86 190 27 155 53 b 58 209 97 119 74 160 b 33 374 41 258 33 313 b 58 538 33 435 41 489 b 126 660 74 586 97 627 b 230 738 155 694 190 720 b 362 764 270 755 314 764 b 426 757 383 764 404 762 b 490 735 447 752 469 745 b 547 699 510 726 530 713 b 592 646 565 684 580 666 l 592 747 l 821 747 "},"r":{"ha":557,"x_min":0,"x_max":0,"o":"m 542 528 b 508 531 529 530 518 531 b 479 532 499 532 489 532 b 353 497 424 532 382 520 b 311 375 325 474 311 433 l 311 0 l 82 0 l 82 747 l 303 747 l 303 606 b 378 711 320 650 345 685 b 507 753 410 737 453 751 l 524 753 b 542 751 530 753 536 752 l 542 528 "},"s":{"ha":808,"x_min":0,"x_max":0,"o":"m 542 528 b 490 585 534 556 517 575 b 396 600 463 595 432 600 b 276 544 316 600 276 581 b 298 503 276 527 284 513 b 368 478 312 493 336 484 l 507 453 b 707 381 597 436 663 412 b 772 235 750 349 772 300 b 745 124 772 193 763 156 b 669 45 727 92 702 66 b 555 -2 637 24 599 9 b 411 -18 511 -13 463 -18 b 274 -2 362 -18 316 -13 b 163 47 232 9 195 25 b 85 128 131 68 105 96 b 44 243 64 161 51 200 l 257 243 b 313 169 267 207 286 182 b 414 149 341 155 374 149 b 514 165 455 149 488 154 b 553 215 540 176 553 193 b 527 257 553 232 544 246 b 436 285 510 268 480 277 l 303 307 b 127 381 231 319 172 344 b 60 536 82 418 60 469 b 87 635 60 573 69 606 b 161 707 105 663 130 688 b 270 751 193 726 229 741 b 401 767 311 762 355 767 b 524 753 444 767 485 762 b 631 711 564 745 599 731 b 712 637 663 692 690 667 b 756 528 734 607 748 570 l 542 528 "},"t":{"ha":550,"x_min":0,"x_max":0,"o":"m 347 951 l 347 747 l 511 747 l 511 585 l 347 585 l 347 250 b 368 181 347 215 354 192 b 446 165 382 171 408 165 l 511 165 l 511 0 l 365 0 b 249 8 319 0 280 3 b 172 40 217 14 192 24 b 131 103 153 55 139 76 b 118 210 122 131 118 166 l 118 585 l 0 585 l 0 747 l 118 747 l 118 951 "},"u":{"ha":857,"x_min":0,"x_max":0,"o":"m 544 104 b 460 15 521 67 493 38 b 325 -18 428 -7 382 -18 b 201 3 275 -18 234 -11 b 122 64 168 17 141 37 b 79 163 102 91 88 124 b 67 297 71 201 67 246 l 67 747 l 296 747 l 296 354 b 298 278 296 327 297 302 b 311 217 299 255 304 234 b 345 175 319 199 330 185 b 410 160 360 165 382 160 b 514 204 459 160 494 175 b 544 353 534 234 544 283 l 544 747 l 774 747 l 774 0 l 544 0 l 544 104 "},"v":{"ha":793,"x_min":0,"x_max":0,"o":"m 557 747 l 793 747 l 526 0 l 272 0 l 0 747 l 247 747 l 406 221 "},"w":{"ha":1090,"x_min":0,"x_max":0,"o":"m 750 240 l 849 747 l 1083 747 l 911 0 l 644 0 l 544 551 l 444 0 l 179 0 l 7 747 l 242 747 l 340 240 l 426 747 l 663 747 "},"x":{"ha":824,"x_min":0,"x_max":0,"o":"m 824 0 l 565 0 l 406 214 l 243 0 l 0 0 l 288 374 l 11 747 l 271 747 l 419 546 l 574 747 l 813 747 l 538 386 "},"y":{"ha":782,"x_min":0,"x_max":0,"o":"m 90 -78 l 136 -78 b 194 -76 160 -78 180 -77 b 231 -67 209 -74 222 -72 b 255 -49 241 -63 249 -57 b 272 -15 261 -40 267 -29 l 279 4 l 0 747 l 251 747 l 389 279 l 536 747 l 782 747 l 489 0 b 434 -118 470 -47 452 -87 b 372 -193 416 -150 395 -175 b 286 -232 348 -212 319 -225 b 164 -243 253 -239 212 -243 l 90 -243 "},"z":{"ha":761,"x_min":0,"x_max":0,"o":"m 422 565 l 57 565 l 57 747 l 717 747 l 717 565 l 325 182 l 733 182 l 733 0 l 31 0 l 31 182 "},"{":{"ha":500,"x_min":0,"x_max":0,"o":"m 424 -243 b 303 -232 379 -243 339 -239 b 213 -194 268 -225 238 -212 b 156 -119 188 -176 169 -151 b 136 1 143 -88 136 -48 l 136 146 b 133 206 136 168 135 188 b 118 251 130 223 125 238 b 86 280 111 263 100 273 b 31 290 72 287 54 290 l 31 475 b 86 485 54 475 72 478 b 118 515 100 492 111 502 b 133 560 125 527 130 542 b 136 618 135 577 136 597 l 136 763 b 156 883 136 811 143 851 b 213 958 169 915 188 940 b 303 996 238 976 268 988 b 424 1007 339 1003 379 1007 l 501 1007 l 501 826 l 465 826 b 392 814 433 826 408 822 b 367 760 375 806 367 788 l 367 574 b 355 492 367 541 363 514 b 324 438 347 471 337 453 b 279 404 311 424 296 413 b 226 385 263 396 245 389 l 226 381 b 279 361 245 376 263 369 b 324 327 296 353 311 341 b 355 272 337 313 347 294 b 367 192 363 250 367 223 l 367 4 b 392 -51 367 -25 375 -43 b 465 -62 408 -59 433 -62 l 501 -62 l 501 -243 l 424 -243 "},"|":{"ha":403,"x_min":0,"x_max":0,"o":"m 311 -125 l 92 -125 l 92 1007 l 311 1007 "},"}":{"ha":500,"x_min":0,"x_max":0,"o":"m 36 -63 b 110 -51 69 -63 93 -59 b 135 4 126 -43 135 -25 l 135 192 b 147 272 135 223 139 250 b 178 327 154 294 165 313 b 222 361 191 341 206 353 b 275 381 239 369 256 376 l 275 385 b 222 404 256 389 239 396 b 178 438 206 413 191 424 b 147 492 165 453 154 471 b 135 574 139 514 135 541 l 135 760 b 110 814 135 788 126 806 b 36 826 93 822 69 826 l 0 826 l 0 1007 l 78 1007 b 198 996 122 1007 162 1003 b 289 958 234 988 264 976 b 346 883 314 940 333 915 b 365 763 359 851 365 811 l 365 618 b 369 560 365 597 366 577 b 383 515 371 542 376 527 b 415 485 391 502 401 492 b 471 475 429 478 448 475 l 471 290 b 415 280 448 290 429 287 b 383 251 401 273 391 263 b 369 206 376 238 371 223 b 365 146 366 188 365 168 l 365 1 b 346 -119 365 -48 359 -88 b 289 -194 333 -151 314 -176 b 198 -232 264 -212 234 -225 b 78 -243 162 -239 122 -243 l 0 -243 l 0 -62 "},"~":{"ha":942,"x_min":0,"x_max":0,"o":"m 593 418 b 636 438 611 418 625 425 b 654 510 647 450 653 475 l 814 510 b 801 394 812 467 808 429 b 767 307 794 360 782 331 b 705 251 751 283 730 264 b 611 232 679 238 648 232 b 537 246 584 232 559 237 b 472 277 514 255 492 266 b 410 308 451 289 430 299 b 349 322 391 318 370 322 b 305 303 330 322 316 316 b 288 232 294 291 288 267 l 128 232 b 140 347 129 275 133 313 b 176 435 148 381 159 411 b 238 490 192 459 213 477 b 333 510 264 503 295 510 b 412 495 362 510 388 505 b 478 464 435 485 458 475 b 538 433 499 453 519 442 b 593 418 556 423 575 418 "}," ":{"ha":299,"x_min":0,"x_max":0,"o":""},"¡":{"ha":425,"x_min":0,"x_max":0,"o":"m 358 32 l 358 -243 l 67 -243 l 67 32 l 136 443 l 289 443 m 83 747 l 342 747 l 342 500 l 83 500 "},"¢":{"ha":810,"x_min":0,"x_max":0,"o":"m 465 767 b 570 744 500 764 535 756 b 666 692 605 732 637 715 b 742 603 695 669 721 639 b 790 474 764 568 780 525 l 576 474 b 535 555 568 510 554 537 b 465 589 515 573 492 584 l 465 161 b 544 198 498 166 524 178 b 586 275 565 218 579 244 l 800 275 b 747 147 788 225 770 182 b 667 59 724 111 697 82 b 569 7 637 36 605 19 b 465 -15 534 -5 500 -12 l 465 -144 l 394 -144 l 394 -17 b 242 17 337 -14 286 -3 b 130 99 197 37 160 64 b 61 221 100 133 77 174 b 37 378 45 268 37 320 b 63 533 37 434 46 486 b 136 653 80 579 105 620 b 249 734 168 687 205 714 b 394 768 293 754 342 765 l 394 867 l 465 867 m 271 376 b 281 288 271 342 274 313 b 308 226 287 264 296 243 b 347 185 319 209 332 195 b 394 164 362 175 378 168 l 394 586 b 308 526 361 579 332 559 b 271 376 283 493 271 443 "},"£":{"ha":911,"x_min":0,"x_max":0,"o":"m 465 840 b 363 813 424 840 390 831 b 324 739 337 795 324 770 b 347 643 324 706 331 674 b 399 551 363 613 380 582 l 636 551 l 636 447 l 447 447 b 458 385 455 425 458 404 b 446 324 458 363 454 343 b 412 268 437 304 426 286 b 361 218 397 250 381 234 b 300 174 342 202 321 188 l 301 172 b 364 197 323 184 344 192 b 426 203 384 201 405 203 b 484 198 446 203 465 201 b 540 187 503 195 522 191 b 593 176 558 183 575 179 b 643 171 611 172 627 171 b 722 183 670 171 696 175 b 799 217 747 191 773 202 l 874 39 b 760 -3 837 20 800 6 b 624 -18 720 -13 675 -18 b 545 -10 597 -18 571 -15 b 469 9 520 -4 494 2 b 395 28 444 16 420 22 b 321 36 371 33 346 36 b 237 27 300 36 272 33 b 118 -18 202 21 162 6 l 35 157 b 114 200 64 171 91 185 b 172 248 137 215 156 231 b 208 306 188 265 200 284 b 219 379 216 327 219 351 b 204 447 219 400 214 422 l 31 447 l 31 551 l 150 551 b 104 649 133 583 118 616 b 83 758 90 683 83 719 b 116 879 83 806 94 846 b 202 961 138 913 166 940 b 324 1008 238 982 278 998 b 463 1024 369 1019 415 1024 b 625 998 521 1024 575 1015 b 755 926 675 981 718 957 b 840 812 791 895 820 857 b 869 661 861 767 870 717 l 646 661 b 633 745 647 694 642 722 b 592 801 623 768 609 786 b 533 831 575 815 556 825 b 465 840 511 837 488 840 "},"¤":{"ha":883,"x_min":0,"x_max":0,"o":"m 110 481 b 126 584 110 517 115 551 b 171 674 136 617 151 647 l 75 771 l 143 839 l 238 744 b 330 794 265 766 296 782 b 438 812 364 806 400 812 b 548 794 476 812 513 806 b 642 742 583 781 614 764 l 740 839 l 808 771 l 708 671 b 753 582 727 644 742 614 b 769 481 764 550 769 516 b 753 379 769 445 764 412 b 708 290 743 347 728 317 l 808 192 l 740 124 l 642 221 b 547 171 613 200 581 183 b 438 153 513 159 476 153 b 331 170 400 153 364 159 b 239 219 297 182 267 198 l 143 124 l 75 192 l 171 289 b 126 378 151 316 136 345 b 110 481 115 410 110 444 m 299 481 b 337 374 299 437 311 402 b 438 333 362 347 396 333 b 544 374 482 333 517 347 b 583 481 570 402 583 437 b 544 591 583 526 570 563 b 438 633 517 619 482 633 b 337 591 396 633 362 619 b 299 481 311 563 299 526 "},"¥":{"ha":990,"x_min":0,"x_max":0,"o":"m 607 0 l 378 0 l 378 124 l 161 124 l 161 233 l 378 233 l 378 322 l 161 322 l 161 433 l 343 433 l -7 1007 l 271 1007 l 496 606 l 724 1007 l 999 1007 l 643 433 l 832 433 l 832 322 l 607 322 l 607 233 l 832 233 l 832 124 l 607 124 "},"¦":{"ha":339,"x_min":0,"x_max":0,"o":"m 257 583 l 82 583 l 82 1007 l 257 1007 m 257 -125 l 82 -125 l 82 299 l 257 299 "},"§":{"ha":863,"x_min":0,"x_max":0,"o":"m 424 -92 b 503 -71 458 -92 484 -85 b 531 -17 521 -57 531 -39 b 502 43 531 6 521 25 b 418 97 483 61 455 79 l 243 182 b 87 292 176 214 124 251 b 31 439 49 334 31 382 b 67 547 31 479 43 515 b 161 632 91 580 122 608 b 117 706 143 654 128 679 b 101 792 107 732 101 761 b 128 892 101 830 110 863 b 199 964 145 920 169 944 b 301 1008 228 983 263 998 b 425 1024 340 1019 381 1024 b 556 1006 472 1024 516 1018 b 660 954 595 995 630 977 b 732 867 689 931 713 902 b 767 744 750 833 762 792 l 556 744 b 511 824 548 781 533 808 b 424 849 489 841 460 849 b 353 835 394 849 370 844 b 326 797 335 825 326 813 b 351 753 326 781 334 766 b 419 711 367 740 390 726 l 606 621 b 774 511 678 586 734 549 b 833 368 813 473 833 425 b 797 253 833 326 821 288 b 693 165 772 219 738 189 b 742 92 714 143 731 119 b 760 1 754 65 760 35 b 734 -110 760 -40 751 -78 b 663 -195 717 -143 693 -172 b 556 -249 633 -219 597 -237 b 418 -268 514 -262 468 -268 b 278 -245 366 -268 320 -260 b 172 -180 237 -230 202 -208 b 102 -78 143 -152 119 -118 b 71 53 85 -39 75 5 l 283 53 b 424 -92 294 -44 341 -92 m 318 526 b 272 494 299 516 283 505 b 256 457 261 482 256 470 b 281 406 256 437 264 419 b 349 365 298 392 321 378 l 533 275 l 539 271 b 586 302 559 281 575 291 b 603 342 597 313 603 326 b 570 397 603 364 592 382 b 486 444 548 412 520 428 l 318 526 "},"¨":{"ha":576,"x_min":0,"x_max":0,"o":"m 236 1007 l 236 831 l 31 831 l 31 1007 m 546 831 l 342 831 l 342 1007 l 546 1007 "},"©":{"ha":1146,"x_min":0,"x_max":0,"o":"m 53 501 b 94 714 53 579 66 650 b 205 879 121 778 158 833 b 370 987 252 925 307 961 b 574 1025 434 1012 501 1025 b 776 987 646 1025 713 1012 b 941 879 839 961 894 925 b 1052 714 988 833 1025 778 b 1093 501 1079 650 1093 579 b 1052 290 1093 425 1079 354 b 941 126 1025 226 988 172 b 776 19 894 80 839 44 b 574 -18 713 -6 646 -18 b 370 19 501 -18 434 -6 b 205 126 307 44 252 80 b 94 290 158 172 121 226 b 53 501 66 354 53 425 m 168 501 b 199 333 168 440 178 384 b 285 202 220 282 249 239 b 414 117 322 166 365 137 b 574 86 463 96 516 86 b 735 117 632 86 686 96 b 862 202 784 137 826 166 b 947 333 899 239 927 282 b 978 501 968 384 978 440 b 947 672 978 563 968 620 b 862 804 927 723 899 767 b 735 890 826 841 784 870 b 574 919 686 909 632 919 b 414 890 516 919 463 909 b 285 804 365 870 322 841 b 199 672 249 767 220 723 b 168 501 178 620 168 563 m 575 339 b 660 363 607 339 636 347 b 707 444 684 378 700 406 l 851 413 b 753 272 836 355 803 308 b 571 217 704 235 643 217 b 453 238 527 217 488 224 b 365 298 419 253 389 272 b 310 388 341 323 323 353 b 292 503 298 423 292 461 b 312 619 292 545 298 584 b 369 708 325 653 344 683 b 459 766 394 733 424 753 b 575 786 494 779 532 786 b 672 772 609 786 642 781 b 753 730 703 762 730 748 b 813 666 777 712 797 691 b 846 585 829 641 840 614 l 703 550 b 662 633 698 582 684 610 b 575 667 639 655 610 667 b 483 626 539 667 508 653 b 446 503 458 598 446 557 b 481 381 446 450 458 409 b 575 339 505 353 536 339 "},"ª":{"ha":486,"x_min":0,"x_max":0,"o":"m 39 892 b 102 1001 44 941 65 977 b 257 1036 140 1024 191 1036 b 399 997 321 1036 368 1023 b 446 868 430 971 446 928 l 444 779 b 453 608 443 726 445 669 l 317 608 l 315 656 b 268 614 305 639 289 625 b 183 597 247 603 219 597 b 116 609 158 597 136 601 b 66 640 96 617 79 627 b 35 685 53 653 42 668 b 25 739 28 703 25 720 b 35 791 25 759 28 777 b 64 826 42 805 52 817 b 147 861 84 843 112 855 b 247 878 181 868 215 873 l 299 883 l 299 892 b 240 935 299 920 279 935 b 200 926 225 935 211 932 b 181 892 189 920 182 908 l 39 892 m 247 786 b 193 772 220 784 202 780 b 179 744 184 765 179 756 b 191 717 179 734 183 725 b 228 704 199 708 211 704 b 281 720 249 704 267 709 b 303 767 296 731 303 746 l 303 792 "},"«":{"ha":854,"x_min":0,"x_max":0,"o":"m 247 701 l 463 701 l 281 379 l 461 57 l 247 57 l 14 381 m 610 701 l 825 701 l 643 379 l 824 57 l 610 57 l 376 381 "},"¬":{"ha":942,"x_min":0,"x_max":0,"o":"m 42 638 l 844 638 l 844 85 l 629 85 l 629 446 l 42 446 "},"­":{"ha":610,"x_min":0,"x_max":0,"o":"m 60 465 l 550 465 l 550 272 l 60 272 "},"®":{"ha":1146,"x_min":0,"x_max":0,"o":"m 53 501 b 94 714 53 579 66 650 b 205 879 121 778 158 833 b 370 987 252 925 307 961 b 574 1025 434 1012 501 1025 b 776 987 646 1025 713 1012 b 941 879 839 961 894 925 b 1052 714 988 833 1025 778 b 1093 501 1079 650 1093 579 b 1052 290 1093 425 1079 354 b 941 126 1025 226 988 172 b 776 19 894 80 839 44 b 574 -18 713 -6 646 -18 b 370 19 501 -18 434 -6 b 205 126 307 44 252 80 b 94 290 158 172 121 226 b 53 501 66 354 53 425 m 168 501 b 199 333 168 440 178 384 b 285 202 220 282 249 239 b 414 117 322 166 365 137 b 574 86 463 96 516 86 b 735 117 632 86 686 96 b 862 202 784 137 826 166 b 947 333 899 239 927 282 b 978 501 968 384 978 440 b 947 672 978 563 968 620 b 862 804 927 723 899 767 b 735 890 826 841 784 870 b 574 919 686 909 632 919 b 414 890 516 919 463 909 b 285 804 365 870 322 841 b 199 672 249 767 220 723 b 168 501 178 620 168 563 m 335 243 l 335 799 l 557 799 b 660 790 594 799 628 796 b 742 762 691 785 719 775 b 796 706 765 748 783 730 b 815 617 809 683 815 653 b 787 518 815 575 806 542 b 714 464 768 494 744 476 l 849 243 l 682 243 l 565 442 l 485 442 l 485 243 m 665 617 b 649 661 665 632 660 647 b 594 682 637 675 619 682 l 485 682 l 485 557 l 594 557 b 649 574 619 557 637 563 b 665 617 660 586 665 600 "},"¯":{"ha":496,"x_min":0,"x_max":0,"o":"m 31 1008 l 465 1008 l 465 860 l 31 860 "},"°":{"ha":518,"x_min":0,"x_max":0,"o":"m 15 781 b 35 876 15 815 22 847 b 87 954 48 906 65 932 b 164 1006 109 976 134 994 b 258 1025 194 1019 225 1025 b 354 1006 293 1025 325 1019 b 432 954 384 994 410 976 b 485 876 454 932 472 906 b 504 781 498 847 504 815 b 485 686 504 747 498 716 b 432 608 472 656 454 631 b 354 556 410 586 384 569 b 258 536 325 543 293 536 b 164 556 225 536 194 543 b 87 608 134 569 109 586 b 35 686 65 631 48 656 b 15 781 22 716 15 747 m 157 781 b 185 703 157 751 166 725 b 258 671 204 682 229 671 b 335 703 290 671 315 682 b 364 781 354 725 364 751 b 335 858 364 811 354 837 b 258 890 315 880 290 890 b 185 858 229 890 204 880 b 157 781 166 837 157 811 "},"±":{"ha":942,"x_min":0,"x_max":0,"o":"m 576 747 l 576 583 l 857 583 l 857 392 l 576 392 l 576 228 l 367 228 l 367 392 l 85 392 l 85 583 l 367 583 l 367 747 m 85 193 l 857 193 l 857 0 l 85 0 "},"²":{"ha":507,"x_min":0,"x_max":0,"o":"m 261 1185 b 346 1175 292 1185 320 1181 b 413 1145 372 1169 394 1159 b 458 1094 432 1132 447 1115 b 475 1022 469 1074 475 1050 b 458 944 475 994 469 969 b 409 875 446 920 430 897 b 333 809 388 853 363 831 b 235 740 304 787 271 764 l 474 740 l 474 608 l 21 608 l 21 731 b 110 792 46 748 75 769 b 208 863 144 815 177 839 b 287 938 239 888 265 913 b 319 1010 309 964 319 988 b 301 1056 319 1031 313 1046 b 254 1069 288 1065 273 1069 b 194 1044 230 1069 210 1061 b 167 965 178 1028 169 1001 l 21 965 b 85 1128 22 1036 43 1090 b 261 1185 128 1166 186 1185 "},"³":{"ha":536,"x_min":0,"x_max":0,"o":"m 268 713 b 326 730 294 713 313 718 b 344 771 338 741 344 755 b 317 819 344 794 335 810 b 233 833 298 829 270 833 l 206 833 l 206 960 l 233 960 b 332 1019 299 960 332 980 b 310 1058 332 1037 325 1050 b 263 1069 296 1066 280 1069 b 206 1052 241 1069 222 1064 b 178 1001 189 1041 180 1024 l 28 1001 b 103 1138 35 1062 60 1107 b 274 1185 147 1169 203 1185 b 358 1174 304 1185 332 1181 b 426 1144 384 1167 407 1157 b 472 1097 446 1131 461 1116 b 488 1031 482 1078 488 1056 b 465 953 488 1001 480 975 b 413 906 450 932 433 916 b 478 855 439 895 461 878 b 504 771 496 831 504 803 b 485 697 504 743 498 718 b 432 642 472 675 454 656 b 356 608 410 627 384 616 b 265 597 327 601 297 597 b 95 649 195 597 138 615 b 21 794 52 684 27 732 l 169 794 b 203 733 174 768 185 747 b 268 713 220 719 242 713 "},"´":{"ha":453,"x_min":0,"x_max":0,"o":"m 31 846 l 163 1007 l 422 1007 l 203 846 "},"µ":{"ha":874,"x_min":0,"x_max":0,"o":"m 61 -243 b 74 -140 67 -212 71 -177 b 79 8 78 -102 79 -53 l 79 747 l 308 747 l 308 347 b 341 203 308 281 319 232 b 437 158 363 173 395 158 b 535 203 480 158 512 173 b 568 347 557 232 568 281 l 568 747 l 794 747 l 794 0 l 568 0 l 568 65 b 508 6 550 36 530 16 b 438 -8 485 -3 462 -8 b 367 6 414 -8 391 -3 b 306 65 343 16 322 36 l 306 0 b 289 -243 306 -101 300 -182 l 61 -243 "},"¶":{"ha":700,"x_min":0,"x_max":0,"o":"m 0 769 b 23 869 0 806 8 840 b 87 944 38 899 60 924 b 187 991 115 965 149 980 b 317 1007 226 1002 269 1007 l 612 1007 l 612 -124 l 499 -124 l 499 901 l 343 901 l 343 -124 l 231 -124 l 231 533 b 152 551 206 536 179 542 b 77 593 125 561 100 575 b 22 664 54 612 36 635 b 0 769 7 693 0 728 "},"·":{"ha":392,"x_min":0,"x_max":0,"o":"m 67 497 l 325 497 l 325 250 l 67 250 "},"¸":{"ha":385,"x_min":0,"x_max":0,"o":"m 54 -185 b 92 -198 63 -189 75 -194 b 146 -204 109 -202 127 -204 b 193 -196 164 -204 180 -201 b 212 -164 206 -190 212 -180 b 197 -135 212 -151 207 -141 b 157 -125 187 -128 174 -125 b 131 -128 150 -125 141 -126 b 104 -137 120 -130 112 -133 l 63 -114 l 133 1 l 219 1 l 174 -71 b 225 -65 186 -67 203 -65 b 269 -70 239 -65 253 -67 b 310 -86 284 -73 298 -79 b 342 -115 323 -94 333 -103 b 354 -160 350 -127 354 -142 b 338 -215 354 -182 349 -200 b 295 -252 328 -230 313 -242 b 233 -273 277 -262 256 -269 b 163 -279 210 -277 187 -279 b 31 -260 113 -279 69 -273 l 54 -185 "},"¹":{"ha":346,"x_min":0,"x_max":0,"o":"m 133 976 l 7 976 l 7 1088 b 115 1110 56 1089 92 1097 b 167 1175 138 1124 156 1145 l 286 1175 l 286 608 l 133 608 "},"º":{"ha":506,"x_min":0,"x_max":0,"o":"m 179 817 b 200 738 179 781 186 755 b 253 713 214 721 231 713 b 305 738 274 713 291 721 b 325 817 318 755 325 781 b 305 895 325 852 318 878 b 253 921 291 912 274 921 b 200 895 231 921 214 912 b 179 817 186 878 179 852 m 24 817 b 42 914 24 854 30 886 b 91 983 54 942 70 965 b 164 1023 112 1001 136 1014 b 253 1036 192 1032 221 1036 b 340 1023 283 1036 313 1032 b 413 983 368 1014 392 1001 b 463 914 434 965 451 942 b 482 817 476 886 482 854 b 463 719 482 779 476 746 b 413 651 451 691 434 669 b 340 610 392 633 368 619 b 253 597 313 602 283 597 b 164 610 221 597 192 602 b 91 651 136 619 112 633 b 42 719 70 669 54 691 b 24 817 30 746 24 779 "},"»":{"ha":854,"x_min":0,"x_max":0,"o":"m 31 57 l 211 379 l 29 701 l 244 701 l 478 381 l 244 57 m 393 57 l 574 379 l 392 701 l 607 701 l 840 381 l 607 57 "},"¼":{"ha":1268,"x_min":0,"x_max":0,"o":"m 133 808 l 7 808 l 7 919 b 115 942 56 921 92 929 b 167 1007 138 956 156 977 l 286 1007 l 286 440 l 133 440 m 763 1007 l 993 1007 l 299 0 l 68 0 m 1010 243 l 1010 381 l 892 243 m 1163 113 l 1163 0 l 1010 0 l 1010 113 l 738 113 l 738 229 l 1028 567 l 1163 567 l 1163 243 l 1249 243 l 1249 113 "},"½":{"ha":1222,"x_min":0,"x_max":0,"o":"m 133 808 l 7 808 l 7 919 b 115 942 56 921 92 929 b 167 1007 138 956 156 977 l 286 1007 l 286 440 l 133 440 m 763 1007 l 993 1007 l 299 0 l 68 0 m 976 576 b 1061 567 1007 576 1035 573 b 1128 537 1087 560 1109 550 b 1174 486 1147 523 1163 506 b 1190 414 1185 466 1190 442 b 1173 336 1190 386 1184 360 b 1124 267 1161 312 1145 289 b 1049 201 1103 244 1078 222 b 950 132 1019 179 986 156 l 1189 132 l 1189 0 l 736 0 l 736 122 b 825 183 761 140 791 160 b 923 255 859 206 892 230 b 1002 330 954 279 980 304 b 1035 401 1024 355 1035 379 b 1016 447 1035 423 1028 438 b 969 461 1003 456 988 461 b 909 436 945 461 925 453 b 882 357 893 419 884 393 l 736 357 b 801 519 737 427 759 481 b 976 576 843 557 901 576 "},"¾":{"ha":1458,"x_min":0,"x_max":0,"o":"m 268 544 b 326 562 294 544 313 550 b 344 603 338 573 344 587 b 317 651 344 626 335 642 b 233 665 298 661 270 665 l 206 665 l 206 792 l 233 792 b 332 851 299 792 332 812 b 310 890 332 869 325 882 b 263 901 296 897 280 901 b 206 884 241 901 222 896 b 178 833 189 872 180 856 l 28 833 b 103 970 35 894 60 939 b 274 1017 147 1001 203 1017 b 358 1006 304 1017 332 1013 b 426 976 384 999 407 989 b 472 928 446 963 461 947 b 488 863 482 909 488 888 b 465 785 488 833 480 807 b 413 738 450 764 433 748 b 478 687 439 727 461 710 b 504 603 496 663 504 635 b 485 528 504 575 498 550 b 432 474 472 507 454 488 b 356 440 410 459 384 448 b 265 429 327 433 297 429 b 95 481 195 429 138 447 b 21 626 52 516 27 564 l 169 626 b 203 565 174 600 185 579 b 268 544 220 551 242 544 m 953 1007 l 1183 1007 l 489 0 l 258 0 m 1200 243 l 1200 381 l 1082 243 m 1353 113 l 1353 0 l 1200 0 l 1200 113 l 928 113 l 928 229 l 1218 567 l 1353 567 l 1353 243 l 1439 243 l 1439 113 "},"¿":{"ha":867,"x_min":0,"x_max":0,"o":"m 411 -260 b 267 -244 361 -260 313 -255 b 143 -197 220 -234 179 -219 b 57 -117 107 -176 78 -149 b 25 -3 36 -85 25 -47 b 40 85 25 31 30 60 b 80 151 49 110 63 132 b 140 203 97 171 117 188 b 215 244 163 218 188 231 b 280 276 240 256 262 266 b 326 310 298 287 313 298 b 353 351 338 322 347 336 b 363 408 359 367 363 386 l 363 444 l 592 444 b 595 410 594 434 595 423 b 596 378 596 398 596 387 b 583 288 596 343 592 313 b 548 222 575 263 563 241 b 494 173 533 203 515 186 b 429 135 474 159 452 147 b 374 110 412 126 394 118 b 319 84 354 101 336 93 b 276 54 302 75 288 65 b 260 15 265 43 260 30 b 301 -51 260 -12 274 -35 b 414 -76 329 -68 367 -76 b 559 -38 472 -76 521 -64 b 617 85 597 -13 617 28 l 839 85 b 808 -62 839 30 828 -19 b 720 -170 787 -105 758 -141 b 585 -237 683 -199 638 -222 b 411 -260 532 -252 474 -260 m 350 747 l 608 747 l 608 500 l 350 500 "},"À":{"ha":1007,"x_min":0,"x_max":0,"o":"m 633 1007 l 1014 0 l 756 0 l 694 179 l 306 179 l 246 0 l -7 0 l 372 1007 m 631 372 l 501 756 l 371 372 m 460 1231 l 604 1074 l 401 1074 l 181 1231 "},"Á":{"ha":1007,"x_min":0,"x_max":0,"o":"m 633 1007 l 1014 0 l 756 0 l 694 179 l 306 179 l 246 0 l -7 0 l 372 1007 m 631 372 l 501 756 l 371 372 m 401 1074 l 544 1231 l 825 1231 l 604 1074 "},"Â":{"ha":1007,"x_min":0,"x_max":0,"o":"m 633 1007 l 1014 0 l 756 0 l 694 179 l 306 179 l 246 0 l -7 0 l 372 1007 m 631 372 l 501 756 l 371 372 m 581 1074 l 506 1142 l 424 1074 l 199 1074 l 393 1231 l 618 1231 l 808 1074 "},"Ã":{"ha":1007,"x_min":0,"x_max":0,"o":"m 633 1007 l 1014 0 l 756 0 l 694 179 l 306 179 l 246 0 l -7 0 l 372 1007 m 631 372 l 501 756 l 371 372 m 588 1179 b 663 1231 631 1179 656 1196 l 797 1231 b 764 1146 791 1195 780 1167 b 711 1097 748 1125 731 1108 b 651 1075 692 1086 672 1079 b 597 1069 631 1071 613 1069 b 539 1078 575 1069 556 1072 b 494 1095 522 1083 507 1089 b 457 1113 481 1101 469 1107 b 418 1121 445 1118 432 1121 b 344 1069 375 1121 351 1104 l 210 1069 b 243 1153 216 1104 227 1131 b 296 1202 259 1174 276 1191 b 356 1225 315 1214 335 1221 b 410 1231 376 1229 394 1231 b 467 1222 432 1231 451 1228 b 509 1205 482 1217 497 1211 b 546 1188 522 1199 534 1193 b 588 1179 558 1182 572 1179 "},"Ä":{"ha":1007,"x_min":0,"x_max":0,"o":"m 633 1007 l 1014 0 l 756 0 l 694 179 l 306 179 l 246 0 l -7 0 l 372 1007 m 631 372 l 501 756 l 371 372 m 446 1074 l 242 1074 l 242 1231 l 446 1231 m 765 1074 l 560 1074 l 560 1231 l 765 1231 "},"Å":{"ha":1007,"x_min":0,"x_max":0,"o":"m 633 1007 l 1014 0 l 756 0 l 694 179 l 306 179 l 246 0 l -7 0 l 372 1007 m 631 372 l 501 756 l 371 372 m 503 1299 b 592 1265 538 1299 568 1288 b 629 1181 617 1243 629 1215 b 592 1095 629 1145 617 1117 b 503 1063 568 1073 538 1063 b 414 1095 468 1063 438 1073 b 378 1181 390 1117 378 1145 b 415 1265 378 1215 390 1243 b 503 1299 439 1288 469 1299 m 503 1240 b 461 1224 487 1240 473 1235 b 443 1181 449 1213 443 1198 b 461 1138 443 1163 449 1149 b 503 1122 473 1128 487 1122 b 544 1138 519 1122 532 1128 b 562 1181 556 1149 562 1163 b 544 1224 562 1198 556 1213 b 503 1240 532 1235 519 1240 "},"Æ":{"ha":1531,"x_min":0,"x_max":0,"o":"m 1474 799 l 939 799 l 939 622 l 1443 622 l 1443 413 l 939 413 l 939 210 l 1474 210 l 1474 0 l 701 0 l 701 179 l 350 179 l 224 0 l -60 0 l 701 1007 l 1474 1007 m 701 372 l 701 674 l 488 372 "},"Ç":{"ha":1042,"x_min":0,"x_max":0,"o":"m 1014 375 b 959 215 1005 317 986 263 b 856 91 932 167 897 126 b 712 10 814 56 766 29 b 535 -18 658 -9 599 -18 b 324 18 456 -18 386 -6 b 165 122 262 42 209 77 b 65 287 122 168 88 222 b 31 504 42 351 31 424 b 66 719 31 584 42 656 b 168 883 90 783 124 838 b 329 988 213 929 266 963 b 542 1024 392 1012 463 1024 b 716 994 605 1024 663 1014 b 856 913 769 975 816 948 b 956 789 897 878 930 837 b 1007 631 981 741 999 688 l 774 631 b 741 719 767 665 756 694 b 686 781 726 744 707 765 b 615 816 665 796 641 808 b 533 828 588 824 561 828 b 435 806 498 828 465 821 b 355 743 404 792 378 771 b 301 641 332 715 314 681 b 282 504 288 601 282 555 b 301 364 282 451 288 405 b 355 261 314 323 332 289 b 435 199 378 233 404 213 b 536 178 466 185 500 178 b 614 187 562 178 588 181 b 686 219 640 193 664 203 b 744 280 708 234 728 254 b 781 375 761 305 773 337 l 1014 375 m 385 -185 b 423 -198 393 -189 406 -194 b 476 -204 440 -202 458 -204 b 524 -196 495 -204 511 -201 b 543 -164 537 -190 543 -180 b 528 -135 543 -151 538 -141 b 488 -125 518 -128 504 -125 b 461 -128 480 -125 471 -126 b 435 -137 451 -130 442 -133 l 393 -114 l 464 1 l 550 1 l 504 -71 b 556 -65 516 -67 533 -65 b 599 -70 569 -65 584 -67 b 641 -86 615 -73 628 -79 b 672 -115 653 -94 664 -103 b 685 -160 681 -127 685 -142 b 669 -215 685 -182 679 -200 b 626 -252 658 -230 644 -242 b 564 -273 608 -262 587 -269 b 493 -279 541 -277 517 -279 b 361 -260 444 -279 400 -273 l 385 -185 "},"È":{"ha":921,"x_min":0,"x_max":0,"o":"m 864 1007 l 864 799 l 329 799 l 329 622 l 835 622 l 835 413 l 329 413 l 329 210 l 864 210 l 864 0 l 92 0 l 92 1007 m 463 1231 l 607 1074 l 404 1074 l 183 1231 "},"É":{"ha":921,"x_min":0,"x_max":0,"o":"m 864 1007 l 864 799 l 329 799 l 329 622 l 835 622 l 835 413 l 329 413 l 329 210 l 864 210 l 864 0 l 92 0 l 92 1007 m 363 1074 l 506 1231 l 786 1231 l 565 1074 "},"Ê":{"ha":921,"x_min":0,"x_max":0,"o":"m 864 1007 l 864 799 l 329 799 l 329 622 l 835 622 l 835 413 l 329 413 l 329 210 l 864 210 l 864 0 l 92 0 l 92 1007 m 565 1074 l 490 1142 l 408 1074 l 183 1074 l 378 1231 l 603 1231 l 793 1074 "},"Ë":{"ha":921,"x_min":0,"x_max":0,"o":"m 864 1007 l 864 799 l 329 799 l 329 622 l 835 622 l 835 413 l 329 413 l 329 210 l 864 210 l 864 0 l 92 0 l 92 1007 m 432 1074 l 228 1074 l 228 1231 l 432 1231 m 751 1074 l 546 1074 l 546 1231 l 751 1231 "},"Ì":{"ha":419,"x_min":0,"x_max":0,"o":"m 92 0 l 92 1007 l 329 1007 l 329 0 m 168 1231 l 313 1074 l 110 1074 l -111 1231 "},"Í":{"ha":419,"x_min":0,"x_max":0,"o":"m 92 0 l 92 1007 l 329 1007 l 329 0 m 108 1074 l 251 1231 l 532 1231 l 311 1074 "},"Î":{"ha":419,"x_min":0,"x_max":0,"o":"m 92 0 l 92 1007 l 329 1007 l 329 0 m 289 1074 l 214 1142 l 132 1074 l -93 1074 l 101 1231 l 326 1231 l 517 1074 "},"Ï":{"ha":419,"x_min":0,"x_max":0,"o":"m 92 0 l 92 1007 l 329 1007 l 329 0 m 154 1074 l -50 1074 l -50 1231 l 154 1231 m 474 1074 l 268 1074 l 268 1231 l 474 1231 "},"Ð":{"ha":1089,"x_min":0,"x_max":0,"o":"m 471 1007 b 702 982 553 1007 630 999 b 889 899 774 965 836 937 b 1014 744 942 860 983 808 b 1060 504 1044 679 1060 600 b 1014 263 1060 408 1044 328 b 889 108 983 199 942 147 b 702 25 836 69 774 42 b 471 0 630 8 553 0 l 139 0 l 139 406 l 15 406 l 15 614 l 139 614 l 139 1007 l 471 1007 m 808 504 b 781 664 808 571 799 624 b 707 756 762 704 738 734 b 601 797 676 777 641 791 b 475 807 560 804 519 807 l 376 807 l 376 614 l 522 614 l 522 406 l 376 406 l 376 200 l 475 200 b 601 210 519 200 560 203 b 707 252 641 216 676 230 b 781 344 738 274 762 305 b 808 504 799 384 808 437 "},"Ñ":{"ha":1104,"x_min":0,"x_max":0,"o":"m 321 694 l 321 0 l 92 0 l 92 1007 l 381 1007 l 785 313 l 785 1007 l 1014 1007 l 1014 0 l 725 0 m 656 1179 b 731 1231 699 1179 724 1196 l 865 1231 b 832 1146 859 1195 848 1167 b 779 1097 816 1125 799 1108 b 719 1075 760 1086 740 1079 b 665 1069 699 1071 681 1069 b 607 1078 643 1069 624 1072 b 563 1095 590 1083 575 1089 b 525 1113 550 1101 537 1107 b 486 1121 513 1118 500 1121 b 413 1069 444 1121 419 1104 l 278 1069 b 311 1153 284 1104 295 1131 b 364 1202 327 1174 344 1191 b 424 1225 383 1214 403 1221 b 478 1231 444 1229 462 1231 b 535 1222 500 1231 519 1228 b 577 1205 550 1217 565 1211 b 614 1188 590 1199 602 1193 b 656 1179 626 1182 640 1179 "},"Ò":{"ha":1106,"x_min":0,"x_max":0,"o":"m 282 503 b 303 362 282 449 289 402 b 362 260 318 322 337 288 b 448 199 386 233 415 213 b 553 178 481 185 516 178 b 658 199 590 178 625 185 b 744 260 691 213 719 233 b 802 362 768 288 788 322 b 824 503 816 402 824 449 b 802 644 824 556 816 603 b 744 745 788 684 768 718 b 658 807 719 772 691 793 b 553 828 625 821 590 828 b 448 807 516 828 481 821 b 362 745 415 793 386 772 b 303 644 337 718 318 684 b 282 503 289 603 282 556 m 1075 503 b 1037 289 1075 424 1062 353 b 930 125 1011 225 976 170 b 765 19 884 80 829 44 b 553 -18 700 -6 630 -18 b 340 19 475 -18 404 -6 b 176 125 276 44 222 80 b 69 289 130 170 94 225 b 31 503 43 353 31 424 b 69 717 31 581 43 653 b 176 881 94 781 130 835 b 340 986 222 926 276 961 b 553 1024 404 1011 475 1024 b 765 986 630 1024 700 1011 b 930 881 829 961 884 926 b 1037 717 976 835 1011 781 b 1075 503 1062 653 1075 581 m 510 1231 l 654 1074 l 451 1074 l 231 1231 "},"Ó":{"ha":1106,"x_min":0,"x_max":0,"o":"m 282 503 b 303 362 282 449 289 402 b 362 260 318 322 337 288 b 448 199 386 233 415 213 b 553 178 481 185 516 178 b 658 199 590 178 625 185 b 744 260 691 213 719 233 b 802 362 768 288 788 322 b 824 503 816 402 824 449 b 802 644 824 556 816 603 b 744 745 788 684 768 718 b 658 807 719 772 691 793 b 553 828 625 821 590 828 b 448 807 516 828 481 821 b 362 745 415 793 386 772 b 303 644 337 718 318 684 b 282 503 289 603 282 556 m 1075 503 b 1037 289 1075 424 1062 353 b 930 125 1011 225 976 170 b 765 19 884 80 829 44 b 553 -18 700 -6 630 -18 b 340 19 475 -18 404 -6 b 176 125 276 44 222 80 b 69 289 130 170 94 225 b 31 503 43 353 31 424 b 69 717 31 581 43 653 b 176 881 94 781 130 835 b 340 986 222 926 276 961 b 553 1024 404 1011 475 1024 b 765 986 630 1024 700 1011 b 930 881 829 961 884 926 b 1037 717 976 835 1011 781 b 1075 503 1062 653 1075 581 m 451 1074 l 594 1231 l 875 1231 l 654 1074 "},"Ô":{"ha":1106,"x_min":0,"x_max":0,"o":"m 282 503 b 303 362 282 449 289 402 b 362 260 318 322 337 288 b 448 199 386 233 415 213 b 553 178 481 185 516 178 b 658 199 590 178 625 185 b 744 260 691 213 719 233 b 802 362 768 288 788 322 b 824 503 816 402 824 449 b 802 644 824 556 816 603 b 744 745 788 684 768 718 b 658 807 719 772 691 793 b 553 828 625 821 590 828 b 448 807 516 828 481 821 b 362 745 415 793 386 772 b 303 644 337 718 318 684 b 282 503 289 603 282 556 m 1075 503 b 1037 289 1075 424 1062 353 b 930 125 1011 225 976 170 b 765 19 884 80 829 44 b 553 -18 700 -6 630 -18 b 340 19 475 -18 404 -6 b 176 125 276 44 222 80 b 69 289 130 170 94 225 b 31 503 43 353 31 424 b 69 717 31 581 43 653 b 176 881 94 781 130 835 b 340 986 222 926 276 961 b 553 1024 404 1011 475 1024 b 765 986 630 1024 700 1011 b 930 881 829 961 884 926 b 1037 717 976 835 1011 781 b 1075 503 1062 653 1075 581 m 631 1074 l 556 1142 l 474 1074 l 249 1074 l 443 1231 l 668 1231 l 858 1074 "},"Õ":{"ha":1106,"x_min":0,"x_max":0,"o":"m 282 503 b 303 362 282 449 289 402 b 362 260 318 322 337 288 b 448 199 386 233 415 213 b 553 178 481 185 516 178 b 658 199 590 178 625 185 b 744 260 691 213 719 233 b 802 362 768 288 788 322 b 824 503 816 402 824 449 b 802 644 824 556 816 603 b 744 745 788 684 768 718 b 658 807 719 772 691 793 b 553 828 625 821 590 828 b 448 807 516 828 481 821 b 362 745 415 793 386 772 b 303 644 337 718 318 684 b 282 503 289 603 282 556 m 1075 503 b 1037 289 1075 424 1062 353 b 930 125 1011 225 976 170 b 765 19 884 80 829 44 b 553 -18 700 -6 630 -18 b 340 19 475 -18 404 -6 b 176 125 276 44 222 80 b 69 289 130 170 94 225 b 31 503 43 353 31 424 b 69 717 31 581 43 653 b 176 881 94 781 130 835 b 340 986 222 926 276 961 b 553 1024 404 1011 475 1024 b 765 986 630 1024 700 1011 b 930 881 829 961 884 926 b 1037 717 976 835 1011 781 b 1075 503 1062 653 1075 581 m 638 1179 b 713 1231 681 1179 706 1196 l 847 1231 b 814 1146 841 1195 830 1167 b 761 1097 798 1125 781 1108 b 701 1075 742 1086 722 1079 b 647 1069 681 1071 663 1069 b 589 1078 625 1069 606 1072 b 544 1095 572 1083 557 1089 b 507 1113 531 1101 519 1107 b 468 1121 495 1118 482 1121 b 394 1069 425 1121 401 1104 l 260 1069 b 293 1153 266 1104 277 1131 b 346 1202 309 1174 326 1191 b 406 1225 365 1214 385 1221 b 460 1231 426 1229 444 1231 b 517 1222 482 1231 501 1228 b 559 1205 532 1217 547 1211 b 596 1188 572 1199 584 1193 b 638 1179 608 1182 622 1179 "},"Ö":{"ha":1106,"x_min":0,"x_max":0,"o":"m 282 503 b 303 362 282 449 289 402 b 362 260 318 322 337 288 b 448 199 386 233 415 213 b 553 178 481 185 516 178 b 658 199 590 178 625 185 b 744 260 691 213 719 233 b 802 362 768 288 788 322 b 824 503 816 402 824 449 b 802 644 824 556 816 603 b 744 745 788 684 768 718 b 658 807 719 772 691 793 b 553 828 625 821 590 828 b 448 807 516 828 481 821 b 362 745 415 793 386 772 b 303 644 337 718 318 684 b 282 503 289 603 282 556 m 1075 503 b 1037 289 1075 424 1062 353 b 930 125 1011 225 976 170 b 765 19 884 80 829 44 b 553 -18 700 -6 630 -18 b 340 19 475 -18 404 -6 b 176 125 276 44 222 80 b 69 289 130 170 94 225 b 31 503 43 353 31 424 b 69 717 31 581 43 653 b 176 881 94 781 130 835 b 340 986 222 926 276 961 b 553 1024 404 1011 475 1024 b 765 986 630 1024 700 1011 b 930 881 829 961 884 926 b 1037 717 976 835 1011 781 b 1075 503 1062 653 1075 581 m 496 1074 l 292 1074 l 292 1231 l 496 1231 m 815 1074 l 610 1074 l 610 1231 l 815 1231 "},"×":{"ha":942,"x_min":0,"x_max":0,"o":"m 472 222 l 256 18 l 97 168 l 313 375 l 104 571 l 265 722 l 472 525 l 686 731 l 846 578 l 631 375 l 836 181 l 676 28 "},"Ø":{"ha":1104,"x_min":0,"x_max":0,"o":"m 1075 503 b 1037 289 1075 424 1062 353 b 930 125 1011 225 976 170 b 765 19 884 80 829 44 b 553 -18 700 -6 630 -18 b 240 71 431 -18 326 12 l 157 -28 l 82 38 l 165 135 b 65 296 122 180 88 234 b 31 503 42 358 31 427 b 69 717 31 581 43 653 b 176 881 94 781 130 835 b 340 986 222 926 276 961 b 553 1024 404 1011 475 1024 b 715 1003 611 1024 665 1017 b 853 942 765 989 811 969 l 919 1021 l 997 957 l 931 879 b 1038 716 977 834 1013 779 b 1075 503 1063 653 1075 581 m 824 503 b 811 612 824 543 819 579 b 776 699 803 645 791 674 l 383 239 b 553 178 431 198 488 178 b 658 199 590 178 625 185 b 744 260 691 213 719 233 b 802 362 768 288 788 322 b 824 503 816 402 824 449 m 282 503 b 321 318 282 431 295 370 l 710 775 b 553 828 664 810 612 828 b 448 807 516 828 481 821 b 362 745 415 793 386 772 b 303 644 337 718 318 684 b 282 503 289 603 282 556 "},"Ù":{"ha":1021,"x_min":0,"x_max":0,"o":"m 313 406 b 321 308 313 369 315 336 b 351 236 326 279 336 256 b 411 192 365 217 385 202 b 513 176 437 181 471 176 b 613 194 554 176 588 182 b 673 242 639 205 659 222 b 701 319 687 263 697 289 b 708 419 706 349 708 382 l 708 1007 l 946 1007 l 946 439 b 922 237 946 361 938 294 b 847 94 906 180 881 132 b 713 10 812 56 767 28 b 513 -18 658 -9 591 -18 b 317 6 438 -18 372 -10 b 181 82 262 21 217 47 b 101 220 144 117 118 163 b 75 431 84 277 75 347 l 75 1007 l 313 1007 m 467 1231 l 611 1074 l 408 1074 l 188 1231 "},"Ú":{"ha":1021,"x_min":0,"x_max":0,"o":"m 313 406 b 321 308 313 369 315 336 b 351 236 326 279 336 256 b 411 192 365 217 385 202 b 513 176 437 181 471 176 b 613 194 554 176 588 182 b 673 242 639 205 659 222 b 701 319 687 263 697 289 b 708 419 706 349 708 382 l 708 1007 l 946 1007 l 946 439 b 922 237 946 361 938 294 b 847 94 906 180 881 132 b 713 10 812 56 767 28 b 513 -18 658 -9 591 -18 b 317 6 438 -18 372 -10 b 181 82 262 21 217 47 b 101 220 144 117 118 163 b 75 431 84 277 75 347 l 75 1007 l 313 1007 m 408 1074 l 551 1231 l 832 1231 l 611 1074 "},"Û":{"ha":1021,"x_min":0,"x_max":0,"o":"m 313 406 b 321 308 313 369 315 336 b 351 236 326 279 336 256 b 411 192 365 217 385 202 b 513 176 437 181 471 176 b 613 194 554 176 588 182 b 673 242 639 205 659 222 b 701 319 687 263 697 289 b 708 419 706 349 708 382 l 708 1007 l 946 1007 l 946 439 b 922 237 946 361 938 294 b 847 94 906 180 881 132 b 713 10 812 56 767 28 b 513 -18 658 -9 591 -18 b 317 6 438 -18 372 -10 b 181 82 262 21 217 47 b 101 220 144 117 118 163 b 75 431 84 277 75 347 l 75 1007 l 313 1007 m 588 1074 l 513 1142 l 431 1074 l 206 1074 l 400 1231 l 625 1231 l 815 1074 "},"Ü":{"ha":1021,"x_min":0,"x_max":0,"o":"m 313 406 b 321 308 313 369 315 336 b 351 236 326 279 336 256 b 411 192 365 217 385 202 b 513 176 437 181 471 176 b 613 194 554 176 588 182 b 673 242 639 205 659 222 b 701 319 687 263 697 289 b 708 419 706 349 708 382 l 708 1007 l 946 1007 l 946 439 b 922 237 946 361 938 294 b 847 94 906 180 881 132 b 713 10 812 56 767 28 b 513 -18 658 -9 591 -18 b 317 6 438 -18 372 -10 b 181 82 262 21 217 47 b 101 220 144 117 118 163 b 75 431 84 277 75 347 l 75 1007 l 313 1007 m 453 1074 l 249 1074 l 249 1231 l 453 1231 m 772 1074 l 567 1074 l 567 1231 l 772 1231 "},"Ý":{"ha":961,"x_min":0,"x_max":0,"o":"m 481 621 l 708 1007 l 983 1007 l 594 389 l 594 0 l 357 0 l 357 392 l -22 1007 l 256 1007 m 379 1074 l 522 1231 l 803 1231 l 582 1074 "},"Þ":{"ha":885,"x_min":0,"x_max":0,"o":"m 450 846 b 631 832 515 846 575 841 b 776 781 687 823 736 806 b 872 681 817 757 849 723 b 907 517 895 638 907 583 b 872 354 907 451 895 397 b 776 254 849 312 817 278 b 631 204 736 230 687 213 b 450 190 575 195 515 190 l 317 190 l 317 0 l 78 0 l 78 1007 l 317 1007 l 317 846 l 450 846 m 317 399 l 457 399 b 535 402 485 399 511 400 b 598 418 559 404 580 410 b 640 453 616 426 630 438 b 656 517 650 469 656 490 b 640 581 656 544 650 565 b 598 617 630 596 616 608 b 535 633 580 625 559 630 b 457 636 511 635 485 636 l 317 636 "},"ß":{"ha":943,"x_min":0,"x_max":0,"o":"m 79 657 b 108 833 79 732 89 791 b 185 937 127 876 152 911 b 322 1004 224 969 269 991 b 493 1024 375 1017 432 1024 b 635 1006 544 1024 591 1018 b 749 953 679 995 717 977 b 825 866 781 930 806 901 b 853 744 844 831 853 791 b 828 633 853 702 845 665 b 774 558 812 601 794 576 b 875 465 813 537 847 506 b 917 307 903 423 917 371 b 890 164 917 252 908 205 b 814 63 872 123 846 89 b 699 2 781 36 743 16 b 551 -18 654 -11 605 -18 b 453 -12 521 -18 488 -16 b 350 8 419 -9 384 -2 l 399 196 b 533 172 443 180 488 172 b 590 181 553 172 572 175 b 637 205 608 186 623 194 b 669 244 650 216 661 229 b 682 299 678 260 682 278 b 667 369 682 326 677 350 b 626 415 658 388 644 403 b 561 440 608 426 586 435 b 478 449 536 446 508 449 l 432 449 l 432 626 l 471 626 b 632 733 578 626 632 662 b 597 808 632 763 620 788 b 487 839 574 829 537 839 b 408 829 460 839 433 836 b 346 792 382 823 362 810 b 319 740 334 779 325 761 b 310 640 313 718 310 685 l 310 0 l 79 0 "},"à":{"ha":829,"x_min":0,"x_max":0,"o":"m 539 496 b 507 589 539 540 528 571 b 412 615 486 606 454 615 b 322 588 375 615 345 606 b 279 506 298 569 284 542 l 65 506 b 96 606 68 541 78 574 b 169 691 113 638 138 666 b 283 749 201 716 239 735 b 432 771 327 764 376 771 b 575 753 486 771 533 765 b 681 699 617 742 652 724 b 745 601 709 674 731 641 b 765 457 759 562 766 513 l 762 294 l 762 217 b 765 135 762 189 763 162 b 770 59 766 108 768 83 b 779 0 772 35 775 16 l 554 0 l 551 90 b 445 6 524 50 488 22 b 300 -18 402 -10 354 -18 b 200 -3 265 -18 231 -13 b 117 41 169 7 141 22 b 62 110 94 60 75 83 b 42 201 48 137 42 167 b 78 317 42 247 54 285 b 181 394 103 348 137 374 b 339 442 225 415 278 431 b 539 467 400 453 467 461 l 539 496 m 544 332 b 435 319 505 328 468 324 b 351 300 403 315 375 308 b 297 267 328 292 310 281 b 278 218 284 254 278 238 b 308 160 278 194 288 175 b 383 138 329 145 354 138 b 447 146 406 138 428 140 b 498 174 467 151 484 161 b 532 228 512 188 524 206 b 544 314 540 251 544 280 l 544 332 m 393 1007 l 525 846 l 353 846 l 133 1007 "},"á":{"ha":829,"x_min":0,"x_max":0,"o":"m 539 496 b 507 589 539 540 528 571 b 412 615 486 606 454 615 b 322 588 375 615 345 606 b 279 506 298 569 284 542 l 65 506 b 96 606 68 541 78 574 b 169 691 113 638 138 666 b 283 749 201 716 239 735 b 432 771 327 764 376 771 b 575 753 486 771 533 765 b 681 699 617 742 652 724 b 745 601 709 674 731 641 b 765 457 759 562 766 513 l 762 294 l 762 217 b 765 135 762 189 763 162 b 770 59 766 108 768 83 b 779 0 772 35 775 16 l 554 0 l 551 90 b 445 6 524 50 488 22 b 300 -18 402 -10 354 -18 b 200 -3 265 -18 231 -13 b 117 41 169 7 141 22 b 62 110 94 60 75 83 b 42 201 48 137 42 167 b 78 317 42 247 54 285 b 181 394 103 348 137 374 b 339 442 225 415 278 431 b 539 467 400 453 467 461 l 539 496 m 544 332 b 435 319 505 328 468 324 b 351 300 403 315 375 308 b 297 267 328 292 310 281 b 278 218 284 254 278 238 b 308 160 278 194 288 175 b 383 138 329 145 354 138 b 447 146 406 138 428 140 b 498 174 467 151 484 161 b 532 228 512 188 524 206 b 544 314 540 251 544 280 l 544 332 m 324 846 l 456 1007 l 715 1007 l 496 846 "},"â":{"ha":829,"x_min":0,"x_max":0,"o":"m 539 496 b 507 589 539 540 528 571 b 412 615 486 606 454 615 b 322 588 375 615 345 606 b 279 506 298 569 284 542 l 65 506 b 96 606 68 541 78 574 b 169 691 113 638 138 666 b 283 749 201 716 239 735 b 432 771 327 764 376 771 b 575 753 486 771 533 765 b 681 699 617 742 652 724 b 745 601 709 674 731 641 b 765 457 759 562 766 513 l 762 294 l 762 217 b 765 135 762 189 763 162 b 770 59 766 108 768 83 b 779 0 772 35 775 16 l 554 0 l 551 90 b 445 6 524 50 488 22 b 300 -18 402 -10 354 -18 b 200 -3 265 -18 231 -13 b 117 41 169 7 141 22 b 62 110 94 60 75 83 b 42 201 48 137 42 167 b 78 317 42 247 54 285 b 181 394 103 348 137 374 b 339 442 225 415 278 431 b 539 467 400 453 467 461 l 539 496 m 544 332 b 435 319 505 328 468 324 b 351 300 403 315 375 308 b 297 267 328 292 310 281 b 278 218 284 254 278 238 b 308 160 278 194 288 175 b 383 138 329 145 354 138 b 447 146 406 138 428 140 b 498 174 467 151 484 161 b 532 228 512 188 524 206 b 544 314 540 251 544 280 l 544 332 m 514 846 l 428 910 l 340 846 l 129 846 l 325 1007 l 533 1007 l 722 846 "},"ã":{"ha":829,"x_min":0,"x_max":0,"o":"m 539 496 b 507 589 539 540 528 571 b 412 615 486 606 454 615 b 322 588 375 615 345 606 b 279 506 298 569 284 542 l 65 506 b 96 606 68 541 78 574 b 169 691 113 638 138 666 b 283 749 201 716 239 735 b 432 771 327 764 376 771 b 575 753 486 771 533 765 b 681 699 617 742 652 724 b 745 601 709 674 731 641 b 765 457 759 562 766 513 l 762 294 l 762 217 b 765 135 762 189 763 162 b 770 59 766 108 768 83 b 779 0 772 35 775 16 l 554 0 l 551 90 b 445 6 524 50 488 22 b 300 -18 402 -10 354 -18 b 200 -3 265 -18 231 -13 b 117 41 169 7 141 22 b 62 110 94 60 75 83 b 42 201 48 137 42 167 b 78 317 42 247 54 285 b 181 394 103 348 137 374 b 339 442 225 415 278 431 b 539 467 400 453 467 461 l 539 496 m 544 332 b 435 319 505 328 468 324 b 351 300 403 315 375 308 b 297 267 328 292 310 281 b 278 218 284 254 278 238 b 308 160 278 194 288 175 b 383 138 329 145 354 138 b 447 146 406 138 428 140 b 498 174 467 151 484 161 b 532 228 512 188 524 206 b 544 314 540 251 544 280 l 544 332 m 507 961 b 581 1022 548 961 572 981 l 715 1022 b 651 890 705 964 684 920 b 528 846 619 861 578 846 b 465 856 504 846 483 849 b 417 876 448 862 432 869 b 377 897 403 884 390 891 b 337 907 365 904 351 907 b 267 846 298 907 274 887 l 132 846 b 193 976 141 901 162 945 b 321 1022 225 1007 267 1022 b 381 1013 344 1022 364 1019 b 426 992 397 1006 412 999 b 465 971 439 984 452 977 b 507 961 477 964 491 961 "},"ä":{"ha":829,"x_min":0,"x_max":0,"o":"m 539 496 b 507 589 539 540 528 571 b 412 615 486 606 454 615 b 322 588 375 615 345 606 b 279 506 298 569 284 542 l 65 506 b 96 606 68 541 78 574 b 169 691 113 638 138 666 b 283 749 201 716 239 735 b 432 771 327 764 376 771 b 575 753 486 771 533 765 b 681 699 617 742 652 724 b 745 601 709 674 731 641 b 765 457 759 562 766 513 l 762 294 l 762 217 b 765 135 762 189 763 162 b 770 59 766 108 768 83 b 779 0 772 35 775 16 l 554 0 l 551 90 b 445 6 524 50 488 22 b 300 -18 402 -10 354 -18 b 200 -3 265 -18 231 -13 b 117 41 169 7 141 22 b 62 110 94 60 75 83 b 42 201 48 137 42 167 b 78 317 42 247 54 285 b 181 394 103 348 137 374 b 339 442 225 415 278 431 b 539 467 400 453 467 461 l 539 496 m 544 332 b 435 319 505 328 468 324 b 351 300 403 315 375 308 b 297 267 328 292 310 281 b 278 218 284 254 278 238 b 308 160 278 194 288 175 b 383 138 329 145 354 138 b 447 146 406 138 428 140 b 498 174 467 151 484 161 b 532 228 512 188 524 206 b 544 314 540 251 544 280 l 544 332 m 358 1007 l 358 831 l 153 831 l 153 1007 m 668 831 l 464 831 l 464 1007 l 668 1007 "},"å":{"ha":829,"x_min":0,"x_max":0,"o":"m 539 496 b 507 589 539 540 528 571 b 412 615 486 606 454 615 b 322 588 375 615 345 606 b 279 506 298 569 284 542 l 65 506 b 96 606 68 541 78 574 b 169 691 113 638 138 666 b 283 749 201 716 239 735 b 432 771 327 764 376 771 b 575 753 486 771 533 765 b 681 699 617 742 652 724 b 745 601 709 674 731 641 b 765 457 759 562 766 513 l 762 294 l 762 217 b 765 135 762 189 763 162 b 770 59 766 108 768 83 b 779 0 772 35 775 16 l 554 0 l 551 90 b 445 6 524 50 488 22 b 300 -18 402 -10 354 -18 b 200 -3 265 -18 231 -13 b 117 41 169 7 141 22 b 62 110 94 60 75 83 b 42 201 48 137 42 167 b 78 317 42 247 54 285 b 181 394 103 348 137 374 b 339 442 225 415 278 431 b 539 467 400 453 467 461 l 539 496 m 544 332 b 435 319 505 328 468 324 b 351 300 403 315 375 308 b 297 267 328 292 310 281 b 278 218 284 254 278 238 b 308 160 278 194 288 175 b 383 138 329 145 354 138 b 447 146 406 138 428 140 b 498 174 467 151 484 161 b 532 228 512 188 524 206 b 544 314 540 251 544 280 l 544 332 m 422 1090 b 472 1081 440 1090 456 1087 b 514 1056 488 1075 502 1067 b 542 1016 526 1044 535 1031 b 553 967 549 1001 553 984 b 515 878 553 931 540 902 b 422 843 489 855 458 843 b 370 852 404 843 386 846 b 328 878 354 858 340 867 b 301 917 317 889 308 902 b 290 967 294 933 290 949 b 329 1056 290 1003 303 1032 b 422 1090 355 1079 386 1090 m 422 1024 b 382 1008 406 1024 393 1018 b 365 967 371 997 365 983 b 382 927 365 951 371 938 b 422 911 393 916 406 911 b 462 927 438 911 451 916 b 479 967 474 938 479 951 b 462 1008 479 983 474 997 b 422 1024 451 1018 438 1024 "},"æ":{"ha":1342,"x_min":0,"x_max":0,"o":"m 1300 235 b 1235 121 1283 190 1262 152 b 1147 42 1209 89 1179 63 b 1042 -3 1114 22 1079 6 b 931 -18 1005 -13 968 -18 b 751 17 861 -18 801 -6 b 628 119 701 41 660 75 b 516 19 604 77 566 43 b 324 -18 466 -6 401 -18 b 213 -3 284 -18 247 -13 b 123 38 178 6 148 20 b 63 105 97 56 78 78 b 42 196 49 131 42 162 b 82 311 42 242 55 281 b 191 388 109 342 145 367 b 350 438 237 409 290 426 b 539 472 410 451 473 462 l 539 496 b 507 589 539 540 528 571 b 413 615 486 606 454 615 b 322 588 375 615 345 606 b 279 506 298 569 284 542 l 65 506 b 96 606 68 541 78 574 b 169 689 113 637 138 665 b 283 747 201 713 239 732 b 432 768 327 761 376 768 b 578 745 490 768 539 760 b 674 678 618 730 650 707 b 783 742 705 705 742 726 b 917 767 825 759 869 767 b 1085 733 980 767 1036 756 b 1210 640 1135 711 1176 680 b 1284 498 1243 600 1268 553 b 1303 315 1300 443 1306 382 l 754 315 b 772 246 756 288 762 265 b 810 198 782 226 795 210 b 863 169 826 185 843 176 b 924 160 882 163 902 160 b 1029 181 967 160 1002 167 b 1089 235 1056 194 1076 213 l 1300 235 m 453 322 b 324 285 398 312 355 300 b 278 215 293 270 278 247 b 308 158 278 191 288 172 b 383 138 329 144 354 138 b 447 146 406 138 428 140 b 498 174 467 151 484 161 b 532 228 512 188 524 206 b 544 314 540 251 544 280 l 544 342 l 453 322 m 917 593 b 811 560 876 593 841 582 b 757 454 781 539 763 503 l 1075 454 b 1027 558 1073 500 1057 534 b 917 593 997 581 960 593 "},"ç":{"ha":828,"x_min":0,"x_max":0,"o":"m 419 769 b 537 755 458 769 497 765 b 647 706 576 745 613 729 b 735 615 680 682 710 652 b 790 474 761 577 779 530 l 576 474 b 523 565 566 517 548 548 b 433 592 497 583 468 592 b 374 581 413 592 393 588 b 322 544 354 573 337 561 b 285 477 306 527 294 504 b 271 376 275 450 271 416 b 285 274 271 336 275 301 b 322 207 294 246 306 224 b 374 171 337 190 354 178 b 433 160 393 163 413 160 b 535 191 476 160 510 170 b 586 275 561 212 578 240 l 800 275 b 740 135 787 219 767 173 b 647 45 712 98 681 68 b 535 -3 612 22 575 6 b 419 -18 495 -13 456 -18 b 256 10 358 -18 304 -9 b 136 91 209 29 169 56 b 63 216 104 126 79 167 b 38 378 46 265 38 319 b 65 539 38 437 47 491 b 144 663 84 587 110 628 b 265 742 178 697 218 723 b 419 769 311 760 363 769 m 281 -185 b 319 -198 289 -189 302 -194 b 372 -204 336 -202 354 -204 b 419 -196 391 -204 406 -201 b 439 -164 432 -190 439 -180 b 424 -135 439 -151 434 -141 b 383 -125 413 -128 400 -125 b 357 -128 376 -125 367 -126 b 331 -138 347 -130 338 -133 l 289 -114 l 360 1 l 446 1 l 400 -71 b 451 -65 412 -67 429 -65 b 495 -70 465 -65 480 -67 b 537 -86 510 -73 524 -79 b 568 -115 549 -94 560 -103 b 581 -160 576 -127 581 -142 b 565 -215 581 -182 575 -200 b 522 -252 554 -230 540 -242 b 460 -273 503 -262 483 -269 b 389 -279 437 -277 413 -279 b 257 -260 340 -279 296 -273 l 281 -185 "},"è":{"ha":861,"x_min":0,"x_max":0,"o":"m 819 235 b 754 121 803 190 781 152 b 665 42 727 89 697 63 b 559 -3 632 22 597 6 b 447 -18 522 -13 484 -18 b 281 9 386 -18 331 -9 b 151 87 231 27 188 53 b 67 211 115 121 87 162 b 38 378 47 260 38 316 b 69 540 38 437 48 491 b 156 663 91 588 119 629 b 283 742 192 697 234 723 b 438 769 331 760 383 769 b 604 736 500 769 555 758 b 728 642 653 714 695 683 b 803 499 762 602 787 554 b 822 315 820 443 826 382 l 268 315 b 286 246 270 288 276 265 b 326 198 296 226 309 210 b 379 169 342 185 360 176 b 440 160 399 163 419 160 b 547 181 484 160 519 167 b 608 235 575 194 595 213 l 819 235 m 438 594 b 328 561 397 594 360 583 b 271 454 297 539 277 503 l 594 454 b 547 560 593 501 577 537 b 438 594 518 583 481 594 m 383 1007 l 515 846 l 343 846 l 124 1007 "},"é":{"ha":861,"x_min":0,"x_max":0,"o":"m 819 235 b 754 121 803 190 781 152 b 665 42 727 89 697 63 b 559 -3 632 22 597 6 b 447 -18 522 -13 484 -18 b 281 9 386 -18 331 -9 b 151 87 231 27 188 53 b 67 211 115 121 87 162 b 38 378 47 260 38 316 b 69 540 38 437 48 491 b 156 663 91 588 119 629 b 283 742 192 697 234 723 b 438 769 331 760 383 769 b 604 736 500 769 555 758 b 728 642 653 714 695 683 b 803 499 762 602 787 554 b 822 315 820 443 826 382 l 268 315 b 286 246 270 288 276 265 b 326 198 296 226 309 210 b 379 169 342 185 360 176 b 440 160 399 163 419 160 b 547 181 484 160 519 167 b 608 235 575 194 595 213 l 819 235 m 438 594 b 328 561 397 594 360 583 b 271 454 297 539 277 503 l 594 454 b 547 560 593 501 577 537 b 438 594 518 583 481 594 m 343 846 l 475 1007 l 735 1007 l 515 846 "},"ê":{"ha":861,"x_min":0,"x_max":0,"o":"m 819 235 b 754 121 803 190 781 152 b 665 42 727 89 697 63 b 559 -3 632 22 597 6 b 447 -18 522 -13 484 -18 b 281 9 386 -18 331 -9 b 151 87 231 27 188 53 b 67 211 115 121 87 162 b 38 378 47 260 38 316 b 69 540 38 437 48 491 b 156 663 91 588 119 629 b 283 742 192 697 234 723 b 438 769 331 760 383 769 b 604 736 500 769 555 758 b 728 642 653 714 695 683 b 803 499 762 602 787 554 b 822 315 820 443 826 382 l 268 315 b 286 246 270 288 276 265 b 326 198 296 226 309 210 b 379 169 342 185 360 176 b 440 160 399 163 419 160 b 547 181 484 160 519 167 b 608 235 575 194 595 213 l 819 235 m 438 594 b 328 561 397 594 360 583 b 271 454 297 539 277 503 l 594 454 b 547 560 593 501 577 537 b 438 594 518 583 481 594 m 524 846 l 438 910 l 350 846 l 139 846 l 335 1007 l 543 1007 l 732 846 "},"ë":{"ha":861,"x_min":0,"x_max":0,"o":"m 819 235 b 754 121 803 190 781 152 b 665 42 727 89 697 63 b 559 -3 632 22 597 6 b 447 -18 522 -13 484 -18 b 281 9 386 -18 331 -9 b 151 87 231 27 188 53 b 67 211 115 121 87 162 b 38 378 47 260 38 316 b 69 540 38 437 48 491 b 156 663 91 588 119 629 b 283 742 192 697 234 723 b 438 769 331 760 383 769 b 604 736 500 769 555 758 b 728 642 653 714 695 683 b 803 499 762 602 787 554 b 822 315 820 443 826 382 l 268 315 b 286 246 270 288 276 265 b 326 198 296 226 309 210 b 379 169 342 185 360 176 b 440 160 399 163 419 160 b 547 181 484 160 519 167 b 608 235 575 194 595 213 l 819 235 m 438 594 b 328 561 397 594 360 583 b 271 454 297 539 277 503 l 594 454 b 547 560 593 501 577 537 b 438 594 518 583 481 594 m 378 1007 l 378 831 l 172 831 l 172 1007 m 688 831 l 483 831 l 483 1007 l 688 1007 "},"ì":{"ha":394,"x_min":0,"x_max":0,"o":"m 313 0 l 82 0 l 82 747 l 313 747 m 153 1007 l 285 846 l 113 846 l -107 1007 "},"í":{"ha":394,"x_min":0,"x_max":0,"o":"m 313 0 l 82 0 l 82 747 l 313 747 m 111 846 l 243 1007 l 503 1007 l 283 846 "},"î":{"ha":394,"x_min":0,"x_max":0,"o":"m 313 0 l 82 0 l 82 747 l 313 747 m 288 846 l 201 910 l 114 846 l -97 846 l 99 1007 l 307 1007 l 496 846 "},"ï":{"ha":394,"x_min":0,"x_max":0,"o":"m 313 0 l 82 0 l 82 747 l 313 747 m 147 1007 l 147 831 l -58 831 l -58 1007 m 457 831 l 253 831 l 253 1007 l 457 1007 "},"ð":{"ha":865,"x_min":0,"x_max":0,"o":"m 690 1018 l 576 950 b 677 849 613 920 646 887 b 757 727 708 812 735 771 b 809 587 779 683 797 636 b 828 432 822 537 828 486 b 798 238 828 359 818 294 b 714 97 778 182 750 135 b 585 11 678 59 635 31 b 421 -18 535 -8 480 -18 b 261 10 362 -18 308 -9 b 140 87 214 28 174 54 b 64 208 107 121 81 161 b 38 367 46 256 38 308 b 63 530 38 427 46 481 b 133 655 80 578 104 620 b 237 735 163 690 198 716 b 365 764 277 754 320 764 b 501 730 415 764 461 753 b 594 646 542 707 573 679 l 596 647 b 533 760 585 686 564 724 b 425 858 502 796 466 829 l 332 803 l 253 840 l 358 904 b 296 940 337 917 316 929 b 238 968 275 950 256 960 l 411 1050 b 463 1026 429 1043 446 1034 b 511 997 479 1017 495 1007 l 610 1057 m 438 586 b 320 532 391 586 352 568 b 272 374 288 496 272 443 b 320 215 272 304 288 251 b 438 160 352 178 391 160 b 501 172 460 160 481 164 b 553 209 521 179 538 192 b 588 275 568 226 579 248 b 601 374 597 302 601 335 b 588 472 601 412 597 445 b 553 537 579 499 568 521 b 501 574 538 554 521 566 b 438 586 481 582 460 586 "},"ñ":{"ha":863,"x_min":0,"x_max":0,"o":"m 311 649 b 345 690 319 663 331 676 b 396 727 359 704 376 716 b 462 753 415 738 437 747 b 543 764 486 760 513 764 b 663 743 591 764 631 757 b 740 682 695 729 721 709 b 782 583 760 655 774 622 b 794 449 790 544 794 500 l 794 0 l 565 0 l 565 392 b 563 467 565 419 565 444 b 549 529 562 491 557 512 b 515 571 541 547 530 561 b 450 586 499 581 478 586 b 344 537 401 586 366 570 b 311 383 322 504 311 453 l 311 0 l 82 0 l 82 747 l 311 747 l 311 649 m 535 961 b 608 1022 575 961 600 981 l 743 1022 b 679 890 733 964 712 920 b 556 846 647 861 606 846 b 493 856 531 846 511 849 b 445 876 475 862 459 869 b 405 897 431 884 417 891 b 365 907 392 904 379 907 b 294 846 325 907 302 887 l 160 846 b 221 976 169 901 189 945 b 349 1022 252 1007 295 1022 b 408 1013 372 1022 392 1019 b 453 992 425 1006 440 999 b 492 971 467 984 480 977 b 535 961 505 964 519 961 "},"ò":{"ha":867,"x_min":0,"x_max":0,"o":"m 433 592 b 370 581 411 592 390 588 b 318 544 350 573 333 561 b 283 477 303 527 292 504 b 271 376 275 450 271 416 b 283 276 271 338 275 304 b 317 209 292 249 303 226 b 369 172 332 192 349 179 b 433 160 389 164 410 160 b 498 172 456 160 478 164 b 549 209 518 179 535 192 b 583 276 564 226 575 249 b 596 376 592 304 596 338 b 583 477 596 416 592 450 b 549 544 575 504 563 527 b 497 581 534 561 516 573 b 433 592 477 588 456 592 m 433 769 b 583 746 485 769 535 762 b 709 674 630 730 672 706 b 797 552 746 642 775 602 b 829 376 818 503 829 444 b 797 201 829 309 818 250 b 709 78 775 151 746 110 b 583 6 672 45 630 21 b 433 -18 535 -10 485 -18 b 284 6 381 -18 332 -10 b 158 78 236 21 194 45 b 70 201 121 110 92 151 b 38 376 48 250 38 309 b 70 552 38 444 48 503 b 158 674 92 602 121 642 b 284 746 194 706 236 730 b 433 769 332 762 381 769 m 388 1007 l 519 846 l 347 846 l 128 1007 "},"ó":{"ha":867,"x_min":0,"x_max":0,"o":"m 433 592 b 370 581 411 592 390 588 b 318 544 350 573 333 561 b 283 477 303 527 292 504 b 271 376 275 450 271 416 b 283 276 271 338 275 304 b 317 209 292 249 303 226 b 369 172 332 192 349 179 b 433 160 389 164 410 160 b 498 172 456 160 478 164 b 549 209 518 179 535 192 b 583 276 564 226 575 249 b 596 376 592 304 596 338 b 583 477 596 416 592 450 b 549 544 575 504 563 527 b 497 581 534 561 516 573 b 433 592 477 588 456 592 m 433 769 b 583 746 485 769 535 762 b 709 674 630 730 672 706 b 797 552 746 642 775 602 b 829 376 818 503 829 444 b 797 201 829 309 818 250 b 709 78 775 151 746 110 b 583 6 672 45 630 21 b 433 -18 535 -10 485 -18 b 284 6 381 -18 332 -10 b 158 78 236 21 194 45 b 70 201 121 110 92 151 b 38 376 48 250 38 309 b 70 552 38 444 48 503 b 158 674 92 602 121 642 b 284 746 194 706 236 730 b 433 769 332 762 381 769 m 347 846 l 479 1007 l 739 1007 l 519 846 "},"ô":{"ha":867,"x_min":0,"x_max":0,"o":"m 433 592 b 370 581 411 592 390 588 b 318 544 350 573 333 561 b 283 477 303 527 292 504 b 271 376 275 450 271 416 b 283 276 271 338 275 304 b 317 209 292 249 303 226 b 369 172 332 192 349 179 b 433 160 389 164 410 160 b 498 172 456 160 478 164 b 549 209 518 179 535 192 b 583 276 564 226 575 249 b 596 376 592 304 596 338 b 583 477 596 416 592 450 b 549 544 575 504 563 527 b 497 581 534 561 516 573 b 433 592 477 588 456 592 m 433 769 b 583 746 485 769 535 762 b 709 674 630 730 672 706 b 797 552 746 642 775 602 b 829 376 818 503 829 444 b 797 201 829 309 818 250 b 709 78 775 151 746 110 b 583 6 672 45 630 21 b 433 -18 535 -10 485 -18 b 284 6 381 -18 332 -10 b 158 78 236 21 194 45 b 70 201 121 110 92 151 b 38 376 48 250 38 309 b 70 552 38 444 48 503 b 158 674 92 602 121 642 b 284 746 194 706 236 730 b 433 769 332 762 381 769 m 522 846 l 436 910 l 349 846 l 138 846 l 333 1007 l 542 1007 l 731 846 "},"õ":{"ha":867,"x_min":0,"x_max":0,"o":"m 433 592 b 370 581 411 592 390 588 b 318 544 350 573 333 561 b 283 477 303 527 292 504 b 271 376 275 450 271 416 b 283 276 271 338 275 304 b 317 209 292 249 303 226 b 369 172 332 192 349 179 b 433 160 389 164 410 160 b 498 172 456 160 478 164 b 549 209 518 179 535 192 b 583 276 564 226 575 249 b 596 376 592 304 596 338 b 583 477 596 416 592 450 b 549 544 575 504 563 527 b 497 581 534 561 516 573 b 433 592 477 588 456 592 m 433 769 b 583 746 485 769 535 762 b 709 674 630 730 672 706 b 797 552 746 642 775 602 b 829 376 818 503 829 444 b 797 201 829 309 818 250 b 709 78 775 151 746 110 b 583 6 672 45 630 21 b 433 -18 535 -10 485 -18 b 284 6 381 -18 332 -10 b 158 78 236 21 194 45 b 70 201 121 110 92 151 b 38 376 48 250 38 309 b 70 552 38 444 48 503 b 158 674 92 602 121 642 b 284 746 194 706 236 730 b 433 769 332 762 381 769 m 517 961 b 590 1022 557 961 582 981 l 725 1022 b 661 890 715 964 694 920 b 538 846 629 861 588 846 b 475 856 513 846 493 849 b 427 876 457 862 441 869 b 387 897 413 884 399 891 b 347 907 374 904 361 907 b 276 846 307 907 284 887 l 142 846 b 203 976 151 901 171 945 b 331 1022 234 1007 277 1022 b 390 1013 354 1022 374 1019 b 435 992 407 1006 422 999 b 474 971 449 984 462 977 b 517 961 487 964 501 961 "},"ö":{"ha":867,"x_min":0,"x_max":0,"o":"m 433 592 b 370 581 411 592 390 588 b 318 544 350 573 333 561 b 283 477 303 527 292 504 b 271 376 275 450 271 416 b 283 276 271 338 275 304 b 317 209 292 249 303 226 b 369 172 332 192 349 179 b 433 160 389 164 410 160 b 498 172 456 160 478 164 b 549 209 518 179 535 192 b 583 276 564 226 575 249 b 596 376 592 304 596 338 b 583 477 596 416 592 450 b 549 544 575 504 563 527 b 497 581 534 561 516 573 b 433 592 477 588 456 592 m 433 769 b 583 746 485 769 535 762 b 709 674 630 730 672 706 b 797 552 746 642 775 602 b 829 376 818 503 829 444 b 797 201 829 309 818 250 b 709 78 775 151 746 110 b 583 6 672 45 630 21 b 433 -18 535 -10 485 -18 b 284 6 381 -18 332 -10 b 158 78 236 21 194 45 b 70 201 121 110 92 151 b 38 376 48 250 38 309 b 70 552 38 444 48 503 b 158 674 92 602 121 642 b 284 746 194 706 236 730 b 433 769 332 762 381 769 m 382 1007 l 382 831 l 176 831 l 176 1007 m 692 831 l 488 831 l 488 1007 l 692 1007 "},"÷":{"ha":942,"x_min":0,"x_max":0,"o":"m 600 247 l 600 0 l 342 0 l 342 247 m 600 747 l 600 500 l 342 500 l 342 747 m 69 469 l 872 469 l 872 276 l 69 276 "},"ø":{"ha":867,"x_min":0,"x_max":0,"o":"m 433 769 b 556 753 476 769 517 764 b 667 706 596 743 632 727 l 729 778 l 799 717 l 738 646 b 804 531 765 613 788 575 b 829 376 821 486 829 435 b 797 201 829 309 818 250 b 709 78 775 151 746 110 b 583 6 672 45 630 21 b 433 -18 535 -10 485 -18 b 316 -4 393 -18 353 -13 b 211 39 278 5 244 19 l 133 -50 l 65 13 l 138 96 b 65 214 107 128 83 168 b 38 376 47 260 38 314 b 70 552 38 444 48 503 b 158 674 92 602 121 642 b 284 746 194 706 236 730 b 433 769 332 762 381 769 m 433 592 b 370 581 411 592 390 588 b 318 544 350 573 333 561 b 283 477 303 527 292 504 b 271 376 275 450 271 416 b 286 267 271 334 276 297 l 536 556 b 489 583 522 569 506 578 b 433 592 471 589 453 592 m 596 376 b 585 469 596 411 592 442 l 339 188 b 433 160 364 169 395 160 b 498 172 456 160 478 164 b 549 209 518 179 535 192 b 583 276 564 226 575 249 b 596 376 592 304 596 338 "},"ù":{"ha":857,"x_min":0,"x_max":0,"o":"m 544 104 b 460 15 521 67 493 38 b 325 -18 428 -7 382 -18 b 201 3 275 -18 234 -11 b 122 64 168 17 141 37 b 79 163 102 91 88 124 b 67 297 71 201 67 246 l 67 747 l 296 747 l 296 354 b 298 278 296 327 297 302 b 311 217 299 255 304 234 b 345 175 319 199 330 185 b 410 160 360 165 382 160 b 514 204 459 160 494 175 b 544 353 534 234 544 283 l 544 747 l 774 747 l 774 0 l 544 0 l 544 104 m 388 1007 l 519 846 l 347 846 l 128 1007 "},"ú":{"ha":857,"x_min":0,"x_max":0,"o":"m 544 104 b 460 15 521 67 493 38 b 325 -18 428 -7 382 -18 b 201 3 275 -18 234 -11 b 122 64 168 17 141 37 b 79 163 102 91 88 124 b 67 297 71 201 67 246 l 67 747 l 296 747 l 296 354 b 298 278 296 327 297 302 b 311 217 299 255 304 234 b 345 175 319 199 330 185 b 410 160 360 165 382 160 b 514 204 459 160 494 175 b 544 353 534 234 544 283 l 544 747 l 774 747 l 774 0 l 544 0 l 544 104 m 319 846 l 451 1007 l 711 1007 l 492 846 "},"û":{"ha":857,"x_min":0,"x_max":0,"o":"m 544 104 b 460 15 521 67 493 38 b 325 -18 428 -7 382 -18 b 201 3 275 -18 234 -11 b 122 64 168 17 141 37 b 79 163 102 91 88 124 b 67 297 71 201 67 246 l 67 747 l 296 747 l 296 354 b 298 278 296 327 297 302 b 311 217 299 255 304 234 b 345 175 319 199 330 185 b 410 160 360 165 382 160 b 514 204 459 160 494 175 b 544 353 534 234 544 283 l 544 747 l 774 747 l 774 0 l 544 0 l 544 104 m 508 846 l 422 910 l 335 846 l 124 846 l 319 1007 l 528 1007 l 717 846 "},"ü":{"ha":857,"x_min":0,"x_max":0,"o":"m 544 104 b 460 15 521 67 493 38 b 325 -18 428 -7 382 -18 b 201 3 275 -18 234 -11 b 122 64 168 17 141 37 b 79 163 102 91 88 124 b 67 297 71 201 67 246 l 67 747 l 296 747 l 296 354 b 298 278 296 327 297 302 b 311 217 299 255 304 234 b 345 175 319 199 330 185 b 410 160 360 165 382 160 b 514 204 459 160 494 175 b 544 353 534 234 544 283 l 544 747 l 774 747 l 774 0 l 544 0 l 544 104 m 368 1007 l 368 831 l 163 831 l 163 1007 m 678 831 l 474 831 l 474 1007 l 678 1007 "},"ý":{"ha":782,"x_min":0,"x_max":0,"o":"m 90 -78 l 136 -78 b 194 -76 160 -78 180 -77 b 231 -67 209 -74 222 -72 b 255 -49 241 -63 249 -57 b 272 -15 261 -40 267 -29 l 279 4 l 0 747 l 251 747 l 389 279 l 536 747 l 782 747 l 489 0 b 434 -118 470 -47 452 -87 b 372 -193 416 -150 395 -175 b 286 -232 348 -212 319 -225 b 164 -243 253 -239 212 -243 l 90 -243 m 304 846 l 436 1007 l 696 1007 l 476 846 "},"þ":{"ha":903,"x_min":0,"x_max":0,"o":"m 311 646 b 355 701 322 667 337 685 b 413 738 373 716 392 728 b 477 758 434 747 455 753 b 540 764 499 762 520 764 b 673 738 588 764 633 755 b 777 660 713 720 748 694 b 845 538 806 627 829 586 b 869 374 861 489 869 435 b 845 209 869 313 861 258 b 777 86 829 160 806 119 b 673 9 748 53 713 27 b 540 -18 633 -9 588 -18 b 477 -12 520 -18 499 -16 b 413 8 455 -8 434 -1 b 355 45 392 18 373 30 b 311 100 337 60 322 79 l 311 -243 l 82 -243 l 82 1007 l 311 1007 l 311 646 m 465 586 b 402 574 443 586 422 582 b 349 537 382 566 365 554 b 313 472 334 521 322 499 b 300 374 304 445 300 412 b 313 275 300 335 304 302 b 349 209 322 248 334 226 b 402 172 365 192 382 179 b 465 160 422 164 443 160 b 530 174 488 160 510 164 b 583 215 550 183 567 197 b 619 281 598 233 610 255 b 632 374 628 308 632 338 b 619 465 632 408 628 438 b 583 532 610 492 598 514 b 530 572 567 550 550 563 b 465 586 510 581 488 586 "},"ÿ":{"ha":782,"x_min":0,"x_max":0,"o":"m 90 -78 l 136 -78 b 194 -76 160 -78 180 -77 b 231 -67 209 -74 222 -72 b 255 -49 241 -63 249 -57 b 272 -15 261 -40 267 -29 l 279 4 l 0 747 l 251 747 l 389 279 l 536 747 l 782 747 l 489 0 b 434 -118 470 -47 452 -87 b 372 -193 416 -150 395 -175 b 286 -232 348 -212 319 -225 b 164 -243 253 -239 212 -243 l 90 -243 m 339 1007 l 339 831 l 133 831 l 133 1007 m 649 831 l 444 831 l 444 1007 l 649 1007 "},"Ā":{"ha":1007,"x_min":0,"x_max":0,"o":"m 633 1007 l 1014 0 l 756 0 l 694 179 l 306 179 l 246 0 l -7 0 l 372 1007 m 631 372 l 501 756 l 371 372 m 271 1233 l 736 1233 l 736 1101 l 271 1101 "},"ā":{"ha":829,"x_min":0,"x_max":0,"o":"m 539 496 b 507 589 539 540 528 571 b 412 615 486 606 454 615 b 322 588 375 615 345 606 b 279 506 298 569 284 542 l 65 506 b 96 606 68 541 78 574 b 169 691 113 638 138 666 b 283 749 201 716 239 735 b 432 771 327 764 376 771 b 575 753 486 771 533 765 b 681 699 617 742 652 724 b 745 601 709 674 731 641 b 765 457 759 562 766 513 l 762 294 l 762 217 b 765 135 762 189 763 162 b 770 59 766 108 768 83 b 779 0 772 35 775 16 l 554 0 l 551 90 b 445 6 524 50 488 22 b 300 -18 402 -10 354 -18 b 200 -3 265 -18 231 -13 b 117 41 169 7 141 22 b 62 110 94 60 75 83 b 42 201 48 137 42 167 b 78 317 42 247 54 285 b 181 394 103 348 137 374 b 339 442 225 415 278 431 b 539 467 400 453 467 461 l 539 496 m 544 332 b 435 319 505 328 468 324 b 351 300 403 315 375 308 b 297 267 328 292 310 281 b 278 218 284 254 278 238 b 308 160 278 194 288 175 b 383 138 329 145 354 138 b 447 146 406 138 428 140 b 498 174 467 151 484 161 b 532 228 512 188 524 206 b 544 314 540 251 544 280 l 544 332 m 207 1008 l 642 1008 l 642 860 l 207 860 "},"Ă":{"ha":1007,"x_min":0,"x_max":0,"o":"m 633 1007 l 1014 0 l 756 0 l 694 179 l 306 179 l 246 0 l -7 0 l 372 1007 m 631 372 l 501 756 l 371 372 m 768 1231 b 696 1106 763 1173 738 1131 b 501 1067 653 1080 588 1067 b 310 1106 417 1067 353 1080 b 237 1231 266 1131 242 1173 l 401 1231 b 435 1179 405 1206 416 1188 b 501 1165 454 1170 476 1165 b 569 1179 527 1165 550 1170 b 604 1231 589 1188 600 1206 l 768 1231 "},"ă":{"ha":829,"x_min":0,"x_max":0,"o":"m 539 496 b 507 589 539 540 528 571 b 412 615 486 606 454 615 b 322 588 375 615 345 606 b 279 506 298 569 284 542 l 65 506 b 96 606 68 541 78 574 b 169 691 113 638 138 666 b 283 749 201 716 239 735 b 432 771 327 764 376 771 b 575 753 486 771 533 765 b 681 699 617 742 652 724 b 745 601 709 674 731 641 b 765 457 759 562 766 513 l 762 294 l 762 217 b 765 135 762 189 763 162 b 770 59 766 108 768 83 b 779 0 772 35 775 16 l 554 0 l 551 90 b 445 6 524 50 488 22 b 300 -18 402 -10 354 -18 b 200 -3 265 -18 231 -13 b 117 41 169 7 141 22 b 62 110 94 60 75 83 b 42 201 48 137 42 167 b 78 317 42 247 54 285 b 181 394 103 348 137 374 b 339 442 225 415 278 431 b 539 467 400 453 467 461 l 539 496 m 544 332 b 435 319 505 328 468 324 b 351 300 403 315 375 308 b 297 267 328 292 310 281 b 278 218 284 254 278 238 b 308 160 278 194 288 175 b 383 138 329 145 354 138 b 447 146 406 138 428 140 b 498 174 467 151 484 161 b 532 228 512 188 524 206 b 544 314 540 251 544 280 l 544 332 m 651 1007 b 632 945 649 986 642 965 b 588 892 622 925 607 907 b 517 853 569 876 545 863 b 414 839 488 844 454 839 b 313 853 375 839 341 844 b 242 892 285 863 261 876 b 199 945 223 907 209 925 b 181 1007 188 965 182 986 l 331 1007 b 356 968 333 992 342 979 b 415 951 369 957 389 951 b 476 968 441 951 461 957 b 501 1007 490 979 499 992 l 651 1007 "},"Ą":{"ha":1007,"x_min":0,"x_max":0,"o":"m 633 1007 l 1014 0 b 926 -51 979 -18 950 -35 b 892 -108 903 -68 892 -87 b 906 -149 892 -127 897 -140 b 946 -161 916 -157 929 -161 b 986 -156 961 -161 974 -159 b 1014 -149 998 -153 1007 -150 l 1014 -261 b 990 -266 1008 -263 1000 -265 b 956 -270 979 -267 968 -269 b 919 -274 944 -272 931 -273 b 888 -275 907 -275 897 -275 b 820 -266 865 -275 843 -272 b 759 -238 797 -260 777 -251 b 715 -191 741 -226 726 -210 b 697 -125 703 -172 697 -150 b 716 -53 697 -97 703 -73 b 756 0 728 -34 742 -16 l 694 179 l 306 179 l 246 0 l -7 0 l 372 1007 m 631 372 l 501 756 l 371 372 "},"ą":{"ha":829,"x_min":0,"x_max":0,"o":"m 539 496 b 507 589 539 540 528 571 b 412 615 486 606 454 615 b 322 588 375 615 345 606 b 279 506 298 569 284 542 l 65 506 b 96 606 68 541 78 574 b 169 691 113 638 138 666 b 283 749 201 716 239 735 b 432 771 327 764 376 771 b 575 753 486 771 533 765 b 681 699 617 742 652 724 b 745 601 709 674 731 641 b 765 457 759 562 766 513 l 762 294 l 762 217 b 765 135 762 189 763 162 b 770 59 766 108 768 83 b 779 0 772 35 775 16 b 691 -45 744 -18 715 -33 b 656 -94 667 -58 656 -74 b 672 -134 656 -114 661 -127 b 711 -144 682 -141 695 -144 b 746 -140 722 -144 734 -143 b 778 -132 758 -138 769 -135 l 778 -246 b 726 -257 761 -250 744 -254 b 671 -261 708 -260 689 -261 b 592 -253 644 -261 618 -259 b 522 -229 566 -248 543 -240 b 473 -188 502 -218 485 -204 b 454 -128 460 -171 454 -151 b 482 -56 454 -100 463 -76 b 554 0 500 -36 525 -18 l 551 90 b 445 6 524 50 488 22 b 300 -18 402 -10 354 -18 b 200 -3 265 -18 231 -13 b 117 41 169 7 141 22 b 62 110 94 60 75 83 b 42 201 48 137 42 167 b 78 317 42 247 54 285 b 181 394 103 348 137 374 b 339 442 225 415 278 431 b 539 467 400 453 467 461 l 539 496 m 544 332 b 435 319 505 328 468 324 b 351 300 403 315 375 308 b 297 267 328 292 310 281 b 278 218 284 254 278 238 b 308 160 278 194 288 175 b 383 138 329 145 354 138 b 447 146 406 138 428 140 b 498 174 467 151 484 161 b 532 228 512 188 524 206 b 544 314 540 251 544 280 l 544 332 "},"Ć":{"ha":1042,"x_min":0,"x_max":0,"o":"m 1014 375 b 959 215 1005 317 986 263 b 856 91 932 167 897 126 b 712 10 814 56 766 29 b 535 -18 658 -9 599 -18 b 324 18 456 -18 386 -6 b 165 122 262 42 209 77 b 65 287 122 168 88 222 b 31 504 42 351 31 424 b 66 719 31 584 42 656 b 168 883 90 783 124 838 b 329 988 213 929 266 963 b 542 1024 392 1012 463 1024 b 716 994 605 1024 663 1014 b 856 913 769 975 816 948 b 956 789 897 878 930 837 b 1007 631 981 741 999 688 l 774 631 b 741 719 767 665 756 694 b 686 781 726 744 707 765 b 615 816 665 796 641 808 b 533 828 588 824 561 828 b 435 806 498 828 465 821 b 355 743 404 792 378 771 b 301 641 332 715 314 681 b 282 504 288 601 282 555 b 301 364 282 451 288 405 b 355 261 314 323 332 289 b 435 199 378 233 404 213 b 536 178 466 185 500 178 b 614 187 562 178 588 181 b 686 219 640 193 664 203 b 744 280 708 234 728 254 b 781 375 761 305 773 337 l 1014 375 m 421 1074 l 564 1231 l 844 1231 l 624 1074 "},"ć":{"ha":828,"x_min":0,"x_max":0,"o":"m 419 769 b 537 755 458 769 497 765 b 647 706 576 745 613 729 b 735 615 680 682 710 652 b 790 474 761 577 779 530 l 576 474 b 523 565 566 517 548 548 b 433 592 497 583 468 592 b 374 581 413 592 393 588 b 322 544 354 573 337 561 b 285 477 306 527 294 504 b 271 376 275 450 271 416 b 285 274 271 336 275 301 b 322 207 294 246 306 224 b 374 171 337 190 354 178 b 433 160 393 163 413 160 b 535 191 476 160 510 170 b 586 275 561 212 578 240 l 800 275 b 740 135 787 219 767 173 b 647 45 712 98 681 68 b 535 -3 612 22 575 6 b 419 -18 495 -13 456 -18 b 256 10 358 -18 304 -9 b 136 91 209 29 169 56 b 63 216 104 126 79 167 b 38 378 46 265 38 319 b 65 539 38 437 47 491 b 144 663 84 587 110 628 b 265 742 178 697 218 723 b 419 769 311 760 363 769 m 332 846 l 464 1007 l 724 1007 l 504 846 "},"Ĉ":{"ha":1042,"x_min":0,"x_max":0,"o":"m 1014 375 b 959 215 1005 317 986 263 b 856 91 932 167 897 126 b 712 10 814 56 766 29 b 535 -18 658 -9 599 -18 b 324 18 456 -18 386 -6 b 165 122 262 42 209 77 b 65 287 122 168 88 222 b 31 504 42 351 31 424 b 66 719 31 584 42 656 b 168 883 90 783 124 838 b 329 988 213 929 266 963 b 542 1024 392 1012 463 1024 b 716 994 605 1024 663 1014 b 856 913 769 975 816 948 b 956 789 897 878 930 837 b 1007 631 981 741 999 688 l 774 631 b 741 719 767 665 756 694 b 686 781 726 744 707 765 b 615 816 665 796 641 808 b 533 828 588 824 561 828 b 435 806 498 828 465 821 b 355 743 404 792 378 771 b 301 641 332 715 314 681 b 282 504 288 601 282 555 b 301 364 282 451 288 405 b 355 261 314 323 332 289 b 435 199 378 233 404 213 b 536 178 466 185 500 178 b 614 187 562 178 588 181 b 686 219 640 193 664 203 b 744 280 708 234 728 254 b 781 375 761 305 773 337 l 1014 375 m 618 1074 l 543 1142 l 461 1074 l 236 1074 l 431 1231 l 656 1231 l 846 1074 "},"ĉ":{"ha":828,"x_min":0,"x_max":0,"o":"m 419 769 b 537 755 458 769 497 765 b 647 706 576 745 613 729 b 735 615 680 682 710 652 b 790 474 761 577 779 530 l 576 474 b 523 565 566 517 548 548 b 433 592 497 583 468 592 b 374 581 413 592 393 588 b 322 544 354 573 337 561 b 285 477 306 527 294 504 b 271 376 275 450 271 416 b 285 274 271 336 275 301 b 322 207 294 246 306 224 b 374 171 337 190 354 178 b 433 160 393 163 413 160 b 535 191 476 160 510 170 b 586 275 561 212 578 240 l 800 275 b 740 135 787 219 767 173 b 647 45 712 98 681 68 b 535 -3 612 22 575 6 b 419 -18 495 -13 456 -18 b 256 10 358 -18 304 -9 b 136 91 209 29 169 56 b 63 216 104 126 79 167 b 38 378 46 265 38 319 b 65 539 38 437 47 491 b 144 663 84 587 110 628 b 265 742 178 697 218 723 b 419 769 311 760 363 769 m 511 846 l 425 910 l 338 846 l 126 846 l 322 1007 l 531 1007 l 719 846 "},"Ċ":{"ha":1042,"x_min":0,"x_max":0,"o":"m 1014 375 b 959 215 1005 317 986 263 b 856 91 932 167 897 126 b 712 10 814 56 766 29 b 535 -18 658 -9 599 -18 b 324 18 456 -18 386 -6 b 165 122 262 42 209 77 b 65 287 122 168 88 222 b 31 504 42 351 31 424 b 66 719 31 584 42 656 b 168 883 90 783 124 838 b 329 988 213 929 266 963 b 542 1024 392 1012 463 1024 b 716 994 605 1024 663 1014 b 856 913 769 975 816 948 b 956 789 897 878 930 837 b 1007 631 981 741 999 688 l 774 631 b 741 719 767 665 756 694 b 686 781 726 744 707 765 b 615 816 665 796 641 808 b 533 828 588 824 561 828 b 435 806 498 828 465 821 b 355 743 404 792 378 771 b 301 641 332 715 314 681 b 282 504 288 601 282 555 b 301 364 282 451 288 405 b 355 261 314 323 332 289 b 435 199 378 233 404 213 b 536 178 466 185 500 178 b 614 187 562 178 588 181 b 686 219 640 193 664 203 b 744 280 708 234 728 254 b 781 375 761 305 773 337 l 1014 375 m 663 1074 l 425 1074 l 425 1231 l 663 1231 "},"ċ":{"ha":828,"x_min":0,"x_max":0,"o":"m 419 769 b 537 755 458 769 497 765 b 647 706 576 745 613 729 b 735 615 680 682 710 652 b 790 474 761 577 779 530 l 576 474 b 523 565 566 517 548 548 b 433 592 497 583 468 592 b 374 581 413 592 393 588 b 322 544 354 573 337 561 b 285 477 306 527 294 504 b 271 376 275 450 271 416 b 285 274 271 336 275 301 b 322 207 294 246 306 224 b 374 171 337 190 354 178 b 433 160 393 163 413 160 b 535 191 476 160 510 170 b 586 275 561 212 578 240 l 800 275 b 740 135 787 219 767 173 b 647 45 712 98 681 68 b 535 -3 612 22 575 6 b 419 -18 495 -13 456 -18 b 256 10 358 -18 304 -9 b 136 91 209 29 169 56 b 63 216 104 126 79 167 b 38 378 46 265 38 319 b 65 539 38 437 47 491 b 144 663 84 587 110 628 b 265 742 178 697 218 723 b 419 769 311 760 363 769 m 521 846 l 315 846 l 315 1007 l 521 1007 "},"Č":{"ha":1042,"x_min":0,"x_max":0,"o":"m 1014 375 b 959 215 1005 317 986 263 b 856 91 932 167 897 126 b 712 10 814 56 766 29 b 535 -18 658 -9 599 -18 b 324 18 456 -18 386 -6 b 165 122 262 42 209 77 b 65 287 122 168 88 222 b 31 504 42 351 31 424 b 66 719 31 584 42 656 b 168 883 90 783 124 838 b 329 988 213 929 266 963 b 542 1024 392 1012 463 1024 b 716 994 605 1024 663 1014 b 856 913 769 975 816 948 b 956 789 897 878 930 837 b 1007 631 981 741 999 688 l 774 631 b 741 719 767 665 756 694 b 686 781 726 744 707 765 b 615 816 665 796 641 808 b 533 828 588 824 561 828 b 435 806 498 828 465 821 b 355 743 404 792 378 771 b 301 641 332 715 314 681 b 282 504 288 601 282 555 b 301 364 282 451 288 405 b 355 261 314 323 332 289 b 435 199 378 233 404 213 b 536 178 466 185 500 178 b 614 187 562 178 588 181 b 686 219 640 193 664 203 b 744 280 708 234 728 254 b 781 375 761 305 773 337 l 1014 375 m 465 1231 l 540 1161 l 622 1231 l 847 1231 l 653 1074 l 428 1074 l 238 1231 "},"č":{"ha":828,"x_min":0,"x_max":0,"o":"m 419 769 b 537 755 458 769 497 765 b 647 706 576 745 613 729 b 735 615 680 682 710 652 b 790 474 761 577 779 530 l 576 474 b 523 565 566 517 548 548 b 433 592 497 583 468 592 b 374 581 413 592 393 588 b 322 544 354 573 337 561 b 285 477 306 527 294 504 b 271 376 275 450 271 416 b 285 274 271 336 275 301 b 322 207 294 246 306 224 b 374 171 337 190 354 178 b 433 160 393 163 413 160 b 535 191 476 160 510 170 b 586 275 561 212 578 240 l 800 275 b 740 135 787 219 767 173 b 647 45 712 98 681 68 b 535 -3 612 22 575 6 b 419 -18 495 -13 456 -18 b 256 10 358 -18 304 -9 b 136 91 209 29 169 56 b 63 216 104 126 79 167 b 38 378 46 265 38 319 b 65 539 38 437 47 491 b 144 663 84 587 110 628 b 265 742 178 697 218 723 b 419 769 311 760 363 769 m 332 1007 l 417 943 l 504 1007 l 715 1007 l 519 846 l 313 846 l 122 1007 "},"Ď":{"ha":1042,"x_min":0,"x_max":0,"o":"m 761 504 b 733 664 761 571 752 624 b 660 756 715 704 690 734 b 553 797 629 777 594 791 b 428 807 513 804 471 807 l 329 807 l 329 200 l 428 200 b 553 210 471 200 513 203 b 660 252 594 216 629 230 b 733 344 690 274 715 305 b 761 504 752 384 761 438 m 424 1007 b 655 982 506 1007 583 999 b 842 899 727 965 789 937 b 967 744 894 860 936 808 b 1013 504 997 679 1013 600 b 967 263 1013 408 997 328 b 842 108 936 199 894 147 b 655 25 789 69 727 42 b 424 0 583 8 506 0 l 92 0 l 92 1007 l 424 1007 m 447 1231 l 522 1161 l 604 1231 l 829 1231 l 635 1074 l 410 1074 l 219 1231 "},"ď":{"ha":1086,"x_min":0,"x_max":0,"o":"m 876 771 l 904 1007 l 1114 1007 l 1032 771 m 821 0 l 592 0 l 592 100 b 547 47 580 80 565 62 b 490 10 530 32 510 20 b 426 -11 469 1 447 -6 b 362 -18 404 -16 383 -18 b 230 9 314 -18 270 -9 b 126 86 190 27 155 53 b 58 209 97 119 74 160 b 33 374 41 258 33 313 b 58 538 33 435 41 489 b 126 660 74 586 97 627 b 230 738 155 694 190 720 b 362 764 270 755 314 764 b 426 757 383 764 404 762 b 490 735 447 752 469 745 b 547 699 510 726 530 713 b 592 646 565 684 580 666 l 592 1007 l 821 1007 m 438 586 b 373 572 414 586 393 581 b 320 532 353 563 335 550 b 284 465 305 514 293 492 b 271 374 275 438 271 408 b 284 281 271 338 275 308 b 320 215 293 255 305 233 b 373 174 335 197 353 183 b 438 160 393 164 414 160 b 501 172 460 160 481 164 b 554 209 522 179 539 192 b 590 275 569 226 581 248 b 603 374 598 302 603 335 b 590 472 603 413 598 445 b 554 538 581 499 569 521 b 501 574 539 554 522 566 b 438 586 481 582 460 586 "},"Đ":{"ha":1089,"x_min":0,"x_max":0,"o":"m 471 1007 b 702 982 553 1007 630 999 b 889 899 774 965 836 937 b 1014 744 942 860 983 808 b 1060 504 1044 679 1060 600 b 1014 263 1060 408 1044 328 b 889 108 983 199 942 147 b 702 25 836 69 774 42 b 471 0 630 8 553 0 l 139 0 l 139 406 l 15 406 l 15 614 l 139 614 l 139 1007 l 471 1007 m 808 504 b 781 664 808 571 799 624 b 707 756 762 704 738 734 b 601 797 676 777 641 791 b 475 807 560 804 519 807 l 376 807 l 376 614 l 522 614 l 522 406 l 376 406 l 376 200 l 475 200 b 601 210 519 200 560 203 b 707 252 641 216 676 230 b 781 344 738 274 762 305 b 808 504 799 384 808 437 "},"đ":{"ha":910,"x_min":0,"x_max":0,"o":"m 821 906 l 910 906 l 910 785 l 821 785 l 821 0 l 592 0 l 592 100 b 547 47 580 80 565 62 b 490 10 530 32 510 20 b 426 -11 469 1 447 -6 b 362 -18 404 -16 383 -18 b 230 9 314 -18 270 -9 b 126 86 190 27 155 53 b 58 209 97 119 74 160 b 33 374 41 258 33 313 b 58 538 33 435 41 489 b 126 660 74 586 97 627 b 230 738 155 694 190 720 b 362 764 270 755 314 764 b 426 757 383 764 404 762 b 490 735 447 752 469 745 b 547 699 510 726 530 713 b 592 646 565 684 580 666 l 592 785 l 428 785 l 428 906 l 592 906 l 592 1007 l 821 1007 m 438 586 b 373 572 414 586 393 581 b 320 532 353 563 335 550 b 284 465 305 514 293 492 b 271 374 275 438 271 408 b 284 281 271 338 275 308 b 320 215 293 255 305 233 b 373 174 335 197 353 183 b 438 160 393 164 414 160 b 501 172 460 160 481 164 b 554 209 522 179 539 192 b 590 275 569 226 581 248 b 603 374 598 302 603 335 b 590 472 603 413 598 445 b 554 538 581 499 569 521 b 501 574 539 554 522 566 b 438 586 481 582 460 586 "},"Ē":{"ha":921,"x_min":0,"x_max":0,"o":"m 864 1007 l 864 799 l 329 799 l 329 622 l 835 622 l 835 413 l 329 413 l 329 210 l 864 210 l 864 0 l 92 0 l 92 1007 m 250 1233 l 715 1233 l 715 1101 l 250 1101 "},"ē":{"ha":861,"x_min":0,"x_max":0,"o":"m 819 235 b 754 121 803 190 781 152 b 665 42 727 89 697 63 b 559 -3 632 22 597 6 b 447 -18 522 -13 484 -18 b 281 9 386 -18 331 -9 b 151 87 231 27 188 53 b 67 211 115 121 87 162 b 38 378 47 260 38 316 b 69 540 38 437 48 491 b 156 663 91 588 119 629 b 283 742 192 697 234 723 b 438 769 331 760 383 769 b 604 736 500 769 555 758 b 728 642 653 714 695 683 b 803 499 762 602 787 554 b 822 315 820 443 826 382 l 268 315 b 286 246 270 288 276 265 b 326 198 296 226 309 210 b 379 169 342 185 360 176 b 440 160 399 163 419 160 b 547 181 484 160 519 167 b 608 235 575 194 595 213 l 819 235 m 438 594 b 328 561 397 594 360 583 b 271 454 297 539 277 503 l 594 454 b 547 560 593 501 577 537 b 438 594 518 583 481 594 m 213 1008 l 647 1008 l 647 860 l 213 860 "},"Ĕ":{"ha":921,"x_min":0,"x_max":0,"o":"m 864 1007 l 864 799 l 329 799 l 329 622 l 835 622 l 835 413 l 329 413 l 329 210 l 864 210 l 864 0 l 92 0 l 92 1007 m 747 1231 b 675 1106 742 1173 718 1131 b 481 1067 632 1080 568 1067 b 289 1106 396 1067 332 1080 b 217 1231 245 1131 221 1173 l 381 1231 b 415 1179 384 1206 396 1188 b 481 1165 434 1170 456 1165 b 549 1179 506 1165 529 1170 b 583 1231 568 1188 580 1206 l 747 1231 "},"ĕ":{"ha":861,"x_min":0,"x_max":0,"o":"m 819 235 b 754 121 803 190 781 152 b 665 42 727 89 697 63 b 559 -3 632 22 597 6 b 447 -18 522 -13 484 -18 b 281 9 386 -18 331 -9 b 151 87 231 27 188 53 b 67 211 115 121 87 162 b 38 378 47 260 38 316 b 69 540 38 437 48 491 b 156 663 91 588 119 629 b 283 742 192 697 234 723 b 438 769 331 760 383 769 b 604 736 500 769 555 758 b 728 642 653 714 695 683 b 803 499 762 602 787 554 b 822 315 820 443 826 382 l 268 315 b 286 246 270 288 276 265 b 326 198 296 226 309 210 b 379 169 342 185 360 176 b 440 160 399 163 419 160 b 547 181 484 160 519 167 b 608 235 575 194 595 213 l 819 235 m 438 594 b 328 561 397 594 360 583 b 271 454 297 539 277 503 l 594 454 b 547 560 593 501 577 537 b 438 594 518 583 481 594 m 665 1007 b 646 945 663 986 656 965 b 602 892 636 925 621 907 b 531 853 583 876 559 863 b 428 839 502 844 468 839 b 327 853 389 839 355 844 b 256 892 299 863 275 876 b 212 945 237 907 223 925 b 194 1007 202 965 196 986 l 344 1007 b 369 968 347 992 356 979 b 429 951 383 957 403 951 b 490 968 455 951 475 957 b 515 1007 504 979 513 992 l 665 1007 "},"Ė":{"ha":921,"x_min":0,"x_max":0,"o":"m 864 1007 l 864 799 l 329 799 l 329 622 l 835 622 l 835 413 l 329 413 l 329 210 l 864 210 l 864 0 l 92 0 l 92 1007 m 597 1074 l 360 1074 l 360 1231 l 597 1231 "},"ė":{"ha":861,"x_min":0,"x_max":0,"o":"m 819 235 b 754 121 803 190 781 152 b 665 42 727 89 697 63 b 559 -3 632 22 597 6 b 447 -18 522 -13 484 -18 b 281 9 386 -18 331 -9 b 151 87 231 27 188 53 b 67 211 115 121 87 162 b 38 378 47 260 38 316 b 69 540 38 437 48 491 b 156 663 91 588 119 629 b 283 742 192 697 234 723 b 438 769 331 760 383 769 b 604 736 500 769 555 758 b 728 642 653 714 695 683 b 803 499 762 602 787 554 b 822 315 820 443 826 382 l 268 315 b 286 246 270 288 276 265 b 326 198 296 226 309 210 b 379 169 342 185 360 176 b 440 160 399 163 419 160 b 547 181 484 160 519 167 b 608 235 575 194 595 213 l 819 235 m 438 594 b 328 561 397 594 360 583 b 271 454 297 539 277 503 l 594 454 b 547 560 593 501 577 537 b 438 594 518 583 481 594 m 532 846 l 326 846 l 326 1007 l 532 1007 "},"Ę":{"ha":921,"x_min":0,"x_max":0,"o":"m 864 1007 l 864 799 l 329 799 l 329 622 l 835 622 l 835 413 l 329 413 l 329 210 l 864 210 l 864 0 l 92 0 l 92 1007 m 863 0 b 812 -25 845 -8 828 -17 b 769 -49 796 -33 781 -41 b 738 -73 756 -57 746 -65 b 726 -99 730 -81 726 -89 b 749 -137 726 -117 734 -130 b 796 -147 763 -144 779 -147 b 836 -142 811 -147 824 -145 b 864 -133 848 -138 857 -135 l 864 -247 b 841 -252 858 -249 851 -251 b 810 -256 831 -253 821 -255 b 776 -260 799 -258 787 -259 b 744 -261 764 -261 754 -261 b 669 -253 719 -261 694 -259 b 600 -229 643 -248 620 -240 b 550 -187 580 -218 563 -204 b 531 -128 537 -171 531 -151 b 557 -55 531 -100 539 -76 b 626 0 575 -34 598 -16 l 863 0 "},"ę":{"ha":861,"x_min":0,"x_max":0,"o":"m 668 -244 b 616 -256 651 -249 634 -253 b 561 -260 598 -258 580 -260 b 482 -253 534 -260 508 -257 b 412 -231 456 -248 433 -241 b 363 -192 392 -222 376 -209 b 344 -132 351 -176 344 -156 b 360 -70 344 -108 350 -87 b 403 -17 370 -53 384 -35 b 253 20 348 -12 298 0 b 138 101 209 40 170 67 b 64 221 106 134 81 175 b 37 378 46 267 37 319 b 69 540 37 437 48 491 b 156 663 91 588 119 629 b 283 742 192 697 234 723 b 437 769 331 760 383 769 b 598 739 497 769 550 759 b 719 653 646 719 686 690 b 797 520 753 616 778 572 b 824 351 815 469 824 413 l 824 333 b 822 315 824 328 823 322 l 268 315 b 286 246 270 288 276 265 b 326 198 296 226 309 210 b 380 169 342 185 360 176 b 440 160 400 163 420 160 b 547 181 484 160 519 167 b 608 235 575 194 595 213 l 819 235 b 769 141 806 200 790 169 b 687 58 749 113 722 85 b 634 17 669 44 651 31 b 589 -24 617 3 602 -11 b 558 -62 576 -38 566 -50 b 546 -93 550 -73 546 -84 b 562 -131 546 -111 551 -123 b 601 -143 572 -139 586 -143 b 636 -139 612 -143 624 -142 b 668 -131 648 -136 659 -133 l 668 -244 m 438 594 b 328 561 397 594 360 583 b 271 454 297 539 277 503 l 594 454 b 547 560 593 501 577 537 b 438 594 518 583 481 594 "},"Ě":{"ha":921,"x_min":0,"x_max":0,"o":"m 864 1007 l 864 799 l 329 799 l 329 622 l 835 622 l 835 413 l 329 413 l 329 210 l 864 210 l 864 0 l 92 0 l 92 1007 m 404 1231 l 479 1161 l 561 1231 l 786 1231 l 592 1074 l 367 1074 l 176 1231 "},"ě":{"ha":861,"x_min":0,"x_max":0,"o":"m 819 235 b 754 121 803 190 781 152 b 665 42 727 89 697 63 b 559 -3 632 22 597 6 b 447 -18 522 -13 484 -18 b 281 9 386 -18 331 -9 b 151 87 231 27 188 53 b 67 211 115 121 87 162 b 38 378 47 260 38 316 b 69 540 38 437 48 491 b 156 663 91 588 119 629 b 283 742 192 697 234 723 b 438 769 331 760 383 769 b 604 736 500 769 555 758 b 728 642 653 714 695 683 b 803 499 762 602 787 554 b 822 315 820 443 826 382 l 268 315 b 286 246 270 288 276 265 b 326 198 296 226 309 210 b 379 169 342 185 360 176 b 440 160 399 163 419 160 b 547 181 484 160 519 167 b 608 235 575 194 595 213 l 819 235 m 438 594 b 328 561 397 594 360 583 b 271 454 297 539 277 503 l 594 454 b 547 560 593 501 577 537 b 438 594 518 583 481 594 m 343 1007 l 428 943 l 515 1007 l 726 1007 l 531 846 l 324 846 l 133 1007 "},"Ĝ":{"ha":1088,"x_min":0,"x_max":0,"o":"m 544 1024 b 702 1003 600 1024 653 1017 b 836 940 752 989 796 968 b 937 836 876 912 909 878 b 996 692 964 794 984 746 l 763 692 b 737 742 757 709 748 726 b 692 785 725 759 710 773 b 628 816 674 798 653 808 b 542 828 603 824 574 828 b 440 808 506 828 472 821 b 357 747 408 794 380 774 b 302 647 334 720 316 687 b 282 507 289 606 282 560 b 354 262 282 400 306 319 b 546 178 402 206 466 178 b 627 186 574 178 601 181 b 699 215 653 192 677 201 b 750 267 720 228 737 245 b 769 347 763 288 769 315 l 769 367 l 526 367 l 526 561 l 1007 561 l 1007 0 l 825 0 l 818 111 b 694 13 786 67 744 34 b 510 -18 643 -8 582 -18 b 310 19 436 -18 369 -6 b 159 124 250 43 200 78 b 64 289 118 169 86 224 b 31 507 42 354 31 426 b 68 722 31 587 43 658 b 173 885 93 786 128 840 b 335 988 218 929 272 963 b 544 1024 398 1012 468 1024 m 617 1074 l 542 1142 l 460 1074 l 235 1074 l 429 1231 l 654 1231 l 844 1074 "},"ĝ":{"ha":903,"x_min":0,"x_max":0,"o":"m 821 747 l 821 100 b 790 -74 821 31 811 -27 b 707 -185 770 -120 742 -157 b 585 -244 672 -212 631 -232 b 438 -261 538 -255 489 -261 b 289 -240 382 -261 332 -254 b 176 -184 245 -226 208 -208 b 101 -102 145 -160 120 -133 b 64 -4 82 -71 69 -38 l 279 -4 b 333 -76 288 -37 306 -61 b 435 -100 359 -92 393 -100 b 558 -59 493 -100 534 -86 b 593 56 581 -32 593 6 l 593 144 b 548 92 581 124 566 106 b 490 55 530 77 511 65 b 426 33 470 45 449 38 b 363 26 404 29 383 26 b 230 51 314 26 270 34 b 126 122 190 67 155 91 b 58 238 97 154 74 192 b 33 396 41 284 33 337 b 58 553 33 455 41 508 b 126 669 74 599 97 638 b 230 740 155 700 190 723 b 363 764 270 756 314 764 b 426 757 383 764 404 762 b 490 735 449 752 470 745 b 548 699 511 726 530 713 b 593 646 566 684 581 666 l 593 747 m 437 586 b 373 575 414 586 393 582 b 320 540 353 568 335 556 b 284 481 305 525 293 505 b 271 396 275 458 271 429 b 284 310 271 362 275 334 b 320 250 293 286 305 266 b 373 215 335 234 353 223 b 437 204 393 208 414 204 b 501 214 460 204 481 207 b 554 246 522 220 539 231 b 590 305 569 261 581 280 b 603 396 598 329 603 360 b 590 488 603 433 598 463 b 554 546 581 512 569 531 b 501 577 539 561 522 571 b 437 586 481 583 460 586 m 543 846 l 457 910 l 369 846 l 158 846 l 354 1007 l 562 1007 l 751 846 "},"Ğ":{"ha":1088,"x_min":0,"x_max":0,"o":"m 544 1024 b 702 1003 600 1024 653 1017 b 836 940 752 989 796 968 b 937 836 876 912 909 878 b 996 692 964 794 984 746 l 763 692 b 737 742 757 709 748 726 b 692 785 725 759 710 773 b 628 816 674 798 653 808 b 542 828 603 824 574 828 b 440 808 506 828 472 821 b 357 747 408 794 380 774 b 302 647 334 720 316 687 b 282 507 289 606 282 560 b 354 262 282 400 306 319 b 546 178 402 206 466 178 b 627 186 574 178 601 181 b 699 215 653 192 677 201 b 750 267 720 228 737 245 b 769 347 763 288 769 315 l 769 367 l 526 367 l 526 561 l 1007 561 l 1007 0 l 825 0 l 818 111 b 694 13 786 67 744 34 b 510 -18 643 -8 582 -18 b 310 19 436 -18 369 -6 b 159 124 250 43 200 78 b 64 289 118 169 86 224 b 31 507 42 354 31 426 b 68 722 31 587 43 658 b 173 885 93 786 128 840 b 335 988 218 929 272 963 b 544 1024 398 1012 468 1024 m 807 1231 b 735 1106 801 1173 777 1131 b 540 1067 692 1080 627 1067 b 349 1106 456 1067 392 1080 b 276 1231 305 1131 281 1173 l 440 1231 b 474 1179 444 1206 455 1188 b 540 1165 493 1170 515 1165 b 608 1179 566 1165 589 1170 b 643 1231 628 1188 639 1206 l 807 1231 "},"ğ":{"ha":903,"x_min":0,"x_max":0,"o":"m 821 747 l 821 100 b 790 -74 821 31 811 -27 b 707 -185 770 -120 742 -157 b 585 -244 672 -212 631 -232 b 438 -261 538 -255 489 -261 b 289 -240 382 -261 332 -254 b 176 -184 245 -226 208 -208 b 101 -102 145 -160 120 -133 b 64 -4 82 -71 69 -38 l 279 -4 b 333 -76 288 -37 306 -61 b 435 -100 359 -92 393 -100 b 558 -59 493 -100 534 -86 b 593 56 581 -32 593 6 l 593 144 b 548 92 581 124 566 106 b 490 55 530 77 511 65 b 426 33 470 45 449 38 b 363 26 404 29 383 26 b 230 51 314 26 270 34 b 126 122 190 67 155 91 b 58 238 97 154 74 192 b 33 396 41 284 33 337 b 58 553 33 455 41 508 b 126 669 74 599 97 638 b 230 740 155 700 190 723 b 363 764 270 756 314 764 b 426 757 383 764 404 762 b 490 735 449 752 470 745 b 548 699 511 726 530 713 b 593 646 566 684 581 666 l 593 747 m 437 586 b 373 575 414 586 393 582 b 320 540 353 568 335 556 b 284 481 305 525 293 505 b 271 396 275 458 271 429 b 284 310 271 362 275 334 b 320 250 293 286 305 266 b 373 215 335 234 353 223 b 437 204 393 208 414 204 b 501 214 460 204 481 207 b 554 246 522 220 539 231 b 590 305 569 261 581 280 b 603 396 598 329 603 360 b 590 488 603 433 598 463 b 554 546 581 512 569 531 b 501 577 539 561 522 571 b 437 586 481 583 460 586 m 662 1007 b 643 945 660 986 653 965 b 599 892 633 925 618 907 b 528 853 580 876 556 863 b 425 839 499 844 465 839 b 324 853 386 839 353 844 b 253 892 296 863 272 876 b 210 945 234 907 220 925 b 192 1007 200 965 194 986 l 342 1007 b 367 968 344 992 353 979 b 426 951 381 957 400 951 b 487 968 452 951 472 957 b 512 1007 501 979 510 992 l 662 1007 "},"Ġ":{"ha":1088,"x_min":0,"x_max":0,"o":"m 544 1024 b 702 1003 600 1024 653 1017 b 836 940 752 989 796 968 b 937 836 876 912 909 878 b 996 692 964 794 984 746 l 763 692 b 737 742 757 709 748 726 b 692 785 725 759 710 773 b 628 816 674 798 653 808 b 542 828 603 824 574 828 b 440 808 506 828 472 821 b 357 747 408 794 380 774 b 302 647 334 720 316 687 b 282 507 289 606 282 560 b 354 262 282 400 306 319 b 546 178 402 206 466 178 b 627 186 574 178 601 181 b 699 215 653 192 677 201 b 750 267 720 228 737 245 b 769 347 763 288 769 315 l 769 367 l 526 367 l 526 561 l 1007 561 l 1007 0 l 825 0 l 818 111 b 694 13 786 67 744 34 b 510 -18 643 -8 582 -18 b 310 19 436 -18 369 -6 b 159 124 250 43 200 78 b 64 289 118 169 86 224 b 31 507 42 354 31 426 b 68 722 31 587 43 658 b 173 885 93 786 128 840 b 335 988 218 929 272 963 b 544 1024 398 1012 468 1024 m 657 1074 l 419 1074 l 419 1231 l 657 1231 "},"ġ":{"ha":903,"x_min":0,"x_max":0,"o":"m 821 747 l 821 100 b 790 -74 821 31 811 -27 b 707 -185 770 -120 742 -157 b 585 -244 672 -212 631 -232 b 438 -261 538 -255 489 -261 b 289 -240 382 -261 332 -254 b 176 -184 245 -226 208 -208 b 101 -102 145 -160 120 -133 b 64 -4 82 -71 69 -38 l 279 -4 b 333 -76 288 -37 306 -61 b 435 -100 359 -92 393 -100 b 558 -59 493 -100 534 -86 b 593 56 581 -32 593 6 l 593 144 b 548 92 581 124 566 106 b 490 55 530 77 511 65 b 426 33 470 45 449 38 b 363 26 404 29 383 26 b 230 51 314 26 270 34 b 126 122 190 67 155 91 b 58 238 97 154 74 192 b 33 396 41 284 33 337 b 58 553 33 455 41 508 b 126 669 74 599 97 638 b 230 740 155 700 190 723 b 363 764 270 756 314 764 b 426 757 383 764 404 762 b 490 735 449 752 470 745 b 548 699 511 726 530 713 b 593 646 566 684 581 666 l 593 747 m 437 586 b 373 575 414 586 393 582 b 320 540 353 568 335 556 b 284 481 305 525 293 505 b 271 396 275 458 271 429 b 284 310 271 362 275 334 b 320 250 293 286 305 266 b 373 215 335 234 353 223 b 437 204 393 208 414 204 b 501 214 460 204 481 207 b 554 246 522 220 539 231 b 590 305 569 261 581 280 b 603 396 598 329 603 360 b 590 488 603 433 598 463 b 554 546 581 512 569 531 b 501 577 539 561 522 571 b 437 586 481 583 460 586 m 532 846 l 326 846 l 326 1007 l 532 1007 "},"Ģ":{"ha":1088,"x_min":0,"x_max":0,"o":"m 544 1024 b 702 1003 600 1024 653 1017 b 836 940 752 989 796 968 b 937 836 876 912 909 878 b 996 692 964 794 984 746 l 763 692 b 737 742 757 709 748 726 b 692 785 725 759 710 773 b 628 816 674 798 653 808 b 542 828 603 824 574 828 b 440 808 506 828 472 821 b 357 747 408 794 380 774 b 302 647 334 720 316 687 b 282 507 289 606 282 560 b 354 262 282 400 306 319 b 546 178 402 206 466 178 b 627 186 574 178 601 181 b 699 215 653 192 677 201 b 750 267 720 228 737 245 b 769 347 763 288 769 315 l 769 367 l 526 367 l 526 561 l 1007 561 l 1007 0 l 825 0 l 818 111 b 694 13 786 67 744 34 b 510 -18 643 -8 582 -18 b 310 19 436 -18 369 -6 b 159 124 250 43 200 78 b 64 289 118 169 86 224 b 31 507 42 354 31 426 b 68 722 31 587 43 658 b 173 885 93 786 128 840 b 335 988 218 929 272 963 b 544 1024 398 1012 468 1024 m 608 -50 l 608 -197 l 547 -321 l 428 -321 l 482 -189 l 432 -189 l 432 -50 "},"ģ":{"ha":903,"x_min":0,"x_max":0,"o":"m 338 856 l 338 1003 l 399 1126 l 518 1126 l 465 994 l 514 994 l 514 856 m 821 747 l 821 100 b 790 -74 821 31 811 -27 b 707 -185 770 -120 742 -157 b 585 -244 672 -212 631 -232 b 438 -261 538 -255 489 -261 b 289 -240 382 -261 332 -254 b 176 -184 245 -226 208 -208 b 101 -102 145 -160 120 -133 b 64 -4 82 -71 69 -38 l 279 -4 b 333 -76 288 -37 306 -61 b 435 -100 359 -92 393 -100 b 558 -59 493 -100 534 -86 b 593 56 581 -32 593 6 l 593 144 b 548 92 581 124 566 106 b 490 55 530 77 511 65 b 426 33 470 45 449 38 b 363 26 404 29 383 26 b 230 51 314 26 270 34 b 126 122 190 67 155 91 b 58 238 97 154 74 192 b 33 396 41 284 33 337 b 58 553 33 455 41 508 b 126 669 74 599 97 638 b 230 740 155 700 190 723 b 363 764 270 756 314 764 b 426 757 383 764 404 762 b 490 735 449 752 470 745 b 548 699 511 726 530 713 b 593 646 566 684 581 666 l 593 747 m 437 586 b 373 575 414 586 393 582 b 320 540 353 568 335 556 b 284 481 305 525 293 505 b 271 396 275 458 271 429 b 284 310 271 362 275 334 b 320 250 293 286 305 266 b 373 215 335 234 353 223 b 437 204 393 208 414 204 b 501 214 460 204 481 207 b 554 246 522 220 539 231 b 590 305 569 261 581 280 b 603 396 598 329 603 360 b 590 488 603 433 598 463 b 554 546 581 512 569 531 b 501 577 539 561 522 571 b 437 586 481 583 460 586 "},"Ĥ":{"ha":1072,"x_min":0,"x_max":0,"o":"m 981 0 l 743 0 l 743 413 l 329 413 l 329 0 l 92 0 l 92 1007 l 329 1007 l 329 622 l 743 622 l 743 1007 l 981 1007 m 614 1074 l 539 1142 l 457 1074 l 232 1074 l 426 1231 l 651 1231 l 842 1074 "},"ĥ":{"ha":863,"x_min":0,"x_max":0,"o":"m 311 649 b 345 690 319 663 331 676 b 396 727 359 704 376 716 b 462 753 415 738 437 747 b 543 764 486 760 513 764 b 663 743 591 764 631 757 b 740 682 695 729 721 709 b 782 583 760 655 774 622 b 794 449 790 544 794 500 l 794 0 l 565 0 l 565 392 b 563 467 565 419 565 444 b 550 529 562 491 557 512 b 516 571 543 547 531 561 b 451 586 501 581 479 586 b 344 537 402 586 367 570 b 311 383 322 504 311 453 l 311 0 l 82 0 l 82 1007 l 311 1007 l 311 649 m 276 1074 l 201 1142 l 119 1074 l -106 1074 l 89 1231 l 314 1231 l 504 1074 "},"Ħ":{"ha":1072,"x_min":0,"x_max":0,"o":"m 981 874 l 1058 874 l 1058 725 l 981 725 l 981 0 l 743 0 l 743 413 l 329 413 l 329 0 l 92 0 l 92 725 l 14 725 l 14 874 l 92 874 l 92 1007 l 329 1007 l 329 874 l 743 874 l 743 1007 l 981 1007 m 743 725 l 329 725 l 329 622 l 743 622 "},"ħ":{"ha":890,"x_min":0,"x_max":0,"o":"m 328 649 b 362 690 336 663 347 676 b 413 727 376 704 393 716 b 478 753 432 738 454 747 b 560 764 503 760 530 764 b 680 743 608 764 648 757 b 757 682 712 729 738 709 b 799 583 776 655 790 622 b 811 449 807 544 811 500 l 811 0 l 582 0 l 582 392 b 580 467 582 419 581 444 b 567 529 578 491 574 512 b 533 571 559 547 548 561 b 468 586 517 581 496 586 b 361 537 419 586 383 570 b 328 383 339 504 328 453 l 328 0 l 99 0 l 99 785 l -7 785 l -7 906 l 99 906 l 99 1007 l 328 1007 l 328 906 l 476 906 l 476 785 l 328 785 l 328 649 "},"Ĩ":{"ha":419,"x_min":0,"x_max":0,"o":"m 92 0 l 92 1007 l 329 1007 l 329 0 m 296 1179 b 371 1231 339 1179 364 1196 l 506 1231 b 472 1146 499 1195 488 1167 b 419 1097 456 1125 439 1108 b 360 1075 400 1086 380 1079 b 306 1069 339 1071 321 1069 b 247 1078 283 1069 264 1072 b 203 1095 231 1083 216 1089 b 165 1113 190 1101 177 1107 b 126 1121 153 1118 140 1121 b 53 1069 84 1121 59 1104 l -82 1069 b -49 1153 -75 1104 -64 1131 b 4 1202 -33 1174 -15 1191 b 64 1225 24 1214 44 1221 b 118 1231 84 1229 102 1231 b 175 1222 140 1231 159 1228 b 217 1205 191 1217 205 1211 b 254 1188 230 1199 242 1193 b 296 1179 266 1182 280 1179 "},"ĩ":{"ha":394,"x_min":0,"x_max":0,"o":"m 313 0 l 82 0 l 82 747 l 313 747 m 282 961 b 356 1022 323 961 347 981 l 490 1022 b 426 890 480 964 459 920 b 303 846 394 861 353 846 b 240 856 279 846 258 849 b 192 876 223 862 207 869 b 152 897 178 884 165 891 b 112 907 140 904 126 907 b 42 846 73 907 49 887 l -93 846 b -32 976 -84 901 -63 945 b 96 1022 0 1007 42 1022 b 156 1013 119 1022 139 1019 b 201 992 172 1006 187 999 b 240 971 214 984 227 977 b 282 961 252 964 266 961 "},"Ī":{"ha":419,"x_min":0,"x_max":0,"o":"m 92 0 l 92 1007 l 329 1007 l 329 0 m -21 1233 l 444 1233 l 444 1101 l -21 1101 "},"ī":{"ha":394,"x_min":0,"x_max":0,"o":"m 313 0 l 82 0 l 82 747 l 313 747 m -18 1008 l 417 1008 l 417 860 l -18 860 "},"Ĭ":{"ha":419,"x_min":0,"x_max":0,"o":"m 92 0 l 92 1007 l 329 1007 l 329 0 m 476 1231 b 404 1106 471 1173 447 1131 b 210 1067 362 1080 297 1067 b 18 1106 125 1067 62 1080 b -54 1231 -25 1131 -50 1173 l 110 1231 b 144 1179 113 1206 125 1188 b 210 1165 163 1170 185 1165 b 278 1179 236 1165 258 1170 b 313 1231 297 1188 309 1206 l 476 1231 "},"ĭ":{"ha":394,"x_min":0,"x_max":0,"o":"m 313 0 l 82 0 l 82 747 l 313 747 m 435 1007 b 415 945 432 986 425 965 b 372 892 405 925 391 907 b 300 853 353 876 329 863 b 197 839 271 844 237 839 b 97 853 158 839 125 844 b 26 892 68 863 45 876 b -18 945 7 907 -8 925 b -36 1007 -28 965 -34 986 l 114 1007 b 139 968 117 992 125 979 b 199 951 153 957 173 951 b 259 968 225 951 245 957 b 285 1007 273 979 282 992 l 435 1007 "},"Į":{"ha":419,"x_min":0,"x_max":0,"o":"m 92 0 l 92 1007 l 329 1007 l 329 0 m 329 0 b 278 -25 312 -8 295 -17 b 235 -49 262 -33 248 -41 b 205 -73 223 -57 213 -65 b 193 -99 197 -81 193 -89 b 215 -137 193 -117 200 -130 b 262 -147 230 -144 246 -147 b 303 -142 277 -147 291 -145 b 331 -133 315 -138 324 -135 l 331 -247 b 308 -252 325 -249 317 -251 b 276 -256 298 -253 287 -255 b 242 -260 265 -258 254 -259 b 211 -261 231 -261 220 -261 b 135 -253 186 -261 161 -259 b 67 -229 110 -248 87 -240 b 17 -187 46 -218 30 -204 b -3 -128 4 -171 -3 -151 b 24 -55 -3 -100 6 -76 b 93 0 41 -34 64 -16 l 329 0 "},"į":{"ha":394,"x_min":0,"x_max":0,"o":"m 82 747 l 312 747 l 312 0 l 311 0 b 224 -49 276 -18 247 -34 b 189 -94 200 -63 189 -79 b 205 -133 189 -113 194 -126 b 244 -144 216 -141 229 -144 b 279 -140 256 -144 267 -143 b 311 -132 291 -137 302 -135 l 311 -246 b 259 -257 294 -250 277 -254 b 204 -261 241 -260 223 -261 b 125 -253 177 -261 151 -259 b 56 -229 99 -248 76 -240 b 6 -187 35 -218 19 -204 b -13 -128 -6 -171 -13 -151 b 14 -55 -13 -100 -4 -76 b 83 0 31 -34 55 -16 l 82 0 m 311 824 l 82 824 l 82 1007 l 311 1007 "},"İ":{"ha":419,"x_min":0,"x_max":0,"o":"m 92 0 l 92 1007 l 329 1007 l 329 0 m 329 1074 l 92 1074 l 92 1231 l 329 1231 "},"ı":{"ha":394,"x_min":0,"x_max":0,"o":"m 313 0 l 82 0 l 82 747 l 313 747 "},"Ĵ":{"ha":890,"x_min":0,"x_max":0,"o":"m 801 1007 l 801 385 b 701 90 801 260 768 161 b 408 -18 635 18 537 -18 b 238 12 344 -18 287 -8 b 117 95 190 32 149 59 b 43 223 84 131 60 173 b 15 385 26 272 17 326 l 253 385 b 294 217 255 304 268 248 b 408 171 319 186 357 171 b 524 217 458 171 497 186 b 564 385 550 248 564 304 l 564 1007 m 760 1074 l 685 1142 l 603 1074 l 378 1074 l 572 1231 l 797 1231 l 988 1074 "},"ĵ":{"ha":394,"x_min":0,"x_max":0,"o":"m 311 747 l 311 -6 b 297 -123 311 -53 306 -92 b 252 -196 287 -154 272 -178 b 175 -233 232 -213 206 -226 b 64 -243 144 -240 106 -243 l -21 -243 l -21 -78 l 6 -78 b 68 -61 38 -78 59 -72 b 82 3 77 -50 82 -29 l 82 747 m 286 846 l 200 910 l 113 846 l -99 846 l 97 1007 l 306 1007 l 494 846 "},"Ķ":{"ha":990,"x_min":0,"x_max":0,"o":"m 694 1007 l 985 1007 l 613 606 l 1004 0 l 718 0 l 446 425 l 329 297 l 329 0 l 92 0 l 92 1007 l 329 1007 l 329 608 m 604 -50 l 604 -197 l 543 -321 l 424 -321 l 478 -189 l 428 -189 l 428 -50 "},"ķ":{"ha":850,"x_min":0,"x_max":0,"o":"m 311 463 l 563 747 l 833 747 l 567 461 l 856 0 l 588 0 l 411 294 l 311 188 l 311 0 l 82 0 l 82 1007 l 311 1007 m 531 -50 l 531 -197 l 469 -321 l 350 -321 l 404 -189 l 354 -189 l 354 -50 "},"Ĺ":{"ha":811,"x_min":0,"x_max":0,"o":"m 813 210 l 813 0 l 92 0 l 92 1007 l 329 1007 l 329 210 m 96 1074 l 239 1231 l 519 1231 l 299 1074 "},"ĺ":{"ha":393,"x_min":0,"x_max":0,"o":"m 82 0 l 82 1007 l 311 1007 l 311 0 m 94 1074 l 238 1231 l 518 1231 l 297 1074 "},"Ļ":{"ha":811,"x_min":0,"x_max":0,"o":"m 813 210 l 813 0 l 92 0 l 92 1007 l 329 1007 l 329 210 m 542 -50 l 542 -197 l 481 -321 l 361 -321 l 415 -189 l 365 -189 l 365 -50 "},"ļ":{"ha":393,"x_min":0,"x_max":0,"o":"m 82 0 l 82 1007 l 311 1007 l 311 0 m 286 -50 l 286 -197 l 225 -321 l 106 -321 l 160 -189 l 110 -189 l 110 -50 "},"Ľ":{"ha":811,"x_min":0,"x_max":0,"o":"m 813 210 l 813 0 l 92 0 l 92 1007 l 329 1007 l 329 210 m 442 771 l 469 1007 l 679 1007 l 597 771 "},"ľ":{"ha":576,"x_min":0,"x_max":0,"o":"m 367 771 l 394 1007 l 604 1007 l 522 771 m 82 0 l 82 1007 l 311 1007 l 311 0 "},"Ŀ":{"ha":811,"x_min":0,"x_max":0,"o":"m 813 210 l 813 0 l 92 0 l 92 1007 l 329 1007 l 329 210 m 735 529 l 497 529 l 497 686 l 735 686 "},"ŀ":{"ha":599,"x_min":0,"x_max":0,"o":"m 599 526 l 393 526 l 393 688 l 599 688 m 82 0 l 82 1007 l 311 1007 l 311 0 "},"Ł":{"ha":850,"x_min":0,"x_max":0,"o":"m 569 831 l 569 611 l 368 490 l 368 210 l 851 210 l 851 0 l 131 0 l 131 347 l -28 253 l -28 472 l 131 567 l 131 1007 l 368 1007 l 368 710 "},"ł":{"ha":453,"x_min":0,"x_max":0,"o":"m 439 742 l 439 556 l 342 504 l 342 0 l 113 0 l 113 383 l 14 332 l 14 517 l 113 568 l 113 1007 l 342 1007 l 342 690 "},"Ń":{"ha":1104,"x_min":0,"x_max":0,"o":"m 321 694 l 321 0 l 92 0 l 92 1007 l 381 1007 l 785 313 l 785 1007 l 1014 1007 l 1014 0 l 725 0 m 451 1074 l 594 1231 l 875 1231 l 654 1074 "},"ń":{"ha":863,"x_min":0,"x_max":0,"o":"m 311 649 b 345 690 319 663 331 676 b 396 727 359 704 376 716 b 462 753 415 738 437 747 b 543 764 486 760 513 764 b 663 743 591 764 631 757 b 740 682 695 729 721 709 b 782 583 760 655 774 622 b 794 449 790 544 794 500 l 794 0 l 565 0 l 565 392 b 563 467 565 419 565 444 b 549 529 562 491 557 512 b 515 571 541 547 530 561 b 450 586 499 581 478 586 b 344 537 401 586 366 570 b 311 383 322 504 311 453 l 311 0 l 82 0 l 82 747 l 311 747 l 311 649 m 351 846 l 483 1007 l 743 1007 l 524 846 "},"Ņ":{"ha":1104,"x_min":0,"x_max":0,"o":"m 321 694 l 321 0 l 92 0 l 92 1007 l 381 1007 l 785 313 l 785 1007 l 1014 1007 l 1014 0 l 725 0 m 643 -50 l 643 -197 l 582 -321 l 463 -321 l 517 -189 l 467 -189 l 467 -50 "},"ņ":{"ha":863,"x_min":0,"x_max":0,"o":"m 311 649 b 345 690 319 663 331 676 b 396 727 359 704 376 716 b 462 753 415 738 437 747 b 543 764 486 760 513 764 b 663 743 591 764 631 757 b 740 682 695 729 721 709 b 782 583 760 655 774 622 b 794 449 790 544 794 500 l 794 0 l 565 0 l 565 392 b 563 467 565 419 565 444 b 549 529 562 491 557 512 b 515 571 541 547 530 561 b 450 586 499 581 478 586 b 344 537 401 586 366 570 b 311 383 322 504 311 453 l 311 0 l 82 0 l 82 747 l 311 747 l 311 649 m 528 -50 l 528 -197 l 467 -321 l 347 -321 l 401 -189 l 351 -189 l 351 -50 "},"Ň":{"ha":1104,"x_min":0,"x_max":0,"o":"m 321 694 l 321 0 l 92 0 l 92 1007 l 381 1007 l 785 313 l 785 1007 l 1014 1007 l 1014 0 l 725 0 m 492 1231 l 567 1161 l 649 1231 l 874 1231 l 679 1074 l 454 1074 l 264 1231 "},"ň":{"ha":863,"x_min":0,"x_max":0,"o":"m 311 649 b 345 690 319 663 331 676 b 396 727 359 704 376 716 b 462 753 415 738 437 747 b 543 764 486 760 513 764 b 663 743 591 764 631 757 b 740 682 695 729 721 709 b 782 583 760 655 774 622 b 794 449 790 544 794 500 l 794 0 l 565 0 l 565 392 b 563 467 565 419 565 444 b 549 529 562 491 557 512 b 515 571 541 547 530 561 b 450 586 499 581 478 586 b 344 537 401 586 366 570 b 311 383 322 504 311 453 l 311 0 l 82 0 l 82 747 l 311 747 l 311 649 m 351 1007 l 436 943 l 524 1007 l 735 1007 l 539 846 l 332 846 l 142 1007 "},"Ŋ":{"ha":1104,"x_min":0,"x_max":0,"o":"m 321 0 l 92 0 l 92 1007 l 381 1007 l 785 381 l 785 1007 l 1014 1007 l 1014 0 b 1000 -126 1014 -52 1009 -94 b 953 -200 991 -158 975 -182 b 868 -235 932 -218 903 -229 b 736 -243 833 -240 789 -243 l 639 -243 l 639 -64 l 675 -64 b 746 -55 705 -64 728 -61 b 772 -11 763 -49 772 -34 l 772 0 l 321 694 "},"ŋ":{"ha":863,"x_min":0,"x_max":0,"o":"m 565 392 b 563 467 565 419 565 444 b 549 529 562 491 557 512 b 515 571 541 547 530 561 b 450 586 499 581 478 586 b 344 537 401 586 366 570 b 311 383 322 504 311 453 l 311 0 l 82 0 l 82 747 l 311 747 l 311 649 b 345 690 319 662 331 676 b 396 727 359 704 376 716 b 462 753 415 738 437 747 b 543 764 486 760 513 764 b 663 743 591 764 631 757 b 740 682 695 729 721 709 b 782 583 760 655 774 622 b 794 449 790 544 794 500 l 794 -19 b 780 -135 794 -67 790 -105 b 735 -203 770 -164 755 -187 b 657 -235 714 -219 688 -229 b 546 -243 625 -240 588 -243 l 457 -243 l 457 -76 l 488 -76 b 551 -60 520 -76 541 -71 b 565 4 560 -49 565 -27 l 565 392 "},"Ō":{"ha":1106,"x_min":0,"x_max":0,"o":"m 282 503 b 303 362 282 449 289 402 b 362 260 318 322 337 288 b 448 199 386 233 415 213 b 553 178 481 185 516 178 b 658 199 590 178 625 185 b 744 260 691 213 719 233 b 802 362 768 288 788 322 b 824 503 816 402 824 449 b 802 644 824 556 816 603 b 744 745 788 684 768 718 b 658 807 719 772 691 793 b 553 828 625 821 590 828 b 448 807 516 828 481 821 b 362 745 415 793 386 772 b 303 644 337 718 318 684 b 282 503 289 603 282 556 m 1075 503 b 1037 289 1075 424 1062 353 b 930 125 1011 225 976 170 b 765 19 884 80 829 44 b 553 -18 700 -6 630 -18 b 340 19 475 -18 404 -6 b 176 125 276 44 222 80 b 69 289 130 170 94 225 b 31 503 43 353 31 424 b 69 717 31 581 43 653 b 176 881 94 781 130 835 b 340 986 222 926 276 961 b 553 1024 404 1011 475 1024 b 765 986 630 1024 700 1011 b 930 881 829 961 884 926 b 1037 717 976 835 1011 781 b 1075 503 1062 653 1075 581 m 321 1233 l 786 1233 l 786 1101 l 321 1101 "},"ō":{"ha":867,"x_min":0,"x_max":0,"o":"m 433 592 b 370 581 411 592 390 588 b 318 544 350 573 333 561 b 283 477 303 527 292 504 b 271 376 275 450 271 416 b 283 276 271 338 275 304 b 317 209 292 249 303 226 b 369 172 332 192 349 179 b 433 160 389 164 410 160 b 498 172 456 160 478 164 b 549 209 518 179 535 192 b 583 276 564 226 575 249 b 596 376 592 304 596 338 b 583 477 596 416 592 450 b 549 544 575 504 563 527 b 497 581 534 561 516 573 b 433 592 477 588 456 592 m 433 769 b 583 746 485 769 535 762 b 709 674 630 730 672 706 b 797 552 746 642 775 602 b 829 376 818 503 829 444 b 797 201 829 309 818 250 b 709 78 775 151 746 110 b 583 6 672 45 630 21 b 433 -18 535 -10 485 -18 b 284 6 381 -18 332 -10 b 158 78 236 21 194 45 b 70 201 121 110 92 151 b 38 376 48 250 38 309 b 70 552 38 444 48 503 b 158 674 92 602 121 642 b 284 746 194 706 236 730 b 433 769 332 762 381 769 m 217 1008 l 651 1008 l 651 860 l 217 860 "},"Ŏ":{"ha":1106,"x_min":0,"x_max":0,"o":"m 282 503 b 303 362 282 449 289 402 b 362 260 318 322 337 288 b 448 199 386 233 415 213 b 553 178 481 185 516 178 b 658 199 590 178 625 185 b 744 260 691 213 719 233 b 802 362 768 288 788 322 b 824 503 816 402 824 449 b 802 644 824 556 816 603 b 744 745 788 684 768 718 b 658 807 719 772 691 793 b 553 828 625 821 590 828 b 448 807 516 828 481 821 b 362 745 415 793 386 772 b 303 644 337 718 318 684 b 282 503 289 603 282 556 m 1075 503 b 1037 289 1075 424 1062 353 b 930 125 1011 225 976 170 b 765 19 884 80 829 44 b 553 -18 700 -6 630 -18 b 340 19 475 -18 404 -6 b 176 125 276 44 222 80 b 69 289 130 170 94 225 b 31 503 43 353 31 424 b 69 717 31 581 43 653 b 176 881 94 781 130 835 b 340 986 222 926 276 961 b 553 1024 404 1011 475 1024 b 765 986 630 1024 700 1011 b 930 881 829 961 884 926 b 1037 717 976 835 1011 781 b 1075 503 1062 653 1075 581 m 818 1231 b 746 1106 813 1173 788 1131 b 551 1067 703 1080 638 1067 b 360 1106 467 1067 403 1080 b 287 1231 316 1131 292 1173 l 451 1231 b 485 1179 455 1206 466 1188 b 551 1165 504 1170 526 1165 b 619 1179 577 1165 600 1170 b 654 1231 639 1188 650 1206 l 818 1231 "},"ŏ":{"ha":867,"x_min":0,"x_max":0,"o":"m 433 592 b 370 581 411 592 390 588 b 318 544 350 573 333 561 b 283 477 303 527 292 504 b 271 376 275 450 271 416 b 283 276 271 338 275 304 b 317 209 292 249 303 226 b 369 172 332 192 349 179 b 433 160 389 164 410 160 b 498 172 456 160 478 164 b 549 209 518 179 535 192 b 583 276 564 226 575 249 b 596 376 592 304 596 338 b 583 477 596 416 592 450 b 549 544 575 504 563 527 b 497 581 534 561 516 573 b 433 592 477 588 456 592 m 433 769 b 583 746 485 769 535 762 b 709 674 630 730 672 706 b 797 552 746 642 775 602 b 829 376 818 503 829 444 b 797 201 829 309 818 250 b 709 78 775 151 746 110 b 583 6 672 45 630 21 b 433 -18 535 -10 485 -18 b 284 6 381 -18 332 -10 b 158 78 236 21 194 45 b 70 201 121 110 92 151 b 38 376 48 250 38 309 b 70 552 38 444 48 503 b 158 674 92 602 121 642 b 284 746 194 706 236 730 b 433 769 332 762 381 769 m 669 1007 b 650 945 667 986 660 965 b 606 892 640 925 625 907 b 535 853 587 876 563 863 b 432 839 506 844 472 839 b 331 853 393 839 359 844 b 260 892 303 863 279 876 b 217 945 241 907 227 925 b 199 1007 206 965 200 986 l 349 1007 b 374 968 351 992 360 979 b 433 951 388 957 407 951 b 494 968 459 951 479 957 b 519 1007 508 979 517 992 l 669 1007 "},"Ő":{"ha":1106,"x_min":0,"x_max":0,"o":"m 282 503 b 303 362 282 449 289 402 b 362 260 318 322 337 288 b 448 199 386 233 415 213 b 553 178 481 185 516 178 b 658 199 590 178 625 185 b 744 260 691 213 719 233 b 802 362 768 288 788 322 b 824 503 816 402 824 449 b 802 644 824 556 816 603 b 744 745 788 684 768 718 b 658 807 719 772 691 793 b 553 828 625 821 590 828 b 448 807 516 828 481 821 b 362 745 415 793 386 772 b 303 644 337 718 318 684 b 282 503 289 603 282 556 m 1075 503 b 1037 289 1075 424 1062 353 b 930 125 1011 225 976 170 b 765 19 884 80 829 44 b 553 -18 700 -6 630 -18 b 340 19 475 -18 404 -6 b 176 125 276 44 222 80 b 69 289 130 170 94 225 b 31 503 43 353 31 424 b 69 717 31 581 43 653 b 176 881 94 781 130 835 b 340 986 222 926 276 961 b 553 1024 404 1011 475 1024 b 765 986 630 1024 700 1011 b 930 881 829 961 884 926 b 1037 717 976 835 1011 781 b 1075 503 1062 653 1075 581 m 300 1074 l 443 1231 l 724 1231 l 501 1074 m 606 1074 l 749 1231 l 1028 1231 l 807 1074 "},"ő":{"ha":867,"x_min":0,"x_max":0,"o":"m 192 846 l 324 1007 l 583 1007 l 364 846 m 503 846 l 633 1007 l 894 1007 l 675 846 m 433 592 b 370 581 411 592 390 588 b 318 544 350 573 333 561 b 283 477 303 527 292 504 b 271 376 275 450 271 416 b 283 276 271 338 275 304 b 317 209 292 249 303 226 b 369 172 332 192 349 179 b 433 160 389 164 410 160 b 498 172 456 160 478 164 b 549 209 518 179 535 192 b 583 276 564 226 575 249 b 596 376 592 304 596 338 b 583 477 596 416 592 450 b 549 544 575 504 563 527 b 497 581 534 561 516 573 b 433 592 477 588 456 592 m 433 769 b 583 746 485 769 535 762 b 709 674 630 730 672 706 b 797 552 746 642 775 602 b 829 376 818 503 829 444 b 797 201 829 309 818 250 b 709 78 775 151 746 110 b 583 6 672 45 630 21 b 433 -18 535 -10 485 -18 b 284 6 381 -18 332 -10 b 158 78 236 21 194 45 b 70 201 121 110 92 151 b 38 376 48 250 38 309 b 70 552 38 444 48 503 b 158 674 92 602 121 642 b 284 746 194 706 236 730 b 433 769 332 762 381 769 "},"Œ":{"ha":1631,"x_min":0,"x_max":0,"o":"m 824 506 b 802 648 824 560 816 608 b 744 749 788 688 768 722 b 658 808 719 775 691 795 b 553 828 625 821 590 828 b 448 808 516 828 481 821 b 362 749 415 795 386 775 b 303 648 337 722 318 688 b 282 506 289 608 282 560 b 303 363 282 451 289 403 b 362 260 318 322 337 288 b 448 199 386 233 415 213 b 553 178 481 185 516 178 b 658 199 590 178 625 185 b 744 260 691 213 719 233 b 802 363 768 288 788 322 b 824 506 816 403 824 451 m 829 67 b 544 -18 756 10 661 -18 b 333 19 467 -18 396 -6 b 172 124 270 43 216 78 b 67 290 127 170 92 225 b 31 506 43 354 31 426 b 67 721 31 585 43 657 b 172 884 92 785 127 839 b 333 988 216 929 270 963 b 544 1024 396 1012 467 1024 b 704 1003 604 1024 657 1017 b 829 942 751 989 793 969 l 829 1007 l 1574 1007 l 1574 799 l 1039 799 l 1039 622 l 1544 622 l 1544 413 l 1039 413 l 1039 210 l 1574 210 l 1574 0 l 829 0 l 829 67 "},"œ":{"ha":1388,"x_min":0,"x_max":0,"o":"m 964 593 b 858 560 923 593 888 582 b 804 454 829 539 811 503 l 1122 454 b 1074 558 1120 500 1104 534 b 964 593 1044 581 1007 593 m 271 375 b 283 276 271 336 275 303 b 317 209 292 248 303 226 b 369 172 332 192 349 179 b 433 160 389 164 410 160 b 498 172 456 160 478 164 b 550 209 518 179 535 192 b 585 276 565 226 577 248 b 599 375 594 303 599 336 b 585 476 599 415 594 448 b 550 542 577 503 565 525 b 498 578 535 558 518 570 b 433 589 478 585 456 589 b 370 578 411 589 390 585 b 318 542 350 570 333 558 b 283 476 303 525 292 503 b 271 375 275 448 271 415 m 1347 235 b 1283 121 1331 190 1309 152 b 1194 42 1256 89 1227 63 b 1089 -3 1161 22 1126 6 b 978 -18 1052 -13 1015 -18 b 817 12 917 -18 863 -8 b 701 92 772 32 733 58 b 584 10 669 56 630 29 b 433 -18 538 -9 488 -18 b 284 6 381 -18 332 -10 b 158 77 236 21 194 45 b 70 199 121 109 92 150 b 38 375 48 249 38 307 b 70 551 38 443 48 501 b 158 673 92 600 121 641 b 284 744 194 705 236 728 b 433 767 332 759 381 767 b 585 738 489 767 540 757 b 703 656 631 719 670 692 b 817 737 735 690 773 717 b 964 767 861 757 910 767 b 1133 733 1027 767 1083 756 b 1257 640 1182 711 1224 680 b 1331 498 1290 600 1315 553 b 1350 315 1347 443 1354 382 l 801 315 b 819 246 803 288 809 265 b 858 198 830 226 842 210 b 910 169 873 185 890 176 b 971 160 929 163 950 160 b 1076 181 1014 160 1050 167 b 1136 235 1103 194 1123 213 l 1347 235 "},"Ŕ":{"ha":1001,"x_min":0,"x_max":0,"o":"m 329 379 l 329 0 l 92 0 l 92 1007 l 479 1007 b 660 994 544 1007 604 1003 b 806 945 716 985 765 969 b 901 849 846 922 878 890 b 936 696 925 809 936 758 b 881 518 936 622 918 563 b 739 418 844 474 796 440 l 988 0 l 708 0 l 490 379 m 329 579 l 486 579 b 565 583 514 579 540 581 b 628 600 589 586 610 592 b 669 635 645 608 659 620 b 685 693 680 650 685 669 b 669 750 685 716 680 735 b 628 785 659 765 645 776 b 565 802 610 793 589 799 b 486 807 540 805 514 807 l 329 807 m 361 1074 l 504 1231 l 785 1231 l 564 1074 "},"ŕ":{"ha":557,"x_min":0,"x_max":0,"o":"m 542 528 b 508 531 529 530 518 531 b 479 532 499 532 489 532 b 353 497 424 532 382 520 b 311 375 325 474 311 433 l 311 0 l 82 0 l 82 747 l 303 747 l 303 606 b 378 711 320 650 345 685 b 507 753 410 737 453 751 l 524 753 b 542 751 530 753 536 752 l 542 528 m 225 846 l 357 1007 l 617 1007 l 397 846 "},"Ŗ":{"ha":1001,"x_min":0,"x_max":0,"o":"m 329 379 l 329 0 l 92 0 l 92 1007 l 479 1007 b 660 994 544 1007 604 1003 b 806 945 716 985 765 969 b 901 849 846 922 878 890 b 936 696 925 809 936 758 b 881 518 936 622 918 563 b 739 418 844 474 796 440 l 988 0 l 708 0 l 490 379 m 329 579 l 486 579 b 565 583 514 579 540 581 b 628 600 589 586 610 592 b 669 635 645 608 659 620 b 685 693 680 650 685 669 b 669 750 685 716 680 735 b 628 785 659 765 645 776 b 565 802 610 793 589 799 b 486 807 540 805 514 807 l 329 807 m 588 -50 l 588 -197 l 526 -321 l 407 -321 l 461 -189 l 411 -189 l 411 -50 "},"ŗ":{"ha":557,"x_min":0,"x_max":0,"o":"m 542 528 b 508 531 529 530 518 531 b 479 532 499 532 489 532 b 353 497 424 532 382 520 b 311 375 325 474 311 433 l 311 0 l 82 0 l 82 747 l 303 747 l 303 606 b 378 711 320 650 345 685 b 507 753 410 737 453 751 l 524 753 b 542 751 530 753 536 752 l 542 528 m 285 -50 l 285 -197 l 224 -321 l 104 -321 l 158 -189 l 108 -189 l 108 -50 "},"Ř":{"ha":1001,"x_min":0,"x_max":0,"o":"m 329 379 l 329 0 l 92 0 l 92 1007 l 479 1007 b 660 994 544 1007 604 1003 b 806 945 716 985 765 969 b 901 849 846 922 878 890 b 936 696 925 809 936 758 b 881 518 936 622 918 563 b 739 418 844 474 796 440 l 988 0 l 708 0 l 490 379 m 329 579 l 486 579 b 565 583 514 579 540 581 b 628 600 589 586 610 592 b 669 635 645 608 659 620 b 685 693 680 650 685 669 b 669 750 685 716 680 735 b 628 785 659 765 645 776 b 565 802 610 793 589 799 b 486 807 540 805 514 807 l 329 807 m 414 1231 l 489 1161 l 571 1231 l 796 1231 l 601 1074 l 376 1074 l 186 1231 "},"ř":{"ha":557,"x_min":0,"x_max":0,"o":"m 542 528 b 508 531 529 530 518 531 b 479 532 499 532 489 532 b 353 497 424 532 382 520 b 311 375 325 474 311 433 l 311 0 l 82 0 l 82 747 l 303 747 l 303 606 b 378 711 320 650 345 685 b 507 753 410 737 453 751 l 524 753 b 542 751 530 753 536 752 l 542 528 m 226 1007 l 311 943 l 399 1007 l 610 1007 l 414 846 l 207 846 l 17 1007 "},"Ś":{"ha":935,"x_min":0,"x_max":0,"o":"m 643 715 b 573 803 631 753 608 782 b 444 833 538 823 495 833 b 330 808 398 833 360 825 b 285 736 300 792 285 768 b 317 672 285 711 295 690 b 401 635 338 655 366 642 l 539 607 b 665 576 580 599 622 588 b 784 526 709 564 748 548 b 872 443 820 505 849 477 b 907 312 895 409 907 365 b 870 172 907 260 895 213 b 774 68 846 130 814 96 b 640 4 735 40 690 19 b 485 -18 589 -11 537 -18 b 169 73 355 -18 250 12 b 21 328 89 134 39 219 l 257 328 b 337 211 270 275 297 236 b 490 174 377 186 428 174 b 551 179 511 174 531 175 b 607 197 572 183 590 189 b 647 231 624 206 637 217 b 662 283 657 244 662 262 b 610 359 662 316 645 341 b 475 404 576 377 531 392 l 353 429 b 235 464 312 437 273 449 b 135 521 197 479 163 498 b 66 605 106 544 83 572 b 40 722 49 638 40 677 b 78 856 40 773 53 818 b 175 950 103 894 135 925 b 310 1006 215 975 260 994 b 458 1024 360 1018 409 1024 b 602 1007 507 1024 555 1018 b 729 953 649 996 691 978 b 826 857 767 928 799 896 b 878 715 852 818 869 771 l 643 715 m 362 1074 l 506 1231 l 786 1231 l 565 1074 "},"ś":{"ha":808,"x_min":0,"x_max":0,"o":"m 542 528 b 490 585 534 556 517 575 b 396 600 463 595 432 600 b 276 544 316 600 276 581 b 298 503 276 527 284 513 b 368 478 312 493 336 484 l 507 453 b 707 381 597 436 663 412 b 772 235 750 349 772 300 b 745 124 772 193 763 156 b 669 45 727 92 702 66 b 555 -2 637 24 599 9 b 411 -18 511 -13 463 -18 b 274 -2 362 -18 316 -13 b 163 47 232 9 195 25 b 85 128 131 68 105 96 b 44 243 64 161 51 200 l 257 243 b 313 169 267 207 286 182 b 414 149 341 155 374 149 b 514 165 455 149 488 154 b 553 215 540 176 553 193 b 527 257 553 232 544 246 b 436 285 510 268 480 277 l 303 307 b 127 381 231 319 172 344 b 60 536 82 418 60 469 b 87 635 60 573 69 606 b 161 707 105 663 130 688 b 270 751 193 726 229 741 b 401 767 311 762 355 767 b 524 753 444 767 485 762 b 631 711 564 745 599 731 b 712 637 663 692 690 667 b 756 528 734 607 748 570 l 542 528 m 322 846 l 454 1007 l 714 1007 l 494 846 "},"Ŝ":{"ha":935,"x_min":0,"x_max":0,"o":"m 643 715 b 573 803 631 753 608 782 b 444 833 538 823 495 833 b 330 808 398 833 360 825 b 285 736 300 792 285 768 b 317 672 285 711 295 690 b 401 635 338 655 366 642 l 539 607 b 665 576 580 599 622 588 b 784 526 709 564 748 548 b 872 443 820 505 849 477 b 907 312 895 409 907 365 b 870 172 907 260 895 213 b 774 68 846 130 814 96 b 640 4 735 40 690 19 b 485 -18 589 -11 537 -18 b 169 73 355 -18 250 12 b 21 328 89 134 39 219 l 257 328 b 337 211 270 275 297 236 b 490 174 377 186 428 174 b 551 179 511 174 531 175 b 607 197 572 183 590 189 b 647 231 624 206 637 217 b 662 283 657 244 662 262 b 610 359 662 316 645 341 b 475 404 576 377 531 392 l 353 429 b 235 464 312 437 273 449 b 135 521 197 479 163 498 b 66 605 106 544 83 572 b 40 722 49 638 40 677 b 78 856 40 773 53 818 b 175 950 103 894 135 925 b 310 1006 215 975 260 994 b 458 1024 360 1018 409 1024 b 602 1007 507 1024 555 1018 b 729 953 649 996 691 978 b 826 857 767 928 799 896 b 878 715 852 818 869 771 l 643 715 m 542 1074 l 467 1142 l 385 1074 l 160 1074 l 354 1231 l 579 1231 l 769 1074 "},"ŝ":{"ha":808,"x_min":0,"x_max":0,"o":"m 542 528 b 490 585 534 556 517 575 b 396 600 463 595 432 600 b 276 544 316 600 276 581 b 298 503 276 527 284 513 b 368 478 312 493 336 484 l 507 453 b 707 381 597 436 663 412 b 772 235 750 349 772 300 b 745 124 772 193 763 156 b 669 45 727 92 702 66 b 555 -2 637 24 599 9 b 411 -18 511 -13 463 -18 b 274 -2 362 -18 316 -13 b 163 47 232 9 195 25 b 85 128 131 68 105 96 b 44 243 64 161 51 200 l 257 243 b 313 169 267 207 286 182 b 414 149 341 155 374 149 b 514 165 455 149 488 154 b 553 215 540 176 553 193 b 527 257 553 232 544 246 b 436 285 510 268 480 277 l 303 307 b 127 381 231 319 172 344 b 60 536 82 418 60 469 b 87 635 60 573 69 606 b 161 707 105 663 130 688 b 270 751 193 726 229 741 b 401 767 311 762 355 767 b 524 753 444 767 485 762 b 631 711 564 745 599 731 b 712 637 663 692 690 667 b 756 528 734 607 748 570 l 542 528 m 497 846 l 411 910 l 324 846 l 112 846 l 308 1007 l 517 1007 l 706 846 "},"Ş":{"ha":935,"x_min":0,"x_max":0,"o":"m 643 715 b 573 803 631 753 608 782 b 444 833 538 823 495 833 b 330 808 398 833 360 825 b 285 736 300 792 285 768 b 317 672 285 711 295 690 b 401 635 338 655 366 642 l 539 607 b 665 576 580 599 622 588 b 784 526 709 564 748 548 b 872 443 820 505 849 477 b 907 312 895 409 907 365 b 870 172 907 260 895 213 b 774 68 846 130 814 96 b 640 4 735 40 690 19 b 485 -18 589 -11 537 -18 b 169 73 355 -18 250 12 b 21 328 89 134 39 219 l 257 328 b 337 211 270 275 297 236 b 490 174 377 186 428 174 b 551 179 511 174 531 175 b 607 197 572 183 590 189 b 647 231 624 206 637 217 b 662 283 657 244 662 262 b 610 359 662 316 645 341 b 475 404 576 377 531 392 l 353 429 b 235 464 312 437 273 449 b 135 521 197 479 163 498 b 66 605 106 544 83 572 b 40 722 49 638 40 677 b 78 856 40 773 53 818 b 175 950 103 894 135 925 b 310 1006 215 975 260 994 b 458 1024 360 1018 409 1024 b 602 1007 507 1024 555 1018 b 729 953 649 996 691 978 b 826 857 767 928 799 896 b 878 715 852 818 869 771 l 643 715 m 326 -185 b 365 -198 335 -189 347 -194 b 418 -204 382 -202 400 -204 b 465 -196 437 -204 452 -201 b 485 -164 478 -190 485 -180 b 469 -135 485 -151 480 -141 b 429 -125 459 -128 446 -125 b 403 -128 422 -125 413 -126 b 376 -138 393 -130 384 -133 l 335 -114 l 406 1 l 492 1 l 446 -71 b 497 -65 458 -67 475 -65 b 541 -70 511 -65 526 -67 b 583 -86 556 -73 570 -79 b 614 -115 595 -94 606 -103 b 626 -160 622 -127 626 -142 b 610 -215 626 -182 621 -200 b 567 -252 600 -230 585 -242 b 506 -273 549 -262 529 -269 b 435 -279 482 -277 459 -279 b 303 -260 386 -279 342 -273 l 326 -185 "},"ş":{"ha":808,"x_min":0,"x_max":0,"o":"m 542 528 b 490 585 534 556 517 575 b 396 600 463 595 432 600 b 276 544 316 600 276 581 b 298 503 276 527 284 513 b 368 478 312 493 336 484 l 507 453 b 707 381 597 436 663 412 b 772 235 750 349 772 300 b 745 124 772 193 763 156 b 669 45 727 92 702 66 b 555 -2 637 24 599 9 b 411 -18 511 -13 463 -18 b 274 -2 362 -18 316 -13 b 163 47 232 9 195 25 b 85 128 131 68 105 96 b 44 243 64 161 51 200 l 257 243 b 313 169 267 207 286 182 b 414 149 341 155 374 149 b 514 165 455 149 488 154 b 553 215 540 176 553 193 b 527 257 553 232 544 246 b 436 285 510 268 480 277 l 303 307 b 127 381 231 319 172 344 b 60 536 82 418 60 469 b 87 635 60 573 69 606 b 161 707 105 663 130 688 b 270 751 193 726 229 741 b 401 767 311 762 355 767 b 524 753 444 767 485 762 b 631 711 564 745 599 731 b 712 637 663 692 690 667 b 756 528 734 607 748 570 l 542 528 m 271 -185 b 309 -198 279 -189 292 -194 b 362 -204 326 -202 344 -204 b 410 -196 381 -204 397 -201 b 429 -164 423 -190 429 -180 b 414 -135 429 -151 424 -141 b 374 -125 404 -128 390 -125 b 347 -128 366 -125 357 -126 b 321 -138 337 -130 328 -133 l 279 -114 l 350 1 l 436 1 l 390 -71 b 442 -65 402 -67 419 -65 b 485 -70 456 -65 470 -67 b 527 -86 501 -73 515 -79 b 558 -115 540 -94 550 -103 b 571 -160 567 -127 571 -142 b 555 -215 571 -182 566 -200 b 512 -252 544 -230 530 -242 b 450 -273 494 -262 473 -269 b 379 -279 427 -277 403 -279 b 247 -260 330 -279 286 -273 l 271 -185 "},"Š":{"ha":935,"x_min":0,"x_max":0,"o":"m 643 715 b 573 803 631 753 608 782 b 444 833 538 823 495 833 b 330 808 398 833 360 825 b 285 736 300 792 285 768 b 317 672 285 711 295 690 b 401 635 338 655 366 642 l 539 607 b 665 576 580 599 622 588 b 784 526 709 564 748 548 b 872 443 820 505 849 477 b 907 312 895 409 907 365 b 870 172 907 260 895 213 b 774 68 846 130 814 96 b 640 4 735 40 690 19 b 485 -18 589 -11 537 -18 b 169 73 355 -18 250 12 b 21 328 89 134 39 219 l 257 328 b 337 211 270 275 297 236 b 490 174 377 186 428 174 b 551 179 511 174 531 175 b 607 197 572 183 590 189 b 647 231 624 206 637 217 b 662 283 657 244 662 262 b 610 359 662 316 645 341 b 475 404 576 377 531 392 l 353 429 b 235 464 312 437 273 449 b 135 521 197 479 163 498 b 66 605 106 544 83 572 b 40 722 49 638 40 677 b 78 856 40 773 53 818 b 175 950 103 894 135 925 b 310 1006 215 975 260 994 b 458 1024 360 1018 409 1024 b 602 1007 507 1024 555 1018 b 729 953 649 996 691 978 b 826 857 767 928 799 896 b 878 715 852 818 869 771 l 643 715 m 387 1231 l 462 1161 l 544 1231 l 769 1231 l 575 1074 l 350 1074 l 160 1231 "},"š":{"ha":808,"x_min":0,"x_max":0,"o":"m 542 528 b 490 585 534 556 517 575 b 396 600 463 595 432 600 b 276 544 316 600 276 581 b 298 503 276 527 284 513 b 368 478 312 493 336 484 l 507 453 b 707 381 597 436 663 412 b 772 235 750 349 772 300 b 745 124 772 193 763 156 b 669 45 727 92 702 66 b 555 -2 637 24 599 9 b 411 -18 511 -13 463 -18 b 274 -2 362 -18 316 -13 b 163 47 232 9 195 25 b 85 128 131 68 105 96 b 44 243 64 161 51 200 l 257 243 b 313 169 267 207 286 182 b 414 149 341 155 374 149 b 514 165 455 149 488 154 b 553 215 540 176 553 193 b 527 257 553 232 544 246 b 436 285 510 268 480 277 l 303 307 b 127 381 231 319 172 344 b 60 536 82 418 60 469 b 87 635 60 573 69 606 b 161 707 105 663 130 688 b 270 751 193 726 229 741 b 401 767 311 762 355 767 b 524 753 444 767 485 762 b 631 711 564 745 599 731 b 712 637 663 692 690 667 b 756 528 734 607 748 570 l 542 528 m 322 1007 l 407 943 l 494 1007 l 706 1007 l 510 846 l 303 846 l 112 1007 "},"Ţ":{"ha":899,"x_min":0,"x_max":0,"o":"m 7 799 l 7 1007 l 892 1007 l 892 799 l 568 799 l 568 0 l 329 0 l 329 799 m 538 -50 l 538 -197 l 476 -321 l 357 -321 l 411 -189 l 361 -189 l 361 -50 "},"ţ":{"ha":550,"x_min":0,"x_max":0,"o":"m 347 951 l 347 747 l 511 747 l 511 585 l 347 585 l 347 250 b 368 181 347 215 354 192 b 446 165 382 171 408 165 l 511 165 l 511 0 l 365 0 b 249 8 319 0 280 3 b 172 40 217 14 192 24 b 131 103 153 55 139 76 b 118 210 122 131 118 166 l 118 585 l 0 585 l 0 747 l 118 747 l 118 951 m 346 -50 l 346 -197 l 285 -321 l 165 -321 l 219 -189 l 169 -189 l 169 -50 "},"Ť":{"ha":899,"x_min":0,"x_max":0,"o":"m 7 799 l 7 1007 l 892 1007 l 892 799 l 568 799 l 568 0 l 329 0 l 329 799 m 372 1231 l 447 1161 l 529 1231 l 754 1231 l 560 1074 l 335 1074 l 144 1231 "},"ť":{"ha":628,"x_min":0,"x_max":0,"o":"m 418 813 l 446 1007 l 656 1007 l 560 813 m 347 951 l 347 747 l 511 747 l 511 585 l 347 585 l 347 250 b 368 181 347 215 354 192 b 446 165 382 171 408 165 l 511 165 l 511 0 l 365 0 b 249 8 319 0 280 3 b 172 40 217 14 192 24 b 131 103 153 55 139 76 b 118 210 122 131 118 166 l 118 585 l 0 585 l 0 747 l 118 747 l 118 951 "},"Ŧ":{"ha":899,"x_min":0,"x_max":0,"o":"m 136 406 l 136 614 l 329 614 l 329 799 l 7 799 l 7 1007 l 892 1007 l 892 799 l 568 799 l 568 614 l 761 614 l 761 406 l 568 406 l 568 0 l 329 0 l 329 406 "},"ŧ":{"ha":621,"x_min":0,"x_max":0,"o":"m 392 951 l 392 747 l 556 747 l 556 585 l 392 585 l 392 478 l 556 478 l 556 300 l 392 300 l 392 250 b 413 181 392 215 399 192 b 490 165 426 171 452 165 l 556 165 l 556 0 l 410 0 b 293 8 363 0 325 3 b 217 40 262 14 236 24 b 175 103 197 55 183 76 b 163 210 167 131 163 166 l 163 300 l 44 300 l 44 478 l 163 478 l 163 585 l 44 585 l 44 747 l 163 747 l 163 951 "},"Ũ":{"ha":1021,"x_min":0,"x_max":0,"o":"m 313 406 b 321 308 313 369 315 336 b 351 236 326 279 336 256 b 411 192 365 217 385 202 b 513 176 437 181 471 176 b 613 194 554 176 588 182 b 673 242 639 205 659 222 b 701 319 687 263 697 289 b 708 419 706 349 708 382 l 708 1007 l 946 1007 l 946 439 b 922 237 946 361 938 294 b 847 94 906 180 881 132 b 713 10 812 56 767 28 b 513 -18 658 -9 591 -18 b 317 6 438 -18 372 -10 b 181 82 262 21 217 47 b 101 220 144 117 118 163 b 75 431 84 277 75 347 l 75 1007 l 313 1007 m 594 1179 b 669 1231 638 1179 663 1196 l 804 1231 b 771 1146 798 1195 787 1167 b 718 1097 755 1125 738 1108 b 658 1075 699 1086 679 1079 b 604 1069 638 1071 620 1069 b 546 1078 582 1069 563 1072 b 501 1095 529 1083 514 1089 b 464 1113 488 1101 476 1107 b 425 1121 452 1118 439 1121 b 351 1069 382 1121 358 1104 l 217 1069 b 250 1153 223 1104 234 1131 b 303 1202 266 1174 283 1191 b 363 1225 322 1214 342 1221 b 417 1231 383 1229 401 1231 b 474 1222 439 1231 458 1228 b 516 1205 489 1217 503 1211 b 553 1187 528 1199 541 1193 b 594 1179 565 1182 579 1179 "},"ũ":{"ha":857,"x_min":0,"x_max":0,"o":"m 544 104 b 460 15 521 67 493 38 b 325 -18 428 -7 382 -18 b 201 3 275 -18 234 -11 b 122 64 168 17 141 37 b 79 163 102 91 88 124 b 67 297 71 201 67 246 l 67 747 l 296 747 l 296 354 b 298 278 296 327 297 302 b 311 217 299 255 304 234 b 345 175 319 199 330 185 b 410 160 360 165 382 160 b 514 204 459 160 494 175 b 544 353 534 234 544 283 l 544 747 l 774 747 l 774 0 l 544 0 l 544 104 m 517 961 b 590 1022 557 961 582 981 l 725 1022 b 661 890 715 964 694 920 b 537 846 629 861 587 846 b 475 856 513 846 493 849 b 427 876 457 862 441 869 b 387 897 413 884 399 891 b 347 907 374 904 361 907 b 276 846 307 907 284 887 l 142 846 b 203 976 151 901 171 945 b 331 1022 234 1007 277 1022 b 390 1013 354 1022 374 1019 b 435 992 407 1006 422 999 b 474 971 449 984 462 977 b 517 961 487 964 501 961 "},"Ū":{"ha":1021,"x_min":0,"x_max":0,"o":"m 313 406 b 321 308 313 369 315 336 b 351 236 326 279 336 256 b 411 192 365 217 385 202 b 513 176 437 181 471 176 b 613 194 554 176 588 182 b 673 242 639 205 659 222 b 701 319 687 263 697 289 b 708 419 706 349 708 382 l 708 1007 l 946 1007 l 946 439 b 922 237 946 361 938 294 b 847 94 906 180 881 132 b 713 10 812 56 767 28 b 513 -18 658 -9 591 -18 b 317 6 438 -18 372 -10 b 181 82 262 21 217 47 b 101 220 144 117 118 163 b 75 431 84 277 75 347 l 75 1007 l 313 1007 m 278 1233 l 743 1233 l 743 1101 l 278 1101 "},"ū":{"ha":857,"x_min":0,"x_max":0,"o":"m 544 104 b 460 15 521 67 493 38 b 325 -18 428 -7 382 -18 b 201 3 275 -18 234 -11 b 122 64 168 17 141 37 b 79 163 102 91 88 124 b 67 297 71 201 67 246 l 67 747 l 296 747 l 296 354 b 298 278 296 327 297 302 b 311 217 299 255 304 234 b 345 175 319 199 330 185 b 410 160 360 165 382 160 b 514 204 459 160 494 175 b 544 353 534 234 544 283 l 544 747 l 774 747 l 774 0 l 544 0 l 544 104 m 203 1008 l 638 1008 l 638 860 l 203 860 "},"Ŭ":{"ha":1021,"x_min":0,"x_max":0,"o":"m 313 406 b 321 308 313 369 315 336 b 351 236 326 279 336 256 b 411 192 365 217 385 202 b 513 176 437 181 471 176 b 613 194 554 176 588 182 b 673 242 639 205 659 222 b 701 319 687 263 697 289 b 708 419 706 349 708 382 l 708 1007 l 946 1007 l 946 439 b 922 237 946 361 938 294 b 847 94 906 180 881 132 b 713 10 812 56 767 28 b 513 -18 658 -9 591 -18 b 317 6 438 -18 372 -10 b 181 82 262 21 217 47 b 101 220 144 117 118 163 b 75 431 84 277 75 347 l 75 1007 l 313 1007 m 775 1231 b 703 1106 769 1173 745 1131 b 508 1067 660 1080 595 1067 b 317 1106 424 1067 360 1080 b 244 1231 273 1131 249 1173 l 408 1231 b 442 1179 412 1206 423 1188 b 508 1165 461 1170 483 1165 b 576 1179 534 1165 557 1170 b 611 1231 596 1188 607 1206 l 775 1231 "},"ŭ":{"ha":857,"x_min":0,"x_max":0,"o":"m 544 104 b 460 15 521 67 493 38 b 325 -18 428 -7 382 -18 b 201 3 275 -18 234 -11 b 122 64 168 17 141 37 b 79 163 102 91 88 124 b 67 297 71 201 67 246 l 67 747 l 296 747 l 296 354 b 298 278 296 327 297 302 b 311 217 299 255 304 234 b 345 175 319 199 330 185 b 410 160 360 165 382 160 b 514 204 459 160 494 175 b 544 353 534 234 544 283 l 544 747 l 774 747 l 774 0 l 544 0 l 544 104 m 656 1007 b 636 945 653 986 646 965 b 592 892 626 925 611 907 b 521 853 573 876 550 863 b 418 839 492 844 458 839 b 317 853 379 839 346 844 b 247 892 289 863 266 876 b 203 945 228 907 213 925 b 185 1007 193 965 187 986 l 335 1007 b 360 968 338 992 346 979 b 419 951 374 957 394 951 b 480 968 445 951 466 957 b 506 1007 494 979 503 992 l 656 1007 "},"Ů":{"ha":1021,"x_min":0,"x_max":0,"o":"m 313 406 b 321 308 313 369 315 336 b 351 236 326 279 336 256 b 411 192 365 217 385 202 b 513 176 437 181 471 176 b 613 194 554 176 588 182 b 673 242 639 205 659 222 b 701 319 687 263 697 289 b 708 419 706 349 708 382 l 708 1007 l 946 1007 l 946 439 b 922 237 946 361 938 294 b 847 94 906 180 881 132 b 713 10 812 56 767 28 b 513 -18 658 -9 591 -18 b 317 6 438 -18 372 -10 b 181 82 262 21 217 47 b 101 220 144 117 118 163 b 75 431 84 277 75 347 l 75 1007 l 313 1007 m 510 1299 b 599 1265 545 1299 575 1287 b 636 1181 624 1243 636 1215 b 599 1095 636 1145 624 1117 b 510 1062 575 1073 545 1062 b 421 1095 475 1062 445 1073 b 385 1181 397 1117 385 1145 b 422 1265 385 1215 397 1243 b 510 1299 446 1287 475 1299 m 510 1240 b 468 1224 494 1240 480 1235 b 450 1181 456 1212 450 1198 b 468 1138 450 1163 456 1149 b 510 1122 480 1128 494 1122 b 551 1138 525 1122 539 1128 b 569 1181 563 1149 569 1163 b 551 1224 569 1198 563 1212 b 510 1240 539 1235 525 1240 "},"ů":{"ha":857,"x_min":0,"x_max":0,"o":"m 544 104 b 460 15 521 67 493 38 b 325 -18 428 -7 382 -18 b 201 3 275 -18 234 -11 b 122 64 168 17 141 37 b 79 163 102 91 88 124 b 67 297 71 201 67 246 l 67 747 l 296 747 l 296 354 b 298 278 296 327 297 302 b 311 217 299 255 304 234 b 345 175 319 199 330 185 b 410 160 360 165 382 160 b 514 204 459 160 494 175 b 544 353 534 234 544 283 l 544 747 l 774 747 l 774 0 l 544 0 l 544 104 m 421 1090 b 471 1081 438 1090 455 1087 b 513 1056 487 1075 500 1067 b 541 1016 525 1044 534 1031 b 551 967 548 1001 551 984 b 513 878 551 931 539 902 b 421 843 488 855 457 843 b 369 852 402 843 385 846 b 327 878 353 858 339 867 b 299 917 316 889 306 902 b 289 967 292 933 289 949 b 328 1056 289 1003 302 1032 b 421 1090 354 1079 385 1090 m 421 1024 b 381 1008 405 1024 392 1018 b 364 967 369 997 364 983 b 381 927 364 951 369 938 b 421 911 392 916 405 911 b 461 927 437 911 450 916 b 478 967 472 938 478 951 b 461 1008 478 983 472 997 b 421 1024 450 1018 437 1024 "},"Ű":{"ha":1021,"x_min":0,"x_max":0,"o":"m 313 406 b 321 308 313 369 315 336 b 351 236 326 279 336 256 b 411 192 365 217 385 202 b 513 176 437 181 471 176 b 613 194 554 176 588 182 b 673 242 639 205 659 222 b 701 319 687 263 697 289 b 708 419 706 349 708 382 l 708 1007 l 946 1007 l 946 439 b 922 237 946 361 938 294 b 847 94 906 180 881 132 b 713 10 812 56 767 28 b 513 -18 658 -9 591 -18 b 317 6 438 -18 372 -10 b 181 82 262 21 217 47 b 101 220 144 117 118 163 b 75 431 84 277 75 347 l 75 1007 l 313 1007 m 257 1074 l 400 1231 l 681 1231 l 458 1074 m 563 1074 l 706 1231 l 985 1231 l 764 1074 "},"ű":{"ha":856,"x_min":0,"x_max":0,"o":"m 178 846 l 310 1007 l 569 1007 l 350 846 m 489 846 l 619 1007 l 881 1007 l 661 846 m 544 104 b 460 15 521 67 493 38 b 325 -18 428 -7 382 -18 b 201 3 275 -18 234 -11 b 122 64 168 17 141 37 b 79 163 102 91 88 124 b 67 297 71 201 67 246 l 67 747 l 296 747 l 296 354 b 298 278 296 327 297 302 b 311 217 299 255 304 234 b 345 175 319 199 330 185 b 410 160 360 165 382 160 b 514 204 459 160 494 175 b 544 353 534 234 544 283 l 544 747 l 774 747 l 774 0 l 544 0 l 544 104 "},"Ų":{"ha":1021,"x_min":0,"x_max":0,"o":"m 557 -261 b 481 -253 532 -261 507 -259 b 413 -229 456 -248 433 -240 b 363 -187 392 -218 375 -204 b 343 -128 350 -171 343 -151 b 363 -65 343 -104 350 -83 b 417 -14 377 -47 394 -30 b 265 25 358 -7 308 6 b 158 108 222 44 186 72 b 95 240 129 143 109 188 b 75 431 82 293 75 356 l 75 1007 l 313 1007 l 313 406 b 321 308 313 369 315 336 b 351 236 326 279 336 256 b 411 192 365 217 385 202 b 513 176 437 181 471 176 b 613 194 554 176 588 182 b 673 242 639 205 659 222 b 701 319 687 263 697 289 b 708 419 706 349 708 382 l 708 1007 l 946 1007 l 946 439 b 931 272 946 376 941 320 b 884 146 922 224 906 182 b 801 56 862 110 834 80 b 678 -3 767 31 726 12 b 581 -42 641 -14 608 -27 b 539 -94 553 -56 539 -74 b 561 -135 539 -113 546 -126 b 608 -147 576 -143 592 -147 b 649 -142 623 -147 637 -145 b 676 -133 661 -138 670 -135 l 676 -247 b 653 -252 671 -249 663 -251 b 622 -256 644 -253 633 -255 b 588 -260 611 -258 600 -259 b 557 -261 577 -261 566 -261 "},"ų":{"ha":857,"x_min":0,"x_max":0,"o":"m 544 104 b 460 15 521 67 493 38 b 325 -18 428 -7 382 -18 b 201 3 275 -18 234 -11 b 122 64 168 17 141 37 b 79 163 102 91 88 124 b 67 297 71 201 67 246 l 67 747 l 296 747 l 296 354 b 298 278 296 327 297 302 b 311 217 299 255 304 234 b 345 175 319 199 330 185 b 410 160 360 165 382 160 b 514 204 459 160 494 175 b 544 353 534 234 544 283 l 544 747 l 774 747 l 774 0 l 544 0 l 544 104 m 774 0 b 686 -49 738 -18 709 -34 b 651 -94 663 -63 651 -79 b 667 -133 651 -113 657 -126 b 707 -144 678 -141 691 -144 b 742 -140 718 -144 730 -143 b 774 -132 754 -137 764 -135 l 774 -246 b 722 -257 757 -250 740 -254 b 667 -261 703 -260 685 -261 b 588 -253 640 -261 613 -259 b 518 -229 562 -248 538 -240 b 469 -187 498 -218 481 -204 b 450 -128 456 -171 450 -151 b 476 -55 450 -100 459 -76 b 546 0 494 -34 517 -16 l 774 0 "},"Ŵ":{"ha":1272,"x_min":0,"x_max":0,"o":"m 1035 1007 l 1272 1007 l 1044 0 l 789 0 l 636 710 l 485 0 l 231 0 l 0 1007 l 240 1007 l 378 311 l 514 1007 l 760 1007 l 908 308 m 714 1074 l 639 1142 l 557 1074 l 332 1074 l 526 1231 l 751 1231 l 942 1074 "},"ŵ":{"ha":1090,"x_min":0,"x_max":0,"o":"m 750 240 l 849 747 l 1083 747 l 911 0 l 644 0 l 544 551 l 444 0 l 179 0 l 7 747 l 242 747 l 340 240 l 426 747 l 663 747 m 633 846 l 547 910 l 460 846 l 249 846 l 444 1007 l 653 1007 l 842 846 "},"Ŷ":{"ha":961,"x_min":0,"x_max":0,"o":"m 481 621 l 708 1007 l 983 1007 l 594 389 l 594 0 l 357 0 l 357 392 l -22 1007 l 256 1007 m 558 1074 l 483 1142 l 401 1074 l 176 1074 l 371 1231 l 596 1231 l 786 1074 "},"ŷ":{"ha":782,"x_min":0,"x_max":0,"o":"m 90 -78 l 136 -78 b 194 -76 160 -78 180 -77 b 231 -67 209 -74 222 -72 b 255 -49 241 -63 249 -57 b 272 -15 261 -40 267 -29 l 279 4 l 0 747 l 251 747 l 389 279 l 536 747 l 782 747 l 489 0 b 434 -118 470 -47 452 -87 b 372 -193 416 -150 395 -175 b 286 -232 348 -212 319 -225 b 164 -243 253 -239 212 -243 l 90 -243 m 479 846 l 393 910 l 306 846 l 94 846 l 290 1007 l 499 1007 l 688 846 "},"Ÿ":{"ha":961,"x_min":0,"x_max":0,"o":"m 481 621 l 708 1007 l 983 1007 l 594 389 l 594 0 l 357 0 l 357 392 l -22 1007 l 256 1007 m 424 1074 l 219 1074 l 219 1231 l 424 1231 m 743 1074 l 538 1074 l 538 1231 l 743 1231 "},"Ź":{"ha":911,"x_min":0,"x_max":0,"o":"m 339 210 l 867 210 l 867 0 l 26 0 l 26 182 l 550 799 l 67 799 l 67 1007 l 860 1007 l 860 825 m 344 1074 l 488 1231 l 768 1231 l 547 1074 "},"ź":{"ha":761,"x_min":0,"x_max":0,"o":"m 422 565 l 57 565 l 57 747 l 717 747 l 717 565 l 325 182 l 733 182 l 733 0 l 31 0 l 31 182 m 268 846 l 400 1007 l 660 1007 l 440 846 "},"Ż":{"ha":911,"x_min":0,"x_max":0,"o":"m 339 210 l 867 210 l 867 0 l 26 0 l 26 182 l 550 799 l 67 799 l 67 1007 l 860 1007 l 860 825 m 579 1074 l 342 1074 l 342 1231 l 579 1231 "},"ż":{"ha":761,"x_min":0,"x_max":0,"o":"m 422 565 l 57 565 l 57 747 l 717 747 l 717 565 l 325 182 l 733 182 l 733 0 l 31 0 l 31 182 m 499 846 l 293 846 l 293 1007 l 499 1007 "},"Ž":{"ha":911,"x_min":0,"x_max":0,"o":"m 339 210 l 867 210 l 867 0 l 26 0 l 26 182 l 550 799 l 67 799 l 67 1007 l 860 1007 l 860 825 m 400 1231 l 475 1161 l 557 1231 l 782 1231 l 588 1074 l 363 1074 l 172 1231 "},"ž":{"ha":761,"x_min":0,"x_max":0,"o":"m 422 565 l 57 565 l 57 747 l 717 747 l 717 565 l 325 182 l 733 182 l 733 0 l 31 0 l 31 182 m 314 1007 l 399 943 l 486 1007 l 697 1007 l 501 846 l 294 846 l 104 1007 "},"Ə":{"ha":1104,"x_min":0,"x_max":0,"o":"m 57 707 b 115 839 67 756 87 800 b 224 938 144 878 180 911 b 372 1001 267 966 317 987 b 550 1024 428 1016 487 1024 b 758 988 625 1024 694 1012 b 924 886 822 965 878 931 b 1034 724 971 842 1008 788 b 1074 507 1060 660 1074 588 b 1035 290 1074 427 1061 355 b 926 124 1009 225 972 170 b 758 19 879 78 823 43 b 546 -18 694 -6 623 -18 b 314 24 459 -18 381 -4 b 147 148 246 53 191 94 b 55 347 104 202 73 269 b 46 615 37 426 34 515 l 808 615 b 776 718 804 656 793 690 b 715 785 760 746 739 768 b 636 822 691 803 665 815 b 551 833 607 830 579 833 b 397 801 492 833 441 822 b 306 707 353 779 322 748 l 57 707 m 544 171 b 640 184 577 171 609 175 b 725 226 672 193 700 207 b 786 303 750 246 770 271 b 813 418 802 334 811 373 l 294 418 b 318 303 295 373 303 334 b 376 226 333 271 352 246 b 456 184 399 207 426 193 b 544 171 485 175 515 171 "},"Ș":{"ha":935,"x_min":0,"x_max":0,"o":"m 643 715 b 573 803 631 753 608 782 b 444 833 538 823 495 833 b 330 808 398 833 360 825 b 285 736 300 792 285 768 b 317 672 285 711 295 690 b 401 635 338 655 366 642 l 539 607 b 665 576 580 599 622 588 b 784 526 709 564 748 548 b 872 443 820 505 849 477 b 907 312 895 409 907 365 b 870 172 907 260 895 213 b 774 68 846 130 814 96 b 640 4 735 40 690 19 b 485 -18 589 -11 537 -18 b 169 73 355 -18 250 12 b 21 328 89 134 39 219 l 257 328 b 337 211 270 275 297 236 b 490 174 377 186 428 174 b 551 179 511 174 531 175 b 607 197 572 183 590 189 b 647 231 624 206 637 217 b 662 283 657 244 662 262 b 610 359 662 316 645 341 b 475 404 576 377 531 392 l 353 429 b 235 464 312 437 273 449 b 135 521 197 479 163 498 b 66 605 106 544 83 572 b 40 722 49 638 40 677 b 78 856 40 773 53 818 b 175 950 103 894 135 925 b 310 1006 215 975 260 994 b 458 1024 360 1018 409 1024 b 602 1007 507 1024 555 1018 b 729 953 649 996 691 978 b 826 857 767 928 799 896 b 878 715 852 818 869 771 l 643 715 m 554 -50 l 554 -197 l 493 -321 l 374 -321 l 428 -189 l 378 -189 l 378 -50 "},"ș":{"ha":808,"x_min":0,"x_max":0,"o":"m 542 528 b 490 585 534 556 517 575 b 396 600 463 595 432 600 b 276 544 316 600 276 581 b 298 503 276 527 284 513 b 368 478 312 493 336 484 l 507 453 b 707 381 597 436 663 412 b 772 235 750 349 772 300 b 745 124 772 193 763 156 b 669 45 727 92 702 66 b 555 -2 637 24 599 9 b 411 -18 511 -13 463 -18 b 274 -2 362 -18 316 -13 b 163 47 232 9 195 25 b 85 128 131 68 105 96 b 44 243 64 161 51 200 l 257 243 b 313 169 267 207 286 182 b 414 149 341 155 374 149 b 514 165 455 149 488 154 b 553 215 540 176 553 193 b 527 257 553 232 544 246 b 436 285 510 268 480 277 l 303 307 b 127 381 231 319 172 344 b 60 536 82 418 60 469 b 87 635 60 573 69 606 b 161 707 105 663 130 688 b 270 751 193 726 229 741 b 401 767 311 762 355 767 b 524 753 444 767 485 762 b 631 711 564 745 599 731 b 712 637 663 692 690 667 b 756 528 734 607 748 570 l 542 528 m 499 -50 l 499 -197 l 437 -321 l 318 -321 l 372 -189 l 322 -189 l 322 -50 "},"Ț":{"ha":899,"x_min":0,"x_max":0,"o":"m 7 799 l 7 1007 l 892 1007 l 892 799 l 568 799 l 568 0 l 329 0 l 329 799 m 538 -50 l 538 -197 l 476 -321 l 357 -321 l 411 -189 l 361 -189 l 361 -50 "},"ț":{"ha":550,"x_min":0,"x_max":0,"o":"m 347 951 l 347 747 l 511 747 l 511 585 l 347 585 l 347 250 b 368 181 347 215 354 192 b 446 165 382 171 408 165 l 511 165 l 511 0 l 365 0 b 249 8 319 0 280 3 b 172 40 217 14 192 24 b 131 103 153 55 139 76 b 118 210 122 131 118 166 l 118 585 l 0 585 l 0 747 l 118 747 l 118 951 m 346 -50 l 346 -197 l 285 -321 l 165 -321 l 219 -189 l 169 -189 l 169 -50 "},"Ȳ":{"ha":961,"x_min":0,"x_max":0,"o":"m 481 621 l 708 1007 l 983 1007 l 594 389 l 594 0 l 357 0 l 357 392 l -22 1007 l 256 1007 m 249 1233 l 714 1233 l 714 1101 l 249 1101 "},"ȳ":{"ha":782,"x_min":0,"x_max":0,"o":"m 90 -78 l 136 -78 b 194 -76 160 -78 180 -77 b 231 -67 209 -74 222 -72 b 255 -49 241 -63 249 -57 b 272 -15 261 -40 267 -29 l 279 4 l 0 747 l 251 747 l 389 279 l 536 747 l 782 747 l 489 0 b 434 -118 470 -47 452 -87 b 372 -193 416 -150 395 -175 b 286 -232 348 -212 319 -225 b 164 -243 253 -239 212 -243 l 90 -243 m 174 1008 l 608 1008 l 608 860 l 174 860 "},"ȷ":{"ha":394,"x_min":0,"x_max":0,"o":"m 311 747 l 311 -6 b 297 -123 311 -53 306 -92 b 252 -196 287 -154 272 -178 b 175 -233 232 -213 206 -226 b 64 -243 144 -240 106 -243 l -21 -243 l -21 -78 l 6 -78 b 68 -61 38 -78 59 -72 b 82 3 77 -50 82 -29 l 82 747 "},"ə":{"ha":854,"x_min":0,"x_max":0,"o":"m 36 517 b 101 631 53 561 75 599 b 191 709 128 662 158 688 b 296 755 224 730 259 745 b 408 769 333 765 370 769 b 575 742 469 769 525 760 b 704 664 625 724 668 698 b 788 540 740 630 768 588 b 818 374 808 491 818 436 b 786 211 818 313 807 259 b 700 88 765 163 736 122 b 573 10 664 54 622 28 b 418 -18 524 -9 473 -18 b 251 15 356 -18 300 -7 b 127 109 202 38 161 69 b 52 253 93 149 68 197 b 33 436 36 308 30 369 l 586 436 b 569 505 584 462 578 485 b 530 553 559 525 546 541 b 476 582 514 566 496 575 b 415 592 456 588 436 592 b 308 571 372 592 336 585 b 247 517 281 557 260 539 l 36 517 m 418 157 b 476 165 438 157 458 160 b 527 190 495 171 512 179 b 565 233 542 201 555 216 b 585 297 575 251 582 272 l 261 297 b 308 192 263 250 279 215 b 418 157 338 169 375 157 "},"ˆ":{"ha":654,"x_min":0,"x_max":0,"o":"m 415 846 l 329 910 l 242 846 l 31 846 l 226 1007 l 435 1007 l 624 846 "},"ˇ":{"ha":654,"x_min":0,"x_max":0,"o":"m 240 1007 l 325 943 l 413 1007 l 624 1007 l 428 846 l 221 846 l 31 1007 "},"˘":{"ha":532,"x_min":0,"x_max":0,"o":"m 501 1007 b 482 945 499 986 492 965 b 438 892 472 925 457 907 b 367 853 419 876 395 863 b 264 839 338 844 304 839 b 163 853 225 839 191 844 b 92 892 135 863 111 876 b 49 945 73 907 59 925 b 31 1007 38 965 32 986 l 181 1007 b 206 968 183 992 192 979 b 265 951 219 957 239 951 b 326 968 291 951 311 957 b 351 1007 340 979 349 992 l 501 1007 "},"˙":{"ha":267,"x_min":0,"x_max":0,"o":"m 236 846 l 31 846 l 31 1007 l 236 1007 "},"˚":{"ha":324,"x_min":0,"x_max":0,"o":"m 163 1090 b 213 1081 180 1090 197 1087 b 254 1056 228 1075 242 1067 b 283 1016 266 1044 276 1031 b 293 967 290 1001 293 984 b 255 878 293 931 280 902 b 163 843 229 855 199 843 b 110 852 144 843 127 846 b 69 878 94 858 80 867 b 41 917 57 889 48 902 b 31 967 34 933 31 949 b 69 1056 31 1003 44 1032 b 163 1090 95 1079 126 1090 m 163 1024 b 122 1008 147 1024 133 1018 b 106 967 111 997 106 983 b 122 927 106 951 111 938 b 163 911 133 916 147 911 b 203 927 178 911 192 916 b 219 967 214 938 219 951 b 203 1008 219 983 214 997 b 163 1024 192 1018 178 1024 "},"˛":{"ha":385,"x_min":0,"x_max":0,"o":"m 354 0 b 267 -49 319 -18 290 -34 b 232 -94 244 -63 232 -79 b 248 -133 232 -113 237 -126 b 287 -144 259 -141 272 -144 b 322 -140 299 -144 310 -143 b 354 -132 334 -137 345 -135 l 354 -246 b 302 -257 338 -250 320 -254 b 247 -261 284 -260 266 -261 b 168 -253 220 -261 194 -259 b 99 -229 142 -248 119 -240 b 49 -187 78 -218 62 -204 b 31 -128 37 -171 31 -151 b 57 -55 31 -100 39 -76 b 126 0 75 -34 98 -16 l 354 0 "},"˜":{"ha":644,"x_min":0,"x_max":0,"o":"m 406 961 b 479 1022 446 961 471 981 l 614 1022 b 550 890 604 964 582 920 b 426 846 518 861 476 846 b 364 856 402 846 381 849 b 316 876 346 862 330 869 b 276 897 302 884 288 891 b 236 907 263 904 250 907 b 165 846 196 907 173 887 l 31 846 b 92 976 40 901 60 945 b 219 1022 123 1007 166 1022 b 279 1013 243 1022 263 1019 b 324 992 296 1006 311 999 b 363 971 338 984 351 977 b 406 961 376 964 390 961 "},"˝":{"ha":764,"x_min":0,"x_max":0,"o":"m 31 846 l 163 1007 l 422 1007 l 203 846 m 342 846 l 472 1007 l 733 1007 l 514 846 "},"̬":{"ha":654,"x_min":0,"x_max":0,"o":"m 240 0 l 325 -79 l 413 0 l 624 0 l 428 -192 l 221 -192 l 31 0 "},"Δ":{"ha":963,"x_min":0,"x_max":0,"o":"m 963 0 l 0 0 l 481 1025 m 269 176 l 692 176 l 481 622 "},"Ω":{"ha":1090,"x_min":0,"x_max":0,"o":"m 546 1024 b 728 997 609 1024 670 1015 b 885 916 787 978 840 952 b 996 783 931 880 968 836 b 1038 597 1024 729 1038 668 b 971 371 1038 510 1015 435 b 779 231 926 307 863 260 l 779 192 l 1038 192 l 1038 0 l 582 0 l 582 336 b 764 419 659 347 719 375 b 831 590 808 464 831 521 b 811 694 831 627 824 662 b 755 776 798 726 779 753 b 665 831 730 800 700 818 b 546 851 630 845 590 851 b 426 831 501 851 461 845 b 335 776 390 818 360 800 b 278 694 310 753 291 726 b 258 590 265 662 258 627 b 325 419 258 521 281 464 b 507 336 369 375 430 347 l 507 0 l 53 0 l 53 192 l 310 192 l 310 231 b 119 371 226 260 163 307 b 53 597 75 435 53 510 b 94 783 53 668 66 729 b 203 916 121 836 158 880 b 361 997 249 952 302 978 b 546 1024 420 1015 482 1024 "},"π":{"ha":979,"x_min":0,"x_max":0,"o":"m 156 554 l 44 554 l 44 747 l 933 747 l 933 554 l 824 554 l 824 261 b 839 197 824 230 829 208 b 903 181 849 186 870 181 l 933 181 l 933 0 l 857 0 b 746 10 814 0 777 3 b 668 47 714 17 688 30 b 623 120 648 65 633 89 b 608 238 613 151 608 190 l 608 554 l 371 554 l 371 0 l 156 0 "},"Ẁ":{"ha":1272,"x_min":0,"x_max":0,"o":"m 1035 1007 l 1272 1007 l 1044 0 l 789 0 l 636 710 l 485 0 l 231 0 l 0 1007 l 240 1007 l 378 311 l 514 1007 l 760 1007 l 908 308 m 593 1231 l 738 1074 l 535 1074 l 314 1231 "},"ẁ":{"ha":1090,"x_min":0,"x_max":0,"o":"m 750 240 l 849 747 l 1083 747 l 911 0 l 644 0 l 544 551 l 444 0 l 179 0 l 7 747 l 242 747 l 340 240 l 426 747 l 663 747 m 499 1007 l 631 846 l 458 846 l 239 1007 "},"Ẃ":{"ha":1272,"x_min":0,"x_max":0,"o":"m 1035 1007 l 1272 1007 l 1044 0 l 789 0 l 636 710 l 485 0 l 231 0 l 0 1007 l 240 1007 l 378 311 l 514 1007 l 760 1007 l 908 308 m 535 1074 l 678 1231 l 958 1231 l 738 1074 "},"ẃ":{"ha":1090,"x_min":0,"x_max":0,"o":"m 750 240 l 849 747 l 1083 747 l 911 0 l 644 0 l 544 551 l 444 0 l 179 0 l 7 747 l 242 747 l 340 240 l 426 747 l 663 747 m 458 846 l 590 1007 l 850 1007 l 631 846 "},"Ẅ":{"ha":1272,"x_min":0,"x_max":0,"o":"m 1035 1007 l 1272 1007 l 1044 0 l 789 0 l 636 710 l 485 0 l 231 0 l 0 1007 l 240 1007 l 378 311 l 514 1007 l 760 1007 l 908 308 m 579 1074 l 375 1074 l 375 1231 l 579 1231 m 899 1074 l 693 1074 l 693 1231 l 899 1231 "},"ẅ":{"ha":1090,"x_min":0,"x_max":0,"o":"m 750 240 l 849 747 l 1083 747 l 911 0 l 644 0 l 544 551 l 444 0 l 179 0 l 7 747 l 242 747 l 340 240 l 426 747 l 663 747 m 493 1007 l 493 831 l 288 831 l 288 1007 m 803 831 l 599 831 l 599 1007 l 803 1007 "},"Ị":{"ha":419,"x_min":0,"x_max":0,"o":"m 92 0 l 92 1007 l 329 1007 l 329 0 m 313 -243 l 107 -243 l 107 -79 l 313 -79 "},"ị":{"ha":394,"x_min":0,"x_max":0,"o":"m 313 0 l 82 0 l 82 747 l 313 747 m 311 824 l 82 824 l 82 1007 l 311 1007 m 299 -243 l 93 -243 l 93 -79 l 299 -79 "},"Ọ":{"ha":1106,"x_min":0,"x_max":0,"o":"m 282 503 b 303 362 282 449 289 402 b 362 260 318 322 337 288 b 448 199 386 233 415 213 b 553 178 481 185 516 178 b 658 199 590 178 625 185 b 744 260 691 213 719 233 b 802 362 768 288 788 322 b 824 503 816 402 824 449 b 802 644 824 556 816 603 b 744 745 788 684 768 718 b 658 807 719 772 691 793 b 553 828 625 821 590 828 b 448 807 516 828 481 821 b 362 745 415 793 386 772 b 303 644 337 718 318 684 b 282 503 289 603 282 556 m 1075 503 b 1037 289 1075 424 1062 353 b 930 125 1011 225 976 170 b 765 19 884 80 829 44 b 553 -18 700 -6 630 -18 b 340 19 475 -18 404 -6 b 176 125 276 44 222 80 b 69 289 130 170 94 225 b 31 503 43 353 31 424 b 69 717 31 581 43 653 b 176 881 94 781 130 835 b 340 986 222 926 276 961 b 553 1024 404 1011 475 1024 b 765 986 630 1024 700 1011 b 930 881 829 961 884 926 b 1037 717 976 835 1011 781 b 1075 503 1062 653 1075 581 m 656 -243 l 450 -243 l 450 -79 l 656 -79 "},"ọ":{"ha":867,"x_min":0,"x_max":0,"o":"m 433 592 b 370 581 411 592 390 588 b 318 544 350 573 333 561 b 283 477 303 527 292 504 b 271 376 275 450 271 416 b 283 276 271 338 275 304 b 317 209 292 249 303 226 b 369 172 332 192 349 179 b 433 160 389 164 410 160 b 498 172 456 160 478 164 b 549 209 518 179 535 192 b 583 276 564 226 575 249 b 596 376 592 304 596 338 b 583 477 596 416 592 450 b 549 544 575 504 563 527 b 497 581 534 561 516 573 b 433 592 477 588 456 592 m 433 769 b 583 746 485 769 535 762 b 709 674 630 730 672 706 b 797 552 746 642 775 602 b 829 376 818 503 829 444 b 797 201 829 309 818 250 b 709 78 775 151 746 110 b 583 6 672 45 630 21 b 433 -18 535 -10 485 -18 b 284 6 381 -18 332 -10 b 158 78 236 21 194 45 b 70 201 121 110 92 151 b 38 376 48 250 38 309 b 70 552 38 444 48 503 b 158 674 92 602 121 642 b 284 746 194 706 236 730 b 433 769 332 762 381 769 m 536 -243 l 331 -243 l 331 -79 l 536 -79 "},"Ụ":{"ha":1021,"x_min":0,"x_max":0,"o":"m 313 406 b 321 308 313 369 315 336 b 351 236 326 279 336 256 b 411 192 365 217 385 202 b 513 176 437 181 471 176 b 613 194 554 176 588 182 b 673 242 639 205 659 222 b 701 319 687 263 697 289 b 708 419 706 349 708 382 l 708 1007 l 946 1007 l 946 439 b 922 237 946 361 938 294 b 847 94 906 180 881 132 b 713 10 812 56 767 28 b 513 -18 658 -9 591 -18 b 317 6 438 -18 372 -10 b 181 82 262 21 217 47 b 101 220 144 117 118 163 b 75 431 84 277 75 347 l 75 1007 l 313 1007 m 613 -243 l 407 -243 l 407 -79 l 613 -79 "},"ụ":{"ha":857,"x_min":0,"x_max":0,"o":"m 544 104 b 460 15 521 67 493 38 b 325 -18 428 -7 382 -18 b 201 3 275 -18 234 -11 b 122 64 168 17 141 37 b 79 163 102 91 88 124 b 67 297 71 201 67 246 l 67 747 l 296 747 l 296 354 b 298 278 296 327 297 302 b 311 217 299 255 304 234 b 345 175 319 199 330 185 b 410 160 360 165 382 160 b 514 204 459 160 494 175 b 544 353 534 234 544 283 l 544 747 l 774 747 l 774 0 l 544 0 l 544 104 m 522 -243 l 317 -243 l 317 -79 l 522 -79 "},"Ỳ":{"ha":961,"x_min":0,"x_max":0,"o":"m 481 621 l 708 1007 l 983 1007 l 594 389 l 594 0 l 357 0 l 357 392 l -22 1007 l 256 1007 m 465 1231 l 610 1074 l 407 1074 l 186 1231 "},"ỳ":{"ha":782,"x_min":0,"x_max":0,"o":"m 90 -78 l 136 -78 b 194 -76 160 -78 180 -77 b 231 -67 209 -74 222 -72 b 255 -49 241 -63 249 -57 b 272 -15 261 -40 267 -29 l 279 4 l 0 747 l 251 747 l 389 279 l 536 747 l 782 747 l 489 0 b 434 -118 470 -47 452 -87 b 372 -193 416 -150 395 -175 b 286 -232 348 -212 319 -225 b 164 -243 253 -239 212 -243 l 90 -243 m 372 1007 l 504 846 l 332 846 l 113 1007 "},"–":{"ha":679,"x_min":0,"x_max":0,"o":"m 31 465 l 649 465 l 649 272 l 31 272 "},"—":{"ha":1004,"x_min":0,"x_max":0,"o":"m 31 465 l 975 465 l 975 272 l 31 272 "},"‘":{"ha":390,"x_min":0,"x_max":0,"o":"m 67 542 l 67 801 l 208 1007 l 344 1007 l 224 788 l 324 788 l 324 542 "},"’":{"ha":390,"x_min":0,"x_max":0,"o":"m 324 1007 l 324 746 l 182 540 l 46 540 l 167 760 l 67 760 l 67 1007 "},"‚":{"ha":392,"x_min":0,"x_max":0,"o":"m 324 247 l 324 -14 l 182 -219 l 46 -219 l 167 0 l 67 0 l 67 247 "},"“":{"ha":725,"x_min":0,"x_max":0,"o":"m 67 542 l 67 801 l 208 1007 l 344 1007 l 224 788 l 324 788 l 324 542 m 401 542 l 401 801 l 543 1007 l 679 1007 l 558 788 l 658 788 l 658 542 "},"”":{"ha":726,"x_min":0,"x_max":0,"o":"m 658 1007 l 658 746 l 517 540 l 381 540 l 501 760 l 401 760 l 401 1007 m 324 1007 l 324 746 l 182 540 l 46 540 l 167 760 l 67 760 l 67 1007 "},"„":{"ha":725,"x_min":0,"x_max":0,"o":"m 324 247 l 324 -14 l 182 -219 l 46 -219 l 167 0 l 67 0 l 67 247 m 658 247 l 658 -14 l 517 -219 l 381 -219 l 501 0 l 401 0 l 401 247 "},"†":{"ha":863,"x_min":0,"x_max":0,"o":"m 324 554 l 44 554 l 44 747 l 324 747 l 324 1007 l 539 1007 l 539 747 l 817 747 l 817 554 l 539 554 l 539 0 l 324 0 "},"‡":{"ha":892,"x_min":0,"x_max":0,"o":"m 847 215 l 554 215 l 554 0 l 339 0 l 339 215 l 44 215 l 44 408 l 339 408 l 339 601 l 44 601 l 44 793 l 339 793 l 339 1007 l 554 1007 l 554 793 l 847 793 l 847 601 l 554 601 l 554 408 l 847 408 "},"•":{"ha":621,"x_min":0,"x_max":0,"o":"m 60 388 b 79 483 60 422 66 454 b 132 561 92 513 110 539 b 210 614 154 583 180 601 b 304 633 239 627 271 633 b 406 614 340 633 374 627 b 487 561 437 601 464 583 b 540 483 509 539 527 513 b 560 388 553 454 560 422 b 540 287 560 351 553 318 b 487 206 527 256 509 229 b 406 153 464 184 437 166 b 304 133 374 140 340 133 b 210 153 271 133 239 140 b 132 206 180 166 154 184 b 79 287 110 229 92 256 b 60 388 66 318 60 351 "},"…":{"ha":1175,"x_min":0,"x_max":0,"o":"m 850 247 l 1108 247 l 1108 0 l 850 0 m 458 247 l 717 247 l 717 0 l 458 0 m 67 247 l 325 247 l 325 0 l 67 0 "},"‰":{"ha":2053,"x_min":0,"x_max":0,"o":"m 1761 104 b 1825 144 1787 104 1808 117 b 1850 282 1842 170 1850 216 b 1825 422 1850 350 1842 396 b 1761 461 1808 448 1787 461 b 1695 422 1734 461 1712 448 b 1669 282 1678 396 1669 350 b 1695 144 1669 216 1678 170 b 1761 104 1712 117 1734 104 m 1761 -11 b 1575 66 1679 -11 1617 15 b 1513 282 1533 117 1513 189 b 1575 499 1513 375 1533 447 b 1761 576 1617 550 1679 576 b 1945 499 1843 576 1904 550 b 2007 282 1986 447 2007 375 b 1945 66 2007 189 1986 117 b 1761 -11 1904 15 1843 -11 m 269 544 b 333 584 295 544 317 558 b 358 722 350 610 358 656 b 333 863 358 790 350 837 b 269 901 317 888 295 901 b 203 863 243 901 221 888 b 178 722 186 837 178 790 b 203 584 178 656 186 610 b 269 544 221 558 243 544 m 269 429 b 83 506 187 429 125 455 b 21 722 42 558 21 630 b 83 939 21 815 42 887 b 269 1017 125 991 187 1017 b 453 939 351 1017 412 991 b 515 722 495 887 515 815 b 453 506 515 630 495 558 b 269 429 412 455 351 429 m 978 1007 l 1208 1007 l 514 0 l 283 0 m 1200 104 b 1264 144 1226 104 1247 117 b 1289 282 1281 170 1289 216 b 1264 422 1289 350 1281 396 b 1200 461 1247 448 1226 461 b 1134 422 1173 461 1151 448 b 1108 282 1117 396 1108 350 b 1134 144 1108 216 1117 170 b 1200 104 1151 117 1173 104 m 1200 -11 b 1014 66 1118 -11 1056 15 b 951 282 972 117 951 189 b 1014 499 951 375 972 447 b 1200 576 1056 550 1118 576 b 1384 499 1281 576 1343 550 b 1446 282 1425 447 1446 375 b 1384 66 1446 189 1425 117 b 1200 -11 1343 15 1281 -11 "},"‹":{"ha":492,"x_min":0,"x_max":0,"o":"m 247 701 l 463 701 l 281 379 l 461 57 l 247 57 l 14 381 "},"›":{"ha":492,"x_min":0,"x_max":0,"o":"m 31 57 l 211 379 l 29 701 l 244 701 l 478 381 l 244 57 "},"⁄":{"ha":369,"x_min":0,"x_max":0,"o":"m 417 1007 l 647 1007 l -47 0 l -278 0 "},"⁰":{"ha":561,"x_min":0,"x_max":0,"o":"m 269 713 b 333 752 295 713 317 726 b 358 890 350 778 358 825 b 333 1031 358 958 350 1005 b 269 1069 317 1056 295 1069 b 203 1031 243 1069 221 1056 b 178 890 186 1005 178 958 b 203 752 178 825 186 778 b 269 713 221 726 243 713 m 269 597 b 83 674 187 597 125 623 b 21 890 42 726 21 798 b 83 1107 21 983 42 1055 b 269 1185 125 1159 187 1185 b 453 1107 351 1185 412 1159 b 515 890 495 1055 515 983 b 453 674 515 798 495 726 b 269 597 412 623 351 597 "},"⁴":{"ha":553,"x_min":0,"x_max":0,"o":"m 294 851 l 294 989 l 176 851 m 447 721 l 447 608 l 294 608 l 294 721 l 22 721 l 22 838 l 313 1175 l 447 1175 l 447 851 l 533 851 l 533 721 "},"⁵":{"ha":551,"x_min":0,"x_max":0,"o":"m 272 713 b 338 736 300 713 322 720 b 362 799 354 752 362 773 b 339 859 362 823 355 843 b 276 883 323 875 302 883 b 222 871 255 883 237 879 b 186 838 206 863 194 851 l 50 849 l 92 1175 l 483 1175 l 483 1044 l 221 1044 l 207 961 b 262 990 222 974 240 984 b 329 999 285 996 307 999 b 465 946 384 999 429 981 b 519 799 501 911 519 862 b 453 650 519 735 497 685 b 281 597 408 615 351 597 b 190 608 248 597 218 601 b 115 641 162 615 137 626 b 60 699 93 656 75 676 b 32 785 46 723 37 751 l 178 785 b 210 734 182 765 193 748 b 272 713 226 720 247 713 "},"⁶":{"ha":543,"x_min":0,"x_max":0,"o":"m 192 799 b 215 735 192 772 200 751 b 272 712 231 720 250 712 b 329 735 294 712 313 720 b 353 799 345 751 353 772 b 328 860 353 825 345 845 b 272 882 312 875 294 882 b 215 860 250 882 231 875 b 192 799 200 846 192 825 m 282 1069 b 215 1040 255 1069 233 1060 b 187 954 197 1021 187 992 b 244 987 202 969 221 980 b 319 997 268 994 293 997 b 387 985 342 997 364 993 b 448 948 409 976 430 964 b 492 887 466 932 481 911 b 510 800 504 862 510 833 b 492 714 510 768 504 739 b 442 650 480 689 463 668 b 367 610 422 632 397 619 b 272 597 338 602 306 597 b 168 617 232 597 198 604 b 94 675 138 631 114 650 b 49 765 74 700 59 730 b 33 879 38 799 33 837 b 49 1001 33 923 38 963 b 95 1098 59 1038 74 1071 b 175 1162 116 1125 143 1147 b 289 1185 207 1177 245 1185 b 442 1138 356 1185 406 1169 b 497 1021 477 1107 495 1068 l 354 1021 b 331 1058 352 1038 344 1051 b 282 1069 317 1066 300 1069 "},"⁷":{"ha":469,"x_min":0,"x_max":0,"o":"m 469 1175 l 469 1044 b 367 958 431 1017 396 988 b 293 861 337 929 313 896 b 250 746 274 826 259 788 b 238 608 241 704 237 658 l 71 608 b 89 747 70 657 76 704 b 142 868 102 791 120 831 b 220 968 165 905 191 938 b 311 1044 249 998 280 1023 l 15 1044 l 15 1175 "},"⁸":{"ha":542,"x_min":0,"x_max":0,"o":"m 271 1185 b 435 1140 342 1185 397 1170 b 493 1031 474 1109 493 1073 b 478 965 493 1007 488 985 b 436 912 468 944 454 926 b 510 776 485 881 510 836 b 492 703 510 750 504 725 b 444 647 481 682 465 663 b 368 610 423 631 398 619 b 271 597 338 602 306 597 b 174 610 236 597 203 602 b 98 647 144 619 119 631 b 49 703 77 663 61 682 b 32 776 38 725 32 750 b 107 912 32 836 57 881 b 64 964 88 926 74 944 b 49 1031 54 984 49 1006 b 106 1140 49 1073 68 1109 b 271 1185 145 1170 200 1185 m 271 856 b 210 835 246 856 226 849 b 187 785 195 822 187 805 b 210 733 187 763 195 746 b 271 712 226 719 246 712 b 332 733 297 712 317 719 b 354 785 347 746 354 763 b 332 835 354 805 347 822 b 271 856 317 849 297 856 m 343 1014 b 323 1054 343 1031 336 1044 b 271 1069 309 1064 292 1069 b 219 1054 250 1069 232 1064 b 200 1014 206 1044 200 1031 b 219 972 200 996 206 982 b 271 956 232 961 250 956 b 323 972 292 956 309 961 b 343 1014 336 982 343 996 "},"⁹":{"ha":543,"x_min":0,"x_max":0,"o":"m 261 713 b 327 742 287 713 309 722 b 353 829 345 761 354 790 b 297 797 338 814 319 803 b 224 786 275 790 250 786 b 155 798 200 786 178 790 b 94 835 132 806 112 818 b 49 897 76 851 61 872 b 32 983 38 921 32 950 b 49 1069 32 1016 38 1044 b 98 1133 61 1094 77 1116 b 172 1172 119 1150 143 1163 b 264 1185 200 1180 231 1185 b 448 1109 346 1185 408 1159 b 508 904 488 1059 508 990 b 494 783 508 861 503 820 b 448 685 484 745 469 713 b 369 621 427 658 401 637 b 254 597 337 605 299 597 b 101 645 188 597 136 613 b 44 764 65 677 46 717 l 188 764 b 212 724 189 745 197 732 b 261 713 226 716 243 713 m 350 985 b 326 1047 350 1012 342 1032 b 268 1069 309 1062 290 1069 b 213 1047 247 1069 228 1062 b 189 985 197 1032 189 1012 b 213 924 189 958 197 938 b 268 903 228 910 247 903 b 326 924 290 903 309 910 b 350 985 342 938 350 958 "},"⁺":{"ha":528,"x_min":0,"x_max":0,"o":"m 189 753 l 33 753 l 33 886 l 189 886 l 189 1026 l 340 1026 l 340 886 l 494 886 l 494 753 l 340 753 l 340 608 l 189 608 "}}}
